<mxfile host="app.diagrams.net" modified="2022-04-24T07:51:35.436Z" agent="5.0 (Windows NT 10.0; Win64; x64) AppleWebKit/537.36 (KHTML, like Gecko) Chrome/100.0.4896.127 Safari/537.36" etag="BPjGDzbxFNv0MRL683nK" version="17.4.0" type="github">
  <diagram id="1tQynivYQp4L8iFi6oD6" name="Page-1">
    <mxGraphModel dx="1038" dy="521" grid="1" gridSize="10" guides="1" tooltips="1" connect="1" arrows="1" fold="1" page="1" pageScale="1" pageWidth="827" pageHeight="1169" math="0" shadow="0">
      <root>
        <mxCell id="0" />
        <mxCell id="1" parent="0" />
        <mxCell id="SmyKIAqTWZvq4vPg4cwM-2" value="" style="shape=image;verticalLabelPosition=bottom;labelBackgroundColor=default;verticalAlign=top;aspect=fixed;imageAspect=0;image=data:image/png,iVBORw0KGgoAAAANSUhEUgAAAV8AAADNCAYAAAAfbHN9AAAACXBIWXMAAC4jAAAuIwF4pT92AAAJz2lUWHRYTUw6Y29tLmFkb2JlLnhtcAAAAAAAPD94cGFja2V0IGJlZ2luPSLvu78iIGlkPSJXNU0wTXBDZWhpSHpyZVN6TlRjemtjOWQiPz4gPHg6eG1wbWV0YSB4bWxuczp4PSJhZG9iZTpuczptZXRhLyIgeDp4bXB0az0iQWRvYmUgWE1QIENvcmUgNi4wLWMwMDIgNzkuMTY0MzYwLCAyMDIwLzAyLzEzLTAxOjA3OjIyICAgICAgICAiPiA8cmRmOlJERiB4bWxuczpyZGY9Imh0dHA6Ly93d3cudzMub3JnLzE5OTkvMDIvMjItcmRmLXN5bnRheC1ucyMiPiA8cmRmOkRlc2NyaXB0aW9uIHJkZjphYm91dD0iIiB4bWxuczp4bXBNTT0iaHR0cDovL25zLmFkb2JlLmNvbS94YXAvMS4wL21tLyIgeG1sbnM6c3RFdnQ9Imh0dHA6Ly9ucy5hZG9iZS5jb20veGFwLzEuMC9zVHlwZS9SZXNvdXJjZUV2ZW50IyIgeG1sbnM6c3RSZWY9Imh0dHA6Ly9ucy5hZG9iZS5jb20veGFwLzEuMC9zVHlwZS9SZXNvdXJjZVJlZiMiIHhtbG5zOmRjPSJodHRwOi8vcHVybC5vcmcvZGMvZWxlbWVudHMvMS4xLyIgeG1sbnM6cGhvdG9zaG9wPSJodHRwOi8vbnMuYWRvYmUuY29tL3Bob3Rvc2hvcC8xLjAvIiB4bWxuczp0aWZmPSJodHRwOi8vbnMuYWRvYmUuY29tL3RpZmYvMS4wLyIgeG1sbnM6ZXhpZj0iaHR0cDovL25zLmFkb2JlLmNvbS9leGlmLzEuMC8iIHhtbG5zOnhtcD0iaHR0cDovL25zLmFkb2JlLmNvbS94YXAvMS4wLyIgeG1wTU06RG9jdW1lbnRJRD0iYWRvYmU6ZG9jaWQ6cGhvdG9zaG9wOjI5NDkzMGEwLTA4MmUtNGU0Ni04NjM4LTc5YTRlMmNlYmU4MSIgeG1wTU06SW5zdGFuY2VJRD0ieG1wLmlpZDpiODZkNzdhYS1mOTE4LTRiNDAtOTM1YS1mMDMzZGU4N2Q1NzYiIHhtcE1NOk9yaWdpbmFsRG9jdW1lbnRJRD0iMjBDRDNFRkY1OUIyMkE3N0RFRDY4NEIwNUI4RTk2QkQiIGRjOmZvcm1hdD0iaW1hZ2UvcG5nIiBwaG90b3Nob3A6Q29sb3JNb2RlPSIzIiBwaG90b3Nob3A6SUNDUHJvZmlsZT0iIiB0aWZmOkltYWdlV2lkdGg9IjM4MCIgdGlmZjpJbWFnZUxlbmd0aD0iMzM0IiB0aWZmOlBob3RvbWV0cmljSW50ZXJwcmV0YXRpb249IjIiIHRpZmY6U2FtcGxlc1BlclBpeGVsPSIzIiB0aWZmOlhSZXNvbHV0aW9uPSIzMDAvMSIgdGlmZjpZUmVzb2x1dGlvbj0iMzAwLzEiIHRpZmY6UmVzb2x1dGlvblVuaXQ9IjIiIGV4aWY6RXhpZlZlcnNpb249IjAyMzEiIGV4aWY6Q29sb3JTcGFjZT0iNjU1MzUiIGV4aWY6UGl4ZWxYRGltZW5zaW9uPSIzODAiIGV4aWY6UGl4ZWxZRGltZW5zaW9uPSIzMzQiIHhtcDpDcmVhdGVEYXRlPSIyMDIyLTA0LTI0VDE1OjQxOjUzKzA4OjAwIiB4bXA6TW9kaWZ5RGF0ZT0iMjAyMi0wNC0yNFQxNTo0NzoxNCswODowMCIgeG1wOk1ldGFkYXRhRGF0ZT0iMjAyMi0wNC0yNFQxNTo0NzoxNCswODowMCI+IDx4bXBNTTpIaXN0b3J5PiA8cmRmOlNlcT4gPHJkZjpsaSBzdEV2dDphY3Rpb249InNhdmVkIiBzdEV2dDppbnN0YW5jZUlEPSJ4bXAuaWlkOmE5MmE3MjVlLWEzNzQtNjY0Ny05M2UzLTYzMGUwM2E0NmQwMCIgc3RFdnQ6d2hlbj0iMjAyMi0wNC0yNFQxNTo0NzoxNCswODowMCIgc3RFdnQ6c29mdHdhcmVBZ2VudD0iQWRvYmUgUGhvdG9zaG9wIDIxLjEgKFdpbmRvd3MpIiBzdEV2dDpjaGFuZ2VkPSIvIi8+IDxyZGY6bGkgc3RFdnQ6YWN0aW9uPSJjb252ZXJ0ZWQiIHN0RXZ0OnBhcmFtZXRlcnM9ImZyb20gaW1hZ2UvanBlZyB0byBpbWFnZS9wbmciLz4gPHJkZjpsaSBzdEV2dDphY3Rpb249ImRlcml2ZWQiIHN0RXZ0OnBhcmFtZXRlcnM9ImNvbnZlcnRlZCBmcm9tIGltYWdlL2pwZWcgdG8gaW1hZ2UvcG5nIi8+IDxyZGY6bGkgc3RFdnQ6YWN0aW9uPSJzYXZlZCIgc3RFdnQ6aW5zdGFuY2VJRD0ieG1wLmlpZDpiODZkNzdhYS1mOTE4LTRiNDAtOTM1YS1mMDMzZGU4N2Q1NzYiIHN0RXZ0OndoZW49IjIwMjItMDQtMjRUMTU6NDc6MTQrMDg6MDAiIHN0RXZ0OnNvZnR3YXJlQWdlbnQ9IkFkb2JlIFBob3Rvc2hvcCAyMS4xIChXaW5kb3dzKSIgc3RFdnQ6Y2hhbmdlZD0iLyIvPiA8L3JkZjpTZXE+IDwveG1wTU06SGlzdG9yeT4gPHhtcE1NOkRlcml2ZWRGcm9tIHN0UmVmOmluc3RhbmNlSUQ9InhtcC5paWQ6YTkyYTcyNWUtYTM3NC02NjQ3LTkzZTMtNjMwZTAzYTQ2ZDAwIiBzdFJlZjpkb2N1bWVudElEPSIyMENEM0VGRjU5QjIyQTc3REVENjg0QjA1QjhFOTZCRCIgc3RSZWY6b3JpZ2luYWxEb2N1bWVudElEPSIyMENEM0VGRjU5QjIyQTc3REVENjg0QjA1QjhFOTZCRCIvPiA8cGhvdG9zaG9wOkRvY3VtZW50QW5jZXN0b3JzPiA8cmRmOkJhZz4gPHJkZjpsaT4yMENEM0VGRjU5QjIyQTc3REVENjg0QjA1QjhFOTZCRDwvcmRmOmxpPiA8L3JkZjpCYWc+IDwvcGhvdG9zaG9wOkRvY3VtZW50QW5jZXN0b3JzPiA8dGlmZjpCaXRzUGVyU2FtcGxlPiA8cmRmOlNlcT4gPHJkZjpsaT44PC9yZGY6bGk+IDxyZGY6bGk+ODwvcmRmOmxpPiA8cmRmOmxpPjg8L3JkZjpsaT4gPC9yZGY6U2VxPiA8L3RpZmY6Qml0c1BlclNhbXBsZT4gPC9yZGY6RGVzY3JpcHRpb24+IDwvcmRmOlJERj4gPC94OnhtcG1ldGE+IDw/eHBhY2tldCBlbmQ9InIiPz7IygatAAF9F0lEQVR4nOz9d7hmR3Xni3+qaqc3nti51UmtbqmVIxICJISECBa2MdhgDA6MfT3jGY/H9nV6xr7je+/ww+Cxx2NzMQwOjPF4MMEBDBYYgYQECFkoIYGkVlanc/rkN+xUVb8/qvY+7zk6LQkLw9z7TD1PP6ffuN+9d9Wqtb7ru75LWGvZaPzc737kT08m0z8KILNl2u02Sz1NGDQIggCtNegFpJRoGSIIyAtLFEVYkSIN2FIipcSSIqVEFQalFAOhMQTIqE2WZcQUG/6G79Swwv0V1gAgcX+F/1u/z/81Qvon/F8kL2TIdcepxsbPPnMIodZ+zpQEQUCe50RRhDEGYwwSkFIihMAYf65SEpTuzIYhCCFQRYK1FhsMEEL48w7QRYyUklL2QZSMo8jznCIM3PuMu5DSSty8EiilKO266yjWzjlhYXQeCiHW/K1+6/rnV6/TxnP42a+ZqI8piPz/SxTa/bVQ3fGSAClCShRlWdJoxOTFEGUylFIU6w6fiZa7DhiUgcT2ANAotAgoRQhAbPv++ehb/v3f1iHK7+7xbfBdPXxgB0RRRC8NCYIAdI5SCuPtkjUFQggECVKEDHHrrSF7FEVBFiQEQUCcDQiCgL5MKIoCZQ1Na3n9RVte/KqXXPDlZxx3ox/zyEwR/cM//MOPPk0bpRSxGbrJqdpYoyiKAmstcTBgOBxig5hAxZRakGUZrU4ApSEJWxhjCEKN1prIuAk/lIYwbtFLDXEco8rhP+e1fc7x/wXjq7VGCIGUEmNKhBBorWtjCxBISVEUNBoNWq0WKysrZFlGN2owMTHBbNaj1+uhisS9Z1yytLREmmVIGWFKN8m0GpAXAzraGbEB1h0H5Yy3n5xaO6MvgrWbw0bG91TDWvsMY1s9Xw/5zNfXXh+xoXGvn7Ohf8UZXyE00ljAuuOHDbK0REYNwG1uQhqaIaRpCkHI6PhfxvdbHN9l45uonDRNUfG0dyqd8S10ilIKJd086fdKjBboqOHsH8sAlLG73100ZVlSJF3CMKRMh3Sk5EVbrj4TnqfxlaHSUlgmA8OiTViOxt2OLwyhWcYOZtk31eJF5+7lusvOZ+dYgjGGp9OA2x98nNvuuIenZhZJy5Ii7DBrxgmjEGFygjKnHSjyrECKGF1K8u/y5DPWHf+ZS3i9+auM7po/SPIXdHy5bvI9X6O7ummUGBRSSAQCpFvcQRKQlSUS5z1KK5nYtIUgCMi0pjXdhX6fpd4Sw4VltmzZQWCXSZWm0ekwd2wGrQOMEUgZMJQZmIzENghlg15onIfsp5HEGXxjjIt0IuVef0Z0tfYMhVjr2Y6+/1TG91sZznvfwML7rzUyd56NDcDG7nxkgK731BIZFwQKKDRCKqwJWc5jCt1AKg2A8pu3lhZsQCkUCDCm6Z+XzgD7+a7rq/HCzu8FD//7vmvju2z80yJERV2GxqANEE8RBAFpf4mpMKA3/zTTjZCLD+3g5ZddyDkHdqKsYG5ulpmZGb7w1Qe45+GnWREBojmF1h3StCCKx5gzGUvZYHqj455yy1HKebhGGrwjQ5ZlNKKAN775zfzED7yG3ZtgQoLSBeQ55zZavOxVL+PtOdx022H+8/v/iMdOLNHctIXBYECkcDtCkWOMIUoi8jxHqO/u5BN+8j/zV6x/ZuPfKV7g4ln/+ef9bf6NUkiUcl6ni0oMQghnZLMMqRRhGCKlsybLy8sMBgMmJydJkgSTDxHacuTIEZrNJlZajh8/Tuw3G6XcBAgCN12Ej2BqQ6uUgwaErD3t6m/lkT+fURna0fev91pHnx/93AsZ67/LYhGMbgbu3K0psMa46+DhmEajQW6cB1vPIyEAUd+fUbhEsHp+q/Puu2x8v9vHf4Gb6wsdYRhQliUqcGsoN4bhcEiz0WBp8SSvvf563vy613D5OV0aOHMoDUjprtzrfwTu/MZJ/vMff5Db7n6QoNWh2WxSagdLxXGcbnTcDY2vVlKVYcJ83kDGY+SlRWvFufEM7/3NX+Ty8w9gTMFKFrCoNbFMEUKQ9ZZRQrAbxU9ftZ/vO+/XeOf/88d84FOP0d66jb41lAiaxhlcLQYQaIxtvaCLZ17gvVPrPFe7Dkaovl/ajX3S8jk891PBCuu//7nGqb6l1CClw1dFIJHCEgQB7c4YcdJiYWGBKGowOTnJysoKw1wjgpi5xRXGxsZQrS5pmqILwVLfUEYDrLUUpULZgCCQ5HmOib1BTyO01ugoIIgDRFkSIMEarDFok1EYQ7WnPsO42LWPtTfu34qRfb4G91TGe831E4nbMCj9BqABjTEOu46VRBc5obAEYUQBlFKSIsBopGyiDEgcfCYcYlFHBLnf9LQArKrnV0n8vM7hn33I5xtr/TMN+92NfPPSIkRMLgO01RhTEirJ5OAoP/fjr+NfvPk1GAvpsCS3BbHpIxEIEVLklkQarj1/mst/6xf4j7//Z/zRP9xCoTeR2xCBxGipNjruhsY3z/PE+B1e+4nbarV41//1Li46OMWgv+KSOLLtvADjJnmV3EFDNshpt9v84i/+W+6Z/XO+9NDDiIZL5ERRhLFFjU3+E/Il/2uMjDAMnTHULpA1pqQoCjDOk0yShF6vRxzHxHFMlmXkeY61ll6vx/hElziOSYfucxVsEEYROnPvk1JisOR5jrIRURSRyZKyLLFliS01WhdEUUS3675PWAdLPAPTXW985epm91yG8luFIEaTi9Xj9VBGbgOklEjKNccotPPu+0uLKGsptZ+vSjnP3roNb/T7/9f4f9+o5neVIwHJcDDk5//3n+dHXnmAYghS4b1jt56KYUpRFjQaHVKTszLog2jxy//7W5lpjPHnH7mR7tS2al0+f+M7bEZjK7IFSFSZ0jn5KL/7G/+aVx5skvZmUfjkVDhGUVik7NAfpkhlaCcRxWDZhbnlkE2thPf++hv5oZ/6eR5PFXHUwhY5UdCgV7hQWMoXhvk8W8Lm+X1Bhb45I2CEWfN4NdHmn608YH/gwC++9R7zMw6zzneV/puf79I91bcHViIxq2G7EoRhiLUFWNgyvZmTtmB54SSTk5O0kpAyGxCGCms1K0s9rAhJhUYmAaGN0KVGq4zCWnIbEEQJEZbCFASh8wzD/hIdemzTc5x1YB/79+9j06ZNjHVbjuVicsIwRNTGSaw9E5+wlDY9JZMBVuGICspYD01sNNZ7zBt9pnrcyVYQQtCTHTJhMcq9NypWKIqCucU+h5+a44vffJqHZ5ZYyGNUq42QBUUJSjYctotFWQiNATSFKMEG9V7jGBQG7PqE7gtL2L7gYfVzv+efdWxom75zQ0qkBGUM0kKw/CRvv/5Kfvq6A+QLMyTKYnOLChJK0WAlD7CiS9gI6ZUaYQStUJDlc0wkHf7z21/J4IGv8InHFmg2m/Ti9sRGh90YdtAoKR2OOBwOufJFL+Kqqy4jH8ytZs6DgLSwtWcRxzFSGdJ0SBKGtQeTZRmbN3V585vfzG++70MoGRN5b0EpT1Hiu33z/989yrKs8VitNUop2u02w2GfPM9ZWlpicnKS2bl5Zmdn2b59O9PT08zMzNQUsdIYVBR7j7kgDEMKXRJFCYWnghVlURuyNE1pRRFnnX4WP/Cig2ya7GKtpt/v1/feGENZlsRBNc1OZXydUVWVR7ku8bYeR15vWCtMuhrrjWyFh6/HkqvH3Vz5Y7UIMBjljhWX7tq2x6bZdcb5XPyqSf7x4WP8j7//Ak+cmCFsxgSB4hRo1P8a/y8aRVEgggBrLVOTk7zpTW+iKJxdo0wRUtbJYyEEeLsnrCVQzokJgoB+v0+zPcGP//iP88n/430up3UKR2FD49sydqlR9uiZgDId8pOvOItdTRgMYywWKcGWmoanylgPHUSl48WV0uFb2rbRGsJC80MvP8B7/3ITS/2UMgjINWgkUkgC+8J4vt8q5Lt+cYc43rLFLXTlE0oVk2z0/cYYVEWtMv4G+KuofZi9/jjrh3wGzvLsO/+o5wfOqFXPWWtREj8RDGOdDu12mzzPmeyM1cm1siyZmhjnpC6ZOX6MyclJJifHWZhfRgKRMAztEAJQZQOjQckCa4cYKxA2JAwSZK7R/aNsiwvecvWLuPyC81men8cMlwlDxXQnIQ6lp+h4LFU4AymtS8gpFXq4yfPAQ/UM4zpqcKt/o17vqKEe/bf+veAchfWvVQvJGEMmAowx7MkH9f2zRjGwEmMMy71ZFk+eoFi4h+tPa3DVv3oFf/npL/OJL95LnkxRenDbositQfn75JZFgR3hYUsLiAJlAB9hadZS1b7jw35rx18/r08FFdU86ueCir7LbIdSBlghiKUlnZvjx773Ai7d1aLfW0EnTQoSANrlCpHpkUlHObTGgIBcN1AqJmIZWxqStM91B6bYu3Uzx44dQxixoXe5YbwjhNDVhRsfH2fXrl1kma4z18a4bHoYhs8L7zLG1N8jhHDYicsC/tOu1rc4Nposo6Ho6Dmsfw2c91Odc+VFjXpllTGsHo8u8G8HHlh5dmVZjuBS7rfWDAQh6HQ6BEHA/Pw8MzMzLC0t0e16zmFZMhgM6HQ6NBoNBoMBvV7veR2/Op+ydJhnt9vlh3/4hzn77LOZmZmh1WrRbDZJkoQoiuprVI1TJc2qa1wbvA0SatU1rK7xqFdtjHGbpn/+VO+tntfa8zCLgqIoyPPcFYn4x2VZrnm9etxqtdi2bRtnnnkmQgiWlpZ4/etfz9VXX13fkzBcNWDSe0nVnPn/2qiucfUPWHMPgHqzWx+V/M84Rtc5wMGDB1GSmi30XCPwHrMxhiiKKAqX+7jyyisZDAan/txGTzbKlb4yOT0bMD01zb7dW91FlQnagrQlwoBQJUoaBoEzolHhfqiwIFBIGyAtqHKeRqfDaacd5Mt3f4NWJ6EQJaYcIJXE6H9ekvWoMR31elYNbYCQoq60ErIyvK52qlpY1cTSQq6ZZNVltNY6gFgqhBS1x1NW1WQe46sRUB+vWvHsmJ82FqUCEAZtDEJIRCAxpaYoDVI6qkyDgKKw9NIcoUIGeYlKc5J2l36/z8qwYHy8hQ2g1+uhLc4LtQZloeETdrl02efIu/6RtUipMaQEpuBff+91nDWl0HOPsHVykjRSCBGghF90lb0RzscXUiKkdB60EBjpYQAUQimUyBEYpHBMjdqLXfd/JatFXRludw/q49Yer0VgUP44So5EOv4eW+OYGViL0itIa+nLBKMlBoEVlqAcoGwBeUEgJdrE7D7tEMGJWWafOszPXX8hu/pP8qd3HiaXW8hlgsFgZIAVFln2XXgKNfarhecDCzcjAIz47hYZfKuYs5BrN9bRTW61cMW/7j7wHF/43T1/Ww4IgwApEmgKztg2hS0NgTRILAPl7FuzdKyoUrjHMYsAGGtRBGBiSqEYmBU6jTaHdm2nTcl0PvfURsc95VWpPMLKk6mwNYfVOqOS5/nz2tmUUmAM7XYbY4xLwox40N+psd4TXR+KVs8Bz/CqKjbBaKnrRtjkqNdbeVrf7t9dFMUz+LPKc3mTJFnD+c2yjCRJ6iij1+u5qixYc97PNYwxFEXBy1/+cnbu3MnCwgLdbneN5139Hb2uFTyw/v+j10opVf8bfe+p/q1/faPvrh4HQfAMGGK9h73e866u92gUVBQOGkvTlM2bNzM5OcmxY8d47Wtfy969e8myrD7v0WrDF8pB/m6OjQtk1nq+1ZoYhcJOBfH8zzoqtlCVO4miaM1af65RsYyqe1+tieeK7jfccgaq09VqjCDLsVmfLBsiZQNjFFiBlU2QGqtXMBiahfuRuXBYSN97whWWE+kMrGWl9zRtlSPSFRKjCBrTblKLF1Yh9lxjPTQw6iUBpKbC7DShkEhlkBosliBQmFI7b0oJj+O576vYD0ob71GNVFPZACHWhtzG73WVB7zq8T67gY7j0JU/KkUQSMqiRMmAVquFUop+b0hRFAyGQ7rdLknSZDAYIMOAII4YDFKkDEgaDZaXl7FCumSn/34rJKWAWHvsPUjBBuR+hw8pCPsL7J2OedW5k4Rzj7B5ok0QQGEtAaWjXUmJFNUmJFBiFX5QQmHFqOcKoBHSYpTDhhk1klJu+Li6n9YvbnA8YivclwrpvG0rJFZIDBKjVw2pmwcVJCSwVhKWLmKLROorAR3MhLUYI0EkZIXAFhIhFPlgyJ5tU5jhcfL+U7zxyvOYefLvmC9DTNBhoA0iCAkrY2Q1WMiF57N6T0/a73JZrx+WZ4bW7rr719dht+vn9UZViGsgiFOUf9evf5cx77AsEWXJMGiRWcMJE3MoCJDDntd4cPctU+5vIf39My1CmxGLHGzBUjSOtYIJG0KWM7SaXplTqnxDIvOzer5CCJaXlxkOh8RxXPM/y7Ks8cbns6NZVyLE0aNHa0NYeb7fCY5kNTlGPSVrbY3vVV7jqBdfZeorTK/6nrIsyfO89oo38p6rsR7T/KeOKmNaJ9iUotVqkSSONz01NUW77USKBoMBrVaLTZs2MTU1hZROn6Esy7rKbRSTfD7XvzrPc845hyRJPI3N1nDMei90oyTY+uTZRkm0jRJm69+7/jMbebujmPPoeY56aaOe7SgmPPpa9f9er1fP2+p6DQYDNm/eTJZlHDhwgC1bttTebzWPvlPz+4WOU92v0WgBeMb12ujfeux3PeT3PyMGXuVRgsDBdzMzMygl1tzLZxvrI6qyLFFRxOHDh5/1/m/o+YaGNNBDApkw7C9w4/1P8bbTdtAWOVgoixIpIgZhB2MMCZUwjjtQs/QJIek8WhNN8chjizx8okcad5kI3E3SpkcQSoLyhVHNnqtCrJ4ArEIKWIsSwmGzs4/RiB20InRBEgZEAVhrCI0EDArnuRktKL1nWxQ5eWboRU0EAUiLIEQGEmyJtVX5qAQ74jk8T2av1/PAGMeuQLsnkiQhlgF5f0iv1yOcFLSSEKkVw5UFTBa5cNs6IxEKQYymyEoiYdHCGZrqsmkv9FIVO0TG8XhX1KR7PsvY0o25/uxpgvknaTVj4lAxlwc0Gh1i06+xVlesEDqdiWoxK1/aLNymKzwWi3CbuXTMHec1i8qzWvvYedSjBsL9A1DSeWmVR73qsRmssY5Xay2uINhi/ePqX4+uKyk2KUJbpGet5MZtsCbIIRYgM4qyRBu3WEsjaUxuJR/OcN2BSR55apayzIhVhNUFsXHG2NFmAnTl8eLLU+v7/N31gIVQjDoI652FQK7mNDYyrnIdZOfukb//UqBH1rd7z/qKx+/u+duwQ2EFhSnQpuC2rz/I97z8IprxBIM8R3o2S4BLngW+nNzpgIQMRIjFEpugdsqGvR5fvv2bBNEmSjO5oed7SqS78rCGwyE33ngjb7jqIrpCrNnJyrKsQ79nG0EQcMstt3DixAniOEZrzxcNnh9b4oWOymupcJ3Ka2s0GiRJwsEDe5gcb9NoNGhGAVump9g8PU6jkRCroN4FDRajBbnR9PsZJ2aPMzuzwHKQsLI8YHZuhpOzi8yvLJEOC7T2Hnfwwsonp6enGQycglyz2WR8fJzhcEi/74ze/Pw8ExMTtNvt2lvPsozAaz40Gg3iOGZ5fsF5d3JVs8Ha52ZZSynpdrs0m010v0er1UJrTavZqvHNNR7uOo0HWUUbI99XLUynhrbWMz4VFr8RFa16bb1nNYrbVnNs9PF6XNcYgzAGYWxdmVfh9lJJ+v0+YOr5nmVZPYfmF45xwQUX0PrK08xrjUavOU/zPy/cCWyMdY/CdKN4ehg62cUKS69wztFIsfpXfUd1zTaKdKoI+Ls5tNYgAxe9hSFf/vKXOfGD13P6po6zHc/x+coWxqHLiTUaTe65+26OHTu2hgWzfmxsfAUUKEpaxK0mn/36PB+59XHedt0BzNI8zdBSlj1iGyFlh1wklGVJR+ZERmPKeVQQMNQhRWOcR/rwO5+6i44ERMjAY1+JhKIc1upRgT/LqiJIi9XHUkp0brFW1bxNS+ZusFG+FNr4hJ6TWMSWiGyI0BmToaAbW87YPcnZ+3dy2lSLXVsm2L59O+NT2wmCgDAMa/hhfXgMG4Vdu9wCLZwkXWk0cyeXeProEZ4+PsPTJ+Z46IljHD5yhMU+9K2iEC0yFSHiDjp0up+hGBCwSk2TIiAUEotm8+QURZFj8hwpnRGQcUiz2YS+F68pDYuDHhNjEzSaHXrLfawRiChgcmqKpeESvZVFMlFipfSqZwGlZzMoH7mUOMw+ZAWArp4BoJ8niKmz6JqUIrCUQmOEJC4dHCKDZC0Eo9bydhEGIQVKOphKgMOHPfyh1FqoYRQ2kCOP1xvgauKvf249DUpvADGM/g3MnPN0tROVNMJircRYh9LbUhMYENaC1t5Ig04NzSBCaUPcMDC1k3JmhjbLWGvpqQZKxmjPaol17ue1dFFUpfHg10NkUpTVNf/XEKCFWpUwXTeqzwcqwxSlYxjJEOOlPoWS3rD4YihbuLlsBU6+SxJYQTGcJxSWJFS0Q2iGgi3jTfbu2Mp0J2bXjs20A0WnlThKYcOVl4ehg5pMkVOWJcMsdZFgf8jCSp/l3oC5XsbsYo9vPn6U2YUBA6Po54ZeIZBBSBA3yVXiz6j0GHmxxqPGOo8yjl1izOicAEEYCS8cFYJVZDLx87lE2pLQ1w/kMkQT1CwFZTWhTYmsSzwLYwhFxGJe0Ihivj4n+U8fv413/JsbiDJDkxStNUUYkgpJaZzGSWQNqsjolCnaaPLcQDTBUwp+9r/dQYFBCUGmgg3Fa54Xx8Nay/vf/35esv8XObRnmnJlrp74eZ5jR7ivRVEQBQqUQmiXXHn3u9/DwsICKupQuqyUf69TEjLm2X0vKZ0ObahiwrBRczPDyCd31GpFHTjMZTgc0khCzj50iAN7T+Pcfbs4fec027oR052QjipoKpeZHObPzM6OLtBnw72qEYYhjahJqznG9p07uAhJZiSzyyknllc4/MRJ7n/sKb756HEefOooJ5f7mMixSRwE4/5fliVYaDabtFoN+kvL9Ps9Z2RxUcTy8jJKKTqdDsvLTlM0yzKnxWtWr1mWZczPz1PKsvZOBFUG/vm7Y9ZaNm3ahDErtddjxCqHs0rAVIbzVB7OqXDFjXDe2vhu8PyzYZMb4Y4b4btr2AwjiThjDQbrkYrqeQdT2A04rRX7p8qBrB/GmGdE2d/u4RwN66EYB3FV0FoQBJSmqD1QN78EttRYK2i1u5xz5oVsmZpg355d7D9tK1smu0x3Yqa7CU1lCaUmtoZQ+fshq43WJ5h95aO2xhlKA7kBbQX9UpBqwexKxlK/5NhCj0efOuackkcf46mjJ8iyDGstSeJzSD7qNj6Er5K4RVGs3mvrWD/PJ/J+rhEEAbrUhLHzUsMw5GMf+xhXHzqNN11zAenCSu3BVnO8uveBEBhtUGFIoAJsBH/+32/i3nvvJexs/tYxXyVKrRgiRd9hYe0G3xgUvO3/+gC/+x9+jbN3bYEcIiDKS5R1CYnCKMpkimUZUEawYuFd7/k0f/aF+4nam7GBS9oFbk9HmhRZSgrRdpNIahDlSMWbAhswLEKUapGLgjzvEWFJYoWxsTcqBcqWhFmPjsw5barJtddeyDl7dnDe6buZ6DpxcGMt1kIpSwwBPRNhM0s7fKZxhVXq2HoMbH3IShhjREmpQesSKSwhhiRUNLuwq9vh4u1d8hftZXZhmQcfeYSvf+NhHnjgAR594ikek3sJkiZ5WhDHMXmeIgJBbjULRYlJXHi/qduA4RAxHLB8/Gk2n3YQ0Q4ZpH0HS6TOs7JCIcOAQmhMWYIwKCOIUAhfdYVX6ReiwrAVwmNvpaxCJZ+Ntn06qqTEeayZaGGVJfbSlVasQgWjXupGSbHqmOuN6qohf6bxfa7E3Oh92whS2MjrHf2/Nk1nkG0JxiCNxVqNsQ6iwriNS/vroy0YDBqLQBApiyhzQhU4TWMR4BQlFU6t14mqr+Ym1rJcIuM8sExFYFcTPKEdAgbptRcqEXaJ0yBIPPZYBB1EKDA6oygyhJLIUKKNpShylHC6EjIdMi4yJsKUQ2ds5ZrLz2H3jp1s37mNdtyg2UpoRombH2UfwQBST52ygQPebeC0LwgopZtPtS6ydudjdUYINANoSk1JyZauQUwEmO0R5aHTKMttHD2xnaefOs5jTx3jH+89zINHjnJ8uaAvG4jWNEYEBIHrHhIqhSncbzEywoqQgS4Iw4TS50K65by3IxJNwEB2/HVMiW1Gw0d4uYgpRUQhnKesTUGYgNROICoJE+J4Oz/37g8wp/8lb3zl2QgNwaCkKQzSZq6MP1SUpmQ22YoOnPjOhz76RX73Tz6MidtIoQjCEMnGSa3nzW5WSvH000/zsz/7s7z1DTfwQzdcT3sMrAmIghhrLWVhiOIADdz/4Ay/9Z4/4favH6bVGkdEEYPS6Q5UxfB1O6Ln8AwqJS4VuN+hc0+NEV5TtixotRu85MrLOO/0HVx69j62dkOmYklcpijpPGFjLUnSrjEaG4QeD37mtdnIqxo1zKOPqx3aeo9DSNaojFl8VwcLExMTXH755Vxw8Ys4evQojz91hE880OerX7ub/uICAM1mg+FwyESzQbfb5eTiElNTUyibkxZFjbcdP36cTZs2EZTeG2WtoVFKEQhFqT08UHnwYi3O91zXP4oihsPhKlvC870Dj+2WYmPWx3rDO2p8N/JcN8JuT8Vu2Oi+rPdo68dsXClXG+AKpvCwFdV7sPVj9z3+M/4+G7t6/NHqz+o5IV840+X5jMLPier6IJyOsjbe880zmo0ml112IS86Zz+Hdk1w+rYJxqPcwVvCEOI6oAyHQyyFC+vDEFU5H9YVqIjqvnroxDuh9f1Yg6HjMfNgVaBKa422Lso77bTT2Lb1NC69IuHFV/c4stTn3sNH+MKdX+f+x46z0q/olUHtcWqtKa1GBqtcdiFfWJFGEAQURUHscV+scQwja/m93/s9nnjwKt72A6/lzO3j2KwkEP59EsI4phDwzSdW+MCf/DE33fpVgnCcMAgxHhk45XE3fNYqpIWWThnIBlqEaAP95mk8kOf86p9+hj//wn28+Lw9vPbaa5gYa6O1ZjlTfOXuO7n5y3dy70OP0cs0cWurN55DIqsJVYg1TkydKHIMBD8/JS7kNl7rIPBMg7J/kk4U0SOi0JJWo4kartDsP8GeruLVL72Yiy4+j71799BqxwgGnjZSUAYCLRXWi/hkyvE+wRILC3bV+I/CC+uhhmcfhir6CawPx7TFmrIO/5UQREoBBXlWElnL+LYm5+w4yEsPLHD88ga3fO0h/ubWr/HoosUEHZakK+Udmwgx5SIL/QGZVZSyiwgE5bBPf2WJosiQxiWGjBQYtPPLjCBDIG3k/C9fyeY8rlVsERF579g9zjyv0frXFSWtoocRU66Lg4qwwiBs4RfFqlEdvX6n8lqfz2unwnSfDR4aTRKNPmdO4RXXFDQiLAJrHZ4rPeZoTIm0ltJDEIWHbLSzx6uwhnZhs9Al1mpyu7YiMvKbu8F5jhW/u7paZZUAtSVQPgMLBnffgnWsgEzFYANUEKONwXhpV6FT5HCR6bBkZyvm5S8+yCtfdCGnn7bFlZoriRUDTNAmLUviUmMDx8qwUqKkcpV5ErSwnnZT+utvXLWiyDF+Ey+tw1KFrJyNwMMcCk2JsVDqEiV8clUbitICglAp8jRj51jE7omAK3Z3+b4LtvDIE09x+30P8cU7H+Sxkz1WdBPRnEBFLcCSlyVRqJCmQPrIoR906usorfN4AQqRUAjHMlLWtYpSVlPSQAsobYmKLHbYI4hjsqIkUwm6McFcUfDuj9/BX335EV774ou47srLmBprEccxvVLzj994iFvufoQ77riD+fl5omgTxOPEccxgZYVms4myxYbiNc97ywjDkLwsHM8zFhw+fJgnH/gKn/3k3xL6DhWLQ8NyDqVMkM0xGg2XwKkwnchXkii/iCqtgOcaVcWJ8tnEfr/PrslxXvnyi7nhygs4fapDnCjAYc6Bsp6/63CiKA4Azyv29KZqMZdl6SbbyHi+hndDj9hjxFUCSohVDYyKM2w9ZUprTZ7nNJtNTj/9dCZOO4sLr30dH7n5H7nzvsM89PhTBEHAZMPhvEVRYD0zIAgCxqamGCwvYK1e9WCVXPP7jDEoIesNrsJ7hedwPR/PLM9zp2HqOdEVRGBLnyAcwcNOZShPxd8dxYrXfwesZtrXv7bGuG6QoV/z2sjj9V6xMQYrVj1gYZzk41oj7e+xqLjpa3Hf6nfC2qrB7wTJwVpLnmU13pznOa0k4NA553DNi87jxeecwZ7JiI5JiYTTq5BhBFLRGwzcGtWFnyveg/fdNiovd02UhEuCjm6WVc8+qzfG1oOKVeM3oSiK6t9aFAX49VAxSKanpxmf3sz+8y7lsquXuOObj/OZW+/hG48fo7QZUSPx7CVHM/x2XejKsw7DEGElhfFqjcE48/PzfOhDH+ITH/4QE50GxhiGFnpWMZtFjI2N0W67npcDa+n3+4RhyHB46v6UGxrfTIokkw1KkyCthKIAJWmEIb10SKoU0dRuSj3FUa0Jg4Q0LVGtBJ1ogjBkkGU0VYiwBYEtCKXTnM11jg1jrAzJtKtOivENBv0OWunjall5DAarS8YXDrM5husuO5Nrr72WzTu3+wTQgDxLsUA7caIx7UYTtCSUAWUOQlgQEiEsRlQCNRYVK6xea7Aqw1k9Hh3VBBx9PpYW7bPHpbBoIygRSBFijSUrLWEYY6VFixJ8YqQoCjKd0RADpJR0opKzlOQ3X38hT12+i0/f8o98+rZ7WEwnaLbHyIsltNY0ggFjY2Mc6edkShJVYSEuGx/g6V9SuGsnwIoQQ0ApLJJKW6F0oXR9Jt7TtSVaBLUHhpRkZYGUrnS5q3JKWyLD1XCwumYbebQVDnyqxFodLrMx5rtRUm0jCGEjrLe6Z+uTpGveL/s+qZZjramxXmMN1khKK7FWYYzAGIHQnj+MQVmNsYIwiBA6QwiFkVUC2BAKifIl5kbEGCFr7LeaQdV1juxwVfMXyGWMJqgrEFXd68+9XtoQBMRhiR6eYFJqLti7jesuO4+rLjyLrVMtyjIFCgo0uQiJ205P26ZDNocherDkeOpBWP8OUbNUqo3TYcbWGgIjkIAwTm8DwMiyhl6stZSeW2eVwkpLiUCELrFcFAXWayQYSlSkiMsCq30mwkrK3K3P8Sjiou0xF20/yOvP2cRX7rqHT9/yNe574lGa8TSmMcZSahChc/KaulJZBKxiqBrVqkXZKrJwjUzdiZYoQFmLLCCKXJRa6pwoaWFTv4EIBdE04ZYWi0Jw0hjHnpCuzkE0DX1pETpDlxoZRWg0KpDEz9Ii7Xl7vkIIBoMBjVaTwrg6f+VJ9UVRkCQNUo/pVqo+DuzXhN5jqCpJNFXhg8cBn4NIV5YljSji5Ve+nOsvv5BD212PpMx7fFmWIbSh2WqRpmld+aV9rXblrWm/YIVvuYNwvN9QxqeEHKrHz5Z0M8ZxGuU6wZHK86y8/Nqoe6zKGOMKJnAesAoUUiiyPGdqaoo3vOENnH3Fdfz1zfdw99fvo9PpuO9As7i4yKBwXqHRZh0GSo3TOajOMnpKq+fy/FwGKSWzs7MoNb7GoJ2K9jVqPDd6ftTAPhvuO3odRzHFai5tiL+PJkL9WF+FVT1XMUCsj4rw/8So52vwkITFmFUMeBQTLsuSOI7rrt7Uxt5gn6Oz8rdjDAYDzjp9H699yYt4xSXnsLMTEmdL5PnQrceyrOmbeZ4T4LDgismzkY5BdX4AZakBV8iCGHVKVqOM0Xs2Oq9GN0xY1VZ296JcsyEGQUBhV6tRsyyr79mmTZu49tpr2XfuFXzmK3fx+dsf4PDMHEFz/AWrgQshKIsCyapnnmUZcTxRR+eCVb0WGQS1xEAQBL4rj4OswjAk9RGiW/OnLiDZWExdEBVSseJ3KwEoO6AVFVBkrhbbBhjPC1Uyx+iMSACmdKpWuvRJXeHge+Wy4tZaDNWCkw6PUwG2KEmkmwSpaDiYY7hIaPqcPy156/WXctV5Z9DpxJRo0nSZuKHAKKI0dos4D5zaGq79USE0SKdjUFiLsAJpBWEpCIUTHbbWUoaOLhRFjr+4nr1iLWuMF7h1Wr2v0l1YXF5yJdd+NrhknnFdm5VCWLdpxaGiMAVlmRMQMCc7yFgSmyG2LNGlJRQFMYtcuklz6HUHuW17yqfueITD8yVHU0VRhDQitzHlYdNdz6IgVkDqxNCtr9bS0qIpvP6BMyaOkuZuv/G7n66xyILAaqznRVoRcDIT6HiSYvFpto7FdKKIxUKQxAlGr5Y/VwmSSlCoEhbZyNA+mwHeyOOtkpjrcd01CbUNwt7aGHpooTbO1T+drtLNvMmxNkBjMFZSevYDgNAao0ukKQikIU1TCkKOmQ5LywsuiSxWy8CtL9qAZ6qXWRycqqxnqQQxuTfuUkqUtQSiJNNgVUTp1eZU2SMuU5JywLYWfN91B3j5y17Gju2nkQ8WUIMILQRZqUiCEETpIBWdu5DfCLSR6MC1/erKIUo7Z0DJCGMgDBpoW3gIYpXBYoTwmO/qfVG2QAhQYegSYFX7KC0IAK0LQiGw3thK7zQFaMq8pAjHyfOcUEAsDEXuPNhYSrIiw6rEMYCsYt+mFj/xPVdw3fk7uenzn+fWW7/Cg3Y7zfY42vnSaBG5iMA7V5H18KYULpIRLmLDrtLFAhW5qFQ5FcFYSiiXaBi/2AEtDTZwqDxoYpGCBuUxeSE0aE0kQ6qqPSsUWogNKy2+I1puo2F89Rio4y6tNVEQYMpVjyLLMqIo4qrLL+XNLz+fQ9MxLTtwil7CUgmQW2trTLXaQbMso9lsIlC+s4Pf8YWk1WqDLgmVawypgoCVImd5eZmnn36ap556ivn5+bqCrN/v12pulbcXxzHtdpuxMYdr79mzi9NOO43OmNPOtV5kPU3zNV5fNkzrSCGOY6z1Hof03SisJpDScX9LXR+z0Wjwspe9jK3nXsWf/d0tPHnHA95zyetrWRQFsRAuNPTefhUF6OfgUT/XCMOQ48ePs7i4yLg3ikVR0Gq1nIcQORZExV7JsoxGo1FjXnEcrzG0sLY7xbNhwfDMyrRnwAkj71lveCujeyqmgzO4G1S8aSco6myhrTmlsQooi9xJTOqCNE2Jopi7H3zQ4XuxS/q43w/PxWGHVayxqhitvNKqK4lSAUZK0nyV6SKE4NChQ7zt+67jvG0BzThhOBwi7ar6YE2VrDBcnyBzJder+h6ga6XBqgxea40VbvOMo7jGuSujVW2CUrqGCO6x+55G07WiL0rtr09U6yODo2RV9zAMQzQVpRCwqzmT9Ri+kAF5UVBi2Lt3Lz+4aRMXX/wi3vf5h7j73geIk7Cumqw8VqUUYkSbpRprNvYXuD7+qWND45sY20/0kIC2cw6ExBKhjKN4SZGB1eTS96iqsCLPW1RrepMpjABjFVY4xS8hS5QBYd33GSMpbUgRuZ8T9E9wWkvwr954PZeedQadpkJYzXxukTIgUmBtSVC6DSXVjqKVBA3ioMFgkKML4/iOJoRS0G2OueSNUpxcWmR+YYa77rqDe+65h5njCywuLjI7O8vKysqakLpajKMY5KgBEEKggoDNmzezZcsWpqenOfvss7nooovYtGkLW7duRYomCwuun1Oe5yBgkKVEvux4TKdYqxz/0BrKMsUWKdILOucmRZFyoKX5j2+6iGt2C/70b7/Ak8tNaDUxwuGLMoiwWmJUQJoWCBlSahBYAgrsCL6jrPIt6ALKoNKVrTwxjylS3d+IxSznSw/P8L0vPoujJ4+wZ88eltKCOG6AdeyVKiFXwT5lWdJoNOrrdyo4oRrrH1fXebUx6HNTyUb/1l7yemO87vNSB+49OIy3qKhkVBTCgkiBMSlpphHCkBlLXuQMTUk6vo8vP3K/qyoUBmtSBCHCBhix2q247gFYNerE4ZO5djkBjDvusHTepgxj1yXGlMhiyAQlsrfItg684XtfzjUvvoipJCCkwOQ9V04eKrTtOf0JEaC1S5DFYUJZGEwBQeQw6UK6NaJokmaauOH48BZXSbm4vMzy00/x2GOP8dRTT/H4k4+xtLSE1kWdLC7Lklg5hyRJnKB+s9Nm+7Zd7Nu3jx3bd9Fut5mammJsYrwWpiqyjKL0jQFMn0hKrIW8LDEiIgi9QLl2HWNCAZgUhYtCRJoSh4bJA1vYv6XNJ6dX+PDtT3JkYJCtFqUFUbgEXul1tY3nUEub1kwqgFw6HrMwvtJOGAdAiBzX+tLbN6sQBgJHmgMx9N8XOHvm76uUDleuWC32FD7ud8TzrXbU9bhpNcIwpCyct1sWBS8+52ze/v3Xc/bmhLBMKYq8/p4oipCsKo05IxnUWLPRbiJID2m02x2EEJw4cYLbbruNu+66i8OPPMjM7FHm52eIoog4bNdeR6fTqT2Rirs56olIKetjg89yC8HMzAzHjh3DGMNnPvMZ2u02k5PTHDp0iAvOP5err76aOOzQarUodV7vzM7jcd+nfQIjiiJkIChL974gil3rdmMoioyXvOQldHafy5/81Zf58jcewPquxEXuuIppmtKOG2jjWCYvtMKq2oi+9rWv8aqL92G9zkScjDnjJaiVzqrrNYrlnQpeOFXyDVjz+VMl0+rnN3h91BCLke/Y8PPV50QFXVTGd/X4eV4QRS5qUZJ6cymKgiNHjnDkyBFf+SdciC9OPd/Xj1UMdPVxdT2yLKMRh+jSkOUZl5x9Nm941ZVcetY+VLGC1hll7jjYIlCeTeNZIl4wx+KiQaystWuttUSRS6CG1nnYjz32GHfccQeHH3mMRx99lKePHa31n611lDMXufiybF+Sb/LMX6MqsQiBSpBSEoUNxsbG2L59O3t27eKss87ioosuYteuXbSaDvZIB84rNjivXVhRz3eHx5ZuQzd43qy7b6V2kd/Y2BhveMMbUKcf53/c+GUOHzlJs9kktA6PFyPJ3DWetFgbgX+nhzjVBDn/df+qPGonVUmM8QsitE7VxwqDFs4j1iiMddive+S4ik6Ra9U7dBPdfXeVmBIe+9HGCbZv4QQvu3Afb/u+6xiLGkSeKqZUtVP7Vt1+J2oK57nkoasAazYjLK7CbGxsjOWFk9x+++186Utf4r67nNBFpAKMKb3RdW1CZNiuM/ajrXqq5EANunvjX03eKizM8rwuQKg8QFcqbMgyVw2zY8cOzjnvfK644gouuexSNm/ezPLysvte7c/Dt3MXnkVQ6sxxFovUJXOUw9oLbWg0GqycOMIXv/hFfv+WJxiIJkYqtI0gTkhzl+yRUiJthrK6VlNztyFw2hlWeT5vgLBVBOMV+yXeIxAoBLo3y1tf9wpe8/JDrDz5FIf2n0GnEQF5LSJdQQ+VTOdoFPFsNLSNkmqjBngjr3c9zvtP93zd48Li1K0qR8HkKKuxeli/X0pJTytKE3J09gQTO/fzex+7lXu+/jBho0FVtKOUIvXshMRjupXedeD5p1USzEpH4wvQXqPErZlACig1dniS6ajg1ZefyxteeSXT3aT+LRU1SkpJ6YWcZOS0OywQRY36fEMlCYVESEM7CVlcOMk999zDl+78Gvfd+w0ef/xxV0zjN884TOp14bxQTzWrE6o+p2Hz2kFRSmGsc2RyndfiXEEQuMSftXTGuuzatYuLLrmMSy65hMvOu8DBcsY5YLk2tZEvyxI5siattRTGQytSOay4dHBeieDYzBIf/9LX+eiNXyEd21VDMEIIlCjquWStJfLc5UwoXGWhZLTbtJarmwk2QNYqhf46kHprKX3EWPWwlH5duVd/401X/uovvPlV71xvY79j/TuckV8bVo6+1u/3ueaGa3jD9ZcT6mWMMfRTp+JVlpVylu98IB17IbBlvdCrBEez1WTmxDE+9rGPcfNNn+Xhhx924W8Y0Wg0EMZBF9ViajQa9NOynjiValM1uSsvGNZijxWelCQJ0mc2HesjqUOyIIiI45ggCJidneWzn/0sN954IxdefBHXXHMNl19+OTt27CAfDOuFVKlBGWPQpkQI40orjaEEX8nmsLROp8N1113H8S1LfPCjf1d7nlmeI0SI8pU76xOI/5R7J6Sk2Wxy4403csbOkEtO38/hw4c579BB4nhV4Wo906HC40/FaBjFgddf440ghur3jL6un+sz616rjlM9FnXFGhjrVMjc886AB1Ku2XCHw5zl3jK7du3iH758Ow8//HDNqFlv4KVc5VifalRzLZCedeET08NhirIwPTbGW9/wal527j5atkdRpPV1DcOw7lYyStfT2rWcCgKzZi5HQcjjTzzC5278FLfcfBOPP/44qYVG0qnzGfEIRlsZPIftrnafccfyxSEiqPuduYpV935buutV/Tbp12maptx3333cfe/X+Yu/+AvOPv0MXvrSl3LVtdexfft2ZFHWnq8xhkCuqhK6hK5jQuTGzfemT/QFUcy2bdu44Ya9mNZ2PnLLPfR6PaIo8r95rTP43R4ber6PLNrodT/2s9kRxihtjPaLKSDzWfJaiRSA2NeYayHRvmOB4ydSv89aW3ftlazly54lHuYnfugHOe/sc0gENESJKXpEoQvLiRKskVgRr71wgZt8sXCt0p988nFuvPFGbvrcZ3niiScIwpA4boF0PE2NJVAxGr8opHU3psxr0Y4oimovVEpJkiR1iaC1liRJ6jY8tfHOXGJNIXz471SQqqyvLrL6/WEYug4TQUC70+HlL385r/me1zI5OUmoItdpOK8iAj9RhPAtm9wkzD27QAvpstMI7rzrId77Pz7OTCbImmNktolWXiik1EhKQp9YKCQYoWpl/linLlLxnlpZ3V5f4dZWEf1ehond+zeHy/zCj/0QF25JmD3+NGfs38v4+HhNrxndwODZk2uj3u4zsNxneW7UGFfGt6aOrfOEn9P4enW81EqMXqVCqrJwClvp0GPvsJQa5oaS5qbT+Mqd9/HXN32V46pDGIZEJgOd19hfKlvOqGp3/ystgdgO/Xrx68rflzzoOAw1CjD5kHg4wxlb2rz9Dddzyf5dRMI1/IwaCYKQYZYjw4Qydmp8oiig0CSBU8VDuEa1QeI846/edSd/+7d/y9133UtvoU/gGT6FD7+ldQ6IwG/yZlWQac3G6jeJwkNzKnBqZ3k2dNdUu4Rykfk2Y16PujTWwwDB6gahNZGy9Ho9Nm3ZzNVXX801r7yesw+dhw0kc3NzCJwsap6mbqOJfWSYO358lvv5VfT9HHTr9Za7H+KP//pznCgarMgOmYx9JOhzNl5fOjRVpLdqn6TBc66pQ5RipIBJWgj9/FvxlXWVHVztUOM0OH7jTS/6pX/3w9/zbtYN9R/+w39Y/xwLKeov/vrTv75CgsG1VXY/Sns4obKqfvJ4d9sKMUJnkvXbrK3qwX1ShdXMqZSSn/mha7nkvPPczlrkBBiiQFAWjvFghMRoi5BhLfsohEAoaDQaFGnGxz72MX7nd/4Tt912G4NBn0ajQRCGWCt8TbnDvpKkSVbk3rg5I5enw/r3VJ1rRz2wakevPIE0Tdc8zr23WvrP6dIlJEoPP+iyWM0me2MRhiFRHHPzzTfzuZtuAmDnjtOcZm5ZJZK8YaKirVUctmoGKMpCU5QlO3buY/vpB7jnm4dZSHNE0CDXbjFJ48VdKsNTQUa+si+wJWLki2sBGL8obVEiZQChD5SG8zx8753s3zLGGfv3MTtzgqWlJYQQtFqtutqqgiEqbHD08ei/jZJvsDYpN7pZPyN6GsGJN/r8sw1rLdLDV6UVWCNW57sxYDW2LBgMBiz3+qAiulNbuenWr/D3n72JXMTkcdsdu8wJlCBQHsP1UomVME5FNQuoaEj+OP53axl7T92Qp0MO7NrK//Zjb+HQvp2EOseUjr2S5hnWCpJG0xk0bwwDIQhVgPDefJyEdDod7rjzH3nPe97D+//oAzzxxBMYbVEiqB0NK53TIbxToqT0nrUL9SvPsb6mlai9f5+1wne60T4ydY+t95LDSpshqCRbg3q9BUEAxvGk0yzj7rvv5qYv3MzTTx1hfGqS3bt3Y7Rjm+CjW+E1XazfHIKw4XIjlVi/cOtl6+79tKZ3cOcDj7hktmdIqfpc3BxQ9f3x88ZP/ZHSK/f6KI8f6vWUS18cVgmC1XPO0XSvOmfnZ68498CX1s+9DT3fB5bpvu7HfnFpXsdYuyqCXVn0Snm/yuJVnlLiqSSDoKoscRhwR+SuEEI1KUyIDSLSNOXl3Yf5Fz/0Jg7s2eMwIW8MoySuw+eqFHE920ApRbfT4aabbuKjH/sY999/P1EY1pgssIZyVSWBnNBIUS9opRR5mdUUHmC1IELJWnQjDEOHL3kjqrVmmGV0Oh1MJV5eiZv4m5WmKd1ul7Is2bx5MzMzM3WYm2UZW7duRSnF0eMnGAwGHDh4kB/+4R/mZS97WV2SXdNzpCQdDh0BfJiuwaORTt2tZeY4evQoP//nt3H4pCLsbnatz8XQYdlxTGEkJa44I857NWQDkCkAhfUYvvC9vaxPHnW1xpgcEQpW0gE0t3HFFVfw1pfsY4vs0zBDFyUEIa1WizE1hEIjEUgZUnjdX4XbtAxVGyrvkfpilbyiRQqLKA3WpgQYKmpeLlx2WlfCN3ViTCCNBQZIbX1VlqUnJtz81CfdotURgpDcU54i4xKbi4GPFCiRxvFUHcaokXHIUvMsvjm7xGe/cgvffOgIpR4jjmMa5QxSSvpEfo65ORpkLkxeSJxR7VoB2ZBQ+nsbNf3vcWWs/cJ5l0k2w4v2TvPTr38p+7dOY4qB2ySSJrp0nmcYhhRlRfIvazlSl7ByTsmRI8f44Ac/yFe+8hV6vR5xHNfryVpbd5MWlLV4UjW3q7ZUFaYchiFZkdfhf6PRqKEJR9t097JyXDqdDsPhcE0kVM3pZ0aU60n0lsFgQLfb5frrr+d13/e97N69m36/7/Ii1e8XFeacefkJB61kxuVI4shFYg8dy/mdD/0N984HiDBAhS6X1DGOPlgK7TQezGZ3fLWCIiOuxZIiNDGDcNUcKwNNs+TWjXRyvZXxrSvo/Pj1N1/xq7/w5tc8A/P9jhjfpOy7RRe2yXVAqi2tVovffvMBLtx/Bno4JEkSyrqVuvu0rMKiYlX+MPQGtt/v874//ENuvvlmirL0Ozf1biqEIE3TGnOtJk0QBL4hpvcWgoBC57XBrrLBVc25k3jMa8NbcVvzPAcp3ST0vbuCIHA7+MCFlRVerJRiYsIZgCzLWFlyibZOxzExgihmZmbGY7WCa665hp/8yZ9kcnKSlZUVhHDVha2mkz4s82INjjrM3HkkxQxBEPCpEw3+4EOf5cnZFaIoIjHOyGZKUVoFgavGmgwtw+Gw1iU4lfGVXtavqzVQYpVFS1jRTlBpl36KF5+xlasuOZc9e/ZgVUC/3ycuFkhUCMYiRECu4tr4ghMLB6gKGCrjm+FJ8MIitUXKwnsnbn4UMsQaNSLRWFHoJNJYpExRBm+IYRhMA9DwoukYJ0iT+zWS4DbbpdB5eCGlI817Nf+0yHn48Ue59ZGSrx+bY2a4RBhPogLXw63DfJ34dRGKO49Ei9r4aq1plYZAFwTCwVZ54HFaXzlXCGeQDm5t8H/8yx9hd6NHlA9oxs5YlDJAyRhTwXfKdwH3Ca7KSBZZzic+8Qk++ME/I01TWq2WS7h5bNRa6zxV6zdvW6wqe8VxnWCu1k/llAw8/FI5KpXDYUpnjKuKtMpbrhLIlbEdDAY1Ll79devDrek0dQ1M8Qk1rV1uY9uO7bzpTW/i+uuv9zCDWyeDzBnvUGmXEM58RZ5wkaeSDl7oy03cc6zHOz/0GY6cOE6z3fD3w8OByp7S+Lr5Gf/Pa3yrLsXCVI+rRVJhwpnLEg8djWq3Pcq/+MHXcunF52KzFRo+BNFau1b1YVCT2gGUN55hGNJut/nSbbfxh3/4h3WbjiqZYK0z6r1eb7Xbhd+Nq/NMEpcprlgNLru8OnmDIKibRApvlCoDXBmpqk0KUBdjSCldpwOoJ3Gj4W5yOhiitWb79u0AzMzM1L97fHyclZU+CwsL9cRfXllh3759/OiP/ihXXXUVqce6KlszmmQshxlR6IxjzwvmN1TBQw89xK/82T/SK0CEiS9acYsqJ6AoLFHgFq/1mFd1P/WII6KsU+0axXAL3OcS5QoqTGOM4XDIZJ7R7XaJum0IFaV0HntUKJcrEAWIklIZSizGTjmc3Sx5eMUvTOMxbRlRoihFgLWunYsQgpZ1m3kFy2jpcgyFdZV+XTvr7o1w5dCRzfz7PEZsW87IWtexo8riG5/QDel5I+2KBWYXZ+n3+1htiMIGuW9/NamdjvWypyomMvAEf89u8J0XWpmX92y6pGXUcIZoZr7qGuz0rRu9I7zkvNN5yw1Xs31yHOlFoCr2TCSFv/drcxOhx+LHxsa46667+KP/+gHuuecekqRJq9WqHYcqqVs5CrpikuiiFs4a7eKSpmkdaUZRxNAb18p7zrLMvR/naVdtrapkIFCv4SRJWFlarp2bKkHpoD3n9KSpSyRWm5G1jv1gcBHgi1/8Yt7ylrdw1qFDLC4u1ka8tG5NCF0SCYVSLmE3IHLrGhcxffOJ4/zXj32Wm49qms0uUeiS46VwRjbWFe+36vBS1SO4u5QG61Xm3P2rOmR8q8b3O1rh1mg4I/C2H38bFx3ajdZpnXyrKnvKskSo1Yx5NUmq7skf/OAH+fD/+B9u8Xsy/yhToCL1V9nS0Z0bqDHdavdvNpuMT47RbDZpNpsEQeDw4iAgKwr6/X6tVmStSww0Go16Z15eXq4zuOlgwPz8PJ1Op8Y9G40G82aO4XDI8ePH2bZtG1NTUzV1ZmFhgTwvawhBKZc8PHHiBO9+97t5+umneeMb3+iq3vxiG81yx3GM0ZUEovOG8zxn//79vO1th3jvH/9ZnTyskkwiCmk0EtLB8Fl7TFVjtINrxTapsv+NRoMV/3uUdnqwS9mQ3GoKr/MblwFSWxAFQuoR4+vC3FAv1sYX3CQWQlCKEC0CCid/UmOkTeOEmKreaJXxLXGbT9fOOraAcMY10MNnGF+AyBtZ6ctnq3Y9lfG12kdwIT5RKhCo+t7KTNZGxunAUkdQoxoGUrpNJUlckc2y74M3PT3NyZMnnYHNUs7as4fv//7vZ9umBFlkpMMBnU5ntVIwiT2ffbXVexRFCO9p/vEf/zH//b//d3RRMjU1hfG82MqpqH5b9bsqh8J4J8RaF+6POjNV2b1bJ5O14a6MZ2V8K0NZ8eN7vZ6rRtWa4XC4Rj+iWttVF/AwjOuCDUeJC2qYL45jCl3SbDa55ZZb+OY3v8lPvP3tXHPNNVQsKRlGntcM6FVnS3o7kg6dB79//35+8AcnuP9Dn6XXS+vf+p3jfK0d39bDrqoGua8Njd8JZMQwzZksj/P2V72Yq3YnqPQkg7IkbjSwfjeuOYF2teWJEIJms8nS0hIf+MAHuPHGGxnvjrmbWeo6AQHUnmM1aYSnt2gf3hhfDLBpemvdbl0pRaOV1DttnucU1pDnHkqIQmTgavYsoK0ht9rtfFFA3G7SjJMa29ra79OIE2ZmZpibm2Ol36fd7ZAVjlGxtLKMsKs6BZUnUG0QWuua6qO15k//5E946MEH+Zmf+Rm63W4d3lVtyodljkRhREAncHCJQFOmGa/ebSlftp/3/MMDRHGMChRpWqB1iUQRBBHWrnYtDnz0r4Rf3DZEWQiFpSwKyqSBtYoyVygVEehZirSgEblFqROFKQ0SQyLABl0AirAqYmg4qMS6bhFtPYMQgn4w6Y5feQ4iQBBihMQaB06EAkJfSee0mR2X1RhDIgaABtv37BAF1uk1O2Phzi8NHCbb8uyDUoaryV8DiQZswHxjk/Owc59QUZ6qpXPXzy111342bCOFu4ahkBT0wRgSIZ0+QwGtIKIZ++KZUNBbWSHPIDARaswwPjlG7+gTnDUZ8rPfewVnd4aI5ZOOnhXH2NLNtyiMyQs3T8KGS/CFFCRxyOzJeX7/93+fO+64gziOEaEL+YVQ9aZbwQRlWdZwXhVtSiVJ84zSuHY41TxrtVp0Oh2ixK2rdrtdG8XhcFg7KcY4mdfp5hZ3vNIZXGMc5304HLKwsMDS0hLDPEcCSZhgjRNFr+C/iqY5zFJiYpBiTfJ7bGyMhYUF3v2ud/HYo4/yYz/+4zSbTYbD3Ee5mlJYF8FJaHpth0BplM3Qgz4v2hryztdfwH/+80/zUN4hTMbQNWo17+f9eD0PtYSAvrdv3puv7Jx47rbyzzb+2W2+tRYVuF306quv5hWveClm+CRAHRIlwSrMMAoXVOH/sWPHePe7380DDzxQJ7AqreAwdMYx98m52vAKgRrx9jqdDt2JcdrtNhMTEw6bTVMWFhbIiqQOt/r9/pr6+X6/v4bz2Ov1CPNszUQs0qz2pJMkodVs1doPvV4PU7oKndnZWbe5eHJ45aUqtRoSdjqdGuetfsett97K7Owsv/RLv8TmzZvrc4WqV5fzsJf7zguPo4onOuQVr3gFD+gtfP7znyfChY+DWqvAhWXPVdk+CgG5heyxRu1U2Qaln5TCZdzXlwzV/FxfmSRZZbqsYTGwln9ZUcZGqWjrR4V7V3zejRgOVUQwSl2r3lNzWAHp2Q6rLIvV18uyBKOJw5BIqJqPLeSqchzWoqRE4IyGDV2j027sIgVDpdglnae3skK322XLli3c8Kor2bNnCzpfIAkCZ7yiEKVE3TsOXBhf3f9ABTz88MP81rt+myNHjjjIbkST1ozoDtec2SBYo4VRYdTNZpPJ6Wkn3j82Vq8jlxi1NX5bOQXV6xUkUulSV9+rlKqj0GotRFHEwsICC3NzLC0t1bBF4NtWVXDhaLWkEGsLm5LEMUj+6q/+ivsfeIBf+7VfY3JyE8YYBv3BGry5gliMXe00Yq3lwIEDvO51Ib/zVzf73E7wnKyYf46xIdVsNiP+i7/+zK8OrRMhr0dF0RhJcECVIPNZfiGc/mXFJqCg6C1wzaGd/MJrzyfMFgii2LU4MUMCNFa6CSGVrD9XGZ9HHnmEd77znTz88MNMjI3XSbWyLGl5Ccm8SP2EzhACoiikLAsQlla7yd7T93Ha7tPYtmMbURxisWhTIiNFEAWoMKDRahLGEWmeESUxzVaLuJFQak2r3SaIQlQYgBB1y3lwcn7jExOEcYQ2rlY+9BM8jEJK7ZgOm7dsYXJqijkv2qMCRRAGNFtNiny1MWCVIBmd4EmS8NRTT3H//fdzzjnnsGXLlhq3BlAqoj8Y0ApylC1IRQIqJMaSMOSi3V3mnn6Yr89bCBIC6ehAWlfX2np6zWoFjyMEulYxAR7mKA0Sy1hgEEWf3AqsCFAiR0lNLqbIiZF24LyWwM2ZyApiJIkdEpQZWhZIpSnFJJltoMiRGDe/hPAccUFT9whtjohitIYcgZExuYzJrKBploiVpheNkxISev7zMGhSiAipM6zVDNUYhWwgZEFoNKF13nkhlauOw3XKVVY4qUAsgbU0dA9lMwYmJwoigrBDrgUiW3L0tNh5vUK4pJmiQErhMHMlGQ9jOnHMif48K9mQJBwjiloMBikqUITFMp3hcf7tDZdw5VnbkSajLCwmiJAyIQwVoixoKoMoUoIwxCCw0glEffUfv8o7/u93cPLkybqQoUqIAURRXDN8wjDEWEsUx7XRbTQaTExMMLV5mqnpabbt2E4Ux+RFztLysudcuYRjfzjA4pJuuS5JixwRKIZZ6vIUvRWMtQzSIWmesTLo+3Vg6Q8GDNOUpNEgThImpqZImk06nS5RHFOWBa12CyHd8Rw1zQkaVdh2q9WqeeSVc3Xy5EnuuOMO9u7ew/TUFEKVaFMgRIjOCgIriIKIvojQ0sEzujREWY/ztncY9pd4/PHDxMRYUVAoV6cQ2ASJ9OvAYKXBCqeIKHBl6Gv9C58LqytI11Y1XXXuaZ978bln3PrPYnypSdp4YzxCMkYzPTHOW3/gdexqe2/HG9BAuN2oNKvaAFXSrdFo8Nhjj/GOd7yDI0eO0O12SYfDeuevMreuMsnUEEWj0WB5eZlGo8GBgweZnp5mbHzcfb/fwavJKPx3VTt8FUIlSbIGlxptKZ8kCePj4zVE0Wg0ai+4ggOaScOHQ0N/vfzFVoqxsTHGx8aYn5+vsSldmhrzqq5DXU/vf0Or1eL48eN86Utf4rzzzmPTpk218dXaTVI8tlnKyOsUO49Ny4DdB87h5geedoZfuKShCnzRir+flfGt2wtVk8q3Q8p9JVh/cdGpmnVdUYDAeZZp6ehKFCvOAwuc96X8XDVl6kJWL8xS5M7zr4RmwFOIfFFO5LHfAkWWFmRFDlZQaE2ZZcjCJToHOJhGpH2nqobbnE3ujieilp++uRPO9p5kVlW2GVewHiIRKAovgB37RKyNY4pCU+TuPBPhflcmJdYKlAoQFpQoay+/2Wwy1nQsg4X+kqM0Dss1am952uMVL7mMV15xAdIUYA2hb0opERS6IFQB1rh5URi3tlqdDjfeeCO//du/hfXrpcqXVIljl9soa080SZwjUTEMpqen2bVrF7t27WJ8ctzzZcNaVrUoitrJCOOoppdFUUSj2ag1jJMkqYsyGo1GnUcpy5Kux6ur39RquftQ5Rm2bN7Cli1baDYazM3N1VQ3KRw7Isvy+npW51YXxvjIaXZ2lru+djfnnHMOW7dv8h66M52Bn/+5j4yUBFNqQh9lTu0/j8dnl5g52UcrgfE8YVm1RRLOhuETclX5fZ2Bq8c/zfh+W2CHisaSFp5MXTqPVirXVvoXv+88Luj2iXxFi066rgRXeqBcr5ZAVqHTI488wjve4Xb1TquN9SFuZQRhbWPHoiicZyoF23fuYMeOHTRaLZaXlxlmvvbb6+lG1tShWZqmtDptCl2SFTkr/R6DdFh7ttoa58XpsuYMw2rTvZWVFWSwiqEZY5idn6PVaiHDgMW5k3RbbXqDfk2Zm5ye5swg4MSJE/T7fXQx9BKTds11qJIkzWaTlZUVJicnGQwGvOMd7+BXfuVXOP300x2HWQnKMkN7sreiBGkoS4lUIYnJ2ddS/NwNF/L7H/oES3YSEQRIU8kC+qy3rDAtd30rfV/CECkUerDMFReez/UX7WRmZob3f/YwRjUxftfdpua54YYXc9rWLh/96Ee5M2uilCQqU8ziES47YxuXnn2Q887bz75tO0mXVzh8+DDvv3fANx54GBE4oxdJh9VlidN5bcwd5vsvPoOrLzmTSy64iFLnHD16lE/d+Sg3/eM3KAdHOfvss/mVa1/E9PQ00mP4x47P8vV7HuMvv/owj64EpHEb4hhW5mD5GC89OEmz2WRukHH/YyfImltQUROF2/DSxjh5MaCVHWXcSCaCJkKEPBG4zbmRrhAEAQMLVlqS0nW6yEJBfzggCRTNZpN22iIdFhRBxPxKxqbpDlk5y5X7NvMTLz6DaT3recZTlFIShRFpWTJuCyQlQejEklSrTZI0uPHTf8d/fd/7ECJEhCGmLCjLqr2RoCyN+2vyuhy9N1ghzXO2bdvGjh07UErR6XQodYk1XulMipprr7GoKMQItwaEkmhraDabdURWGVHjXwtj56UKfPWiF/pRUUiuSwZZ6mGREiPwjVchbjQ46+yzSdOUhx9+mHTgIqfSFDWM4tYba+CTCqbrLS3yf//mf+Dnf/UXOf/88zGDIbkt6MkuIhRYO8QKjdIaoQR93SSIAnboef736w/wrmOP8vCS4UQ45bzqfOg2YunWa1Yngt1yKH2xjKyLy/5pdvPbYnyrRJkMXYIlDENsoen3+7zm+qvZu3cXgTVkw5W12rgVSdp7m5X254kTJ/jt3/5tnn76aSYmJmpebkX8rkIp8P2g/OKfmJpkYmKCzZs3MxwO6520wp6MJ4mPciLzPGcwGHgRdVkbvgpnqnDgyqMWQtDZtJmiKOpsda/Xq9XQiqKg3W7XnsDExASmKOvXjxw54ji7rRYHDhzg5MmTzM/McfLkyfp3VptKJdFYhYiVaPvJkyd517vexb//9/+eXbt20V/p1RnqKgKQUtaCSFWxxplnnskVV5zkb2+9zzNFPBb6HPfXGIPxUM8ll1zCj73pXB55KuX9n/0tXzbqPMFWq8Uv/dz3EwK33XYb+pG8vsY//ta38jNvuZbtHecFSw2xgCuvfBHf/JsHufuur5MEzbqLwChW9+pXv5r/+AtvZVPiJqwBLrrgXM68Cm5+67+jLFNe8pKX8D3fcz7WwkI6II5jLjxf8epXwhVPw0/88m9zpJcxHA4Zbzb56X/x8/zE688jkdAH/vYLT/CO3/9TFlcGKE8TTPMUIQWBCvi9d/8ueyYbKAVv/KXf5+GHH2bLWLNOnFaZ/yRJEMpl/hcWFur8RJEbCo/Dz88XdDstXv3qV5MkAb3ecbrdLqEK63scBAEmW6WaBUFAs9XiU5+6kT983/ucE9Fw1LrY0yebzSZZ5vIRw+EQm6+KEnW7XXacdhqbN28mjmMWFxcBF4EWumQwGJC0mnVIXyXVnJCVrddAhaUCNQ84TVMGg0E9d4ssr5lBVaKvYi5UDspwOKwjO6nd/BwbG+PQoUPMnjhR9ywsfb6kSvhVOZnRtRHHMcPhkHe/+9386q/+KufsP2Otzoa09XGrf3meEwWCqakpbrjhBn7vLz5Z4/idJEGneb3J/HONb5vnG0URuQffs7ykYQwXbVO87bJtbFWuwk3LABXFBNqRqctgCmMMDfJaPL0oCt75znfy5JNP1sm1PM8ZGxtjaWW5Dj+yIqfdbjuMqcw4cOAAO3fupNfrgZTEjUadiKu83EawatyqGyeEIA4jmo1mXR1UFWbkNicKHLcYoBG7pFlFYUvTdDXJ4D3zTZs21dnfypNtdTu1KHuj3aLd7dQ3NohCzjznbJ544gkOHz5MEAQMfflyWFHvRnDwioo2OzvLf/pP/4nf+I3fYNPUtOMb5y6BYTGYokRog1SKLOy4oorsOD/1kp0cf/zr3Pv4SYpwgjiOkNqF/XVtu9d5qKKsIIiQRhMK6AgYA+TiYYJ8hZQOMnGJ0yh7HK0hUCCRhEWOLnJ+98deylveci0l8MX7V/jQ57/OU089RX844LrrruNjn/wHRDJOJgIGqaYTuEhmUAjaY5v4L//mdYwl8J9vepS//OQXWBwWnH/++SihOZ4phtoQC0NPw9NPz/CyX/5jyrLk1Rfs4T/+/I9w7U5475sP8QPv+hva7Tb/6SfewA3fcx5PZvDJWx7k9S89yI9fvZux9Dp+7Z1/wHLjXIbDjFhqivmn+Y1/cw3fu7/h6OwCWhNdwuYYfdGgLDNakabTbtTQVcsKdKKZWVlkJcvYnLQZ7ybM9pcJpEDPPMoPvOQ6zp8sKIoBImnRKwza5CRRSGgLZDGkxEEaBQ6G+8LNX+L9f/hehM7oJDEZviioyGsnIYoilitNau8d7tq3l06nw9TUVA3tBVFI3HDsgqjVQGNrXBVWk6xKKUIpacROv6Hi/1ZcdyEESRSThxmhCoiCEFOubkaVEQyCoPaaK7is6UXXyyyn0CXaGuJGwq59e1lYWGD+pKvYzLxw/0p/2Tt6rjnlxISD7wIsUSyZX+rzH9/5u/zKr/wKZ511FtGgTyAsWe42tFIKDCGN0CVEKwjysoOb+L5L9/H+rzxGkrQoiz5KuByUMRrhE4JGrC0OWttR71sfL1Dvyo1Rnm51QtZaXv3qVzM+Ps5gMKi9gyrDvT4rXX3m93//9zl8+DDtdnsN1SzLsnqXq45XddW9+OKL2bt3b/0d4AxoVSFTHafa/aoCi4qkXXm81blU/4IgoNPpOBzR795VtVmapnVFTkVZq4jf7XabZrNZG+DK06686ooOV20kRVGwa9cuzjvvvJqkPtqKZ1Q/uMLspJQ89thj/MEf/EGNHVfQR/X7q4KS6ppU3SeuvfbaGnusjvFsY3SigptsFbtjlF/sHnvP1t/nc889lze/+XuRwKdu/Co/+ZM/yUc+8hHuuusuvvnNb/Kud72LY8eO1fNnlNQPcPHFFzPWHWOYDvnABz7A3XffzSOPPMLHPvYxPvKRj6xhyEjpMuaLi4sMBgM++9nPcttt92K05cwzzyQMQzZv3swN33MFxsIv/uK7+c3f/E1+9mf/HXkJN7zqxVx00UVrigsuvfRS3vCGN/DIo48wc/w4GGrVulWVLTfvlpaWmJ2dZXl5ufZ4Ky54VZyQpikXXXQRF1988aqE6Lq1UM2ZKrEcRREPPvgg733ve2v8v/LgKseiEoYaDAZ1tGGt5eDBg+zdu3dE2UvWUV61Tmq2CKvsker16jpUYX5VPBQEAe122ykFeqegmlOVka1gwup7RtdalRisDHT13dXx4zjmjDPOYNeuXa6AaMSLrs5vZWWlZqJUjKa5uTne8573cOzYsfo3j17fKlKpniu9NMA111zDvn376u+qrsXo2vt2j2+L8XW6mznKDuiQ0yiXuPLgJl55ekzUP0YedsjDDgWKvFwVi7ZlhjBFHTJ9+MMf5itf+UrdKLK6GZW3ZwFjLUEYIpWCQHHw7EM0um0W+yvMLs6T6oJBkTG/skRvOEBjGfrs62AwqIsUyrKk3++ztLTE8vKyw4Z7fcosp8xy8mFKmeVIC0kYEamgfm2wtEIrSgisYHnOhZZp6pI78/PzPP300/T7fYwxLC8vs7S0RJqmrKyssLCwQG84YJhn9IYD+umQQTqkN+jTHR/j/AsvQEVO+SyMIpSfoFURSFVcEkURrVaLe+65h//x3z9Eu5mQGkspndSmFJrMSLSMaNghYeHwyVQXXLW3y5vOG8P0llCicEUK0lGtnGapAZGDlWAlSahoRoo8H9DXOQmQWCgXnqYzfIp47ut0Vh6imFkmLiECwnKBqfwwP/29F9ISMPPkPL/2Xz7C8tR+1NQ4utMkjhpMTW5ChAk2kMSDo2wKegSmB/ki1mqOHz+KMintSPADl+1lMjtOYzjLVDuh2eyiwrbjsxYpsQCTDpyASuCKcnQ2wAaCxf4QZQd8/w3X0rZw8pFH+OxD86xMHuDvj0R84cGSGLj+gt2YdIaIZXYNn+S3/s1bETLh3R/6a5atIg+hqVwysCEhNCVjjQahtfR1Qeo1aLMso93skkRNVrKMXj6A3nEOJMv81MsvYYfsQRBiVUBPK3TUJrADgqJHIzRYk1MIQdQa58mjR/id//J79PsrJEmTYV5ghERhaUSrUAXgK74Mk5umOf/CC9i6fRuF0WRl4QSVpHCaGAIKoymMBun0IqxwrZNGaX2VwVRKoYTj8FrtSoAxljIvUAhCqVAIKtJsBQ9WBT5CCHzDJncMgVNHwzosOArRWKwUjkWRZ2hr2Hv6Pi6+9BJkoEjzHBkE5GWBweWZ4jgmakSkRYrJUibGujz82OO874/+mKBcIlE5Qru+iFo2sUGC0j0C04egg1VtpM3Z0sz4icv3symbIw40WsLQWEwYEVhDYI3vPO26sEsMxnVv+ydbzW8bz1cIgS411kqCMOCVr3wl1i7WO/uoB1btplWlVjOIue222/i7v/u7ejessqtZljmZxZH+Vr1ej+npabZs31Z7b3Ec0+12mZubq3f9useYL76oPJZqZ62MWsVWEFV3Wla5oRWGG0URnU7H4Uv9ASsrK/VvrKrgGo0GJ0+eXOPdVpV5Ukq3gVhbe8VSunLTVtOF7RXmvW/fPg4fPkxR+IqfIGBlZaXGvYDaG5FS8jd/8zfs3r2bi65+eY3TVRtCkiSuDY106mtBI6YsDC972cv42P2fZzHtI6Jn5zm63zWCsQObN2/m537u52iOdVCxCy23DleIItddr+Jn7tmzB4B7772X5eVl5OSW2ttuB66ySatVb2i095aSiscff5z77r6bcy+8kF/4uZ/kgpe9jo999lY+95W7a0yw8mCsh4y63S5CCF5zxWv4nu+5HICPfOQjAJx77rkA3H///bUTsLK4wuzsLLCNTZs2EUURKysr/NS//Cn2723zqX+4m1tvvZX/82d/Bm3WhuRJM6wTQlUH47rCymfVq/PSec5V117N5s2bsXqB0pfzVvdLQh2mG2Notp04zQc/+EEef/xxJrtt0KtsHG1VndMoy7L2wK0Q7Nu3jziOmJubc8ktD99VinzVms3znCAKa85tJQHZ6/VqD7bKi3S7XQaDQT0vBoOBm9uWuqItDEPfCqusK9sqVlKhy9pbr0R1qvXW67mqwkajUa/3Ckfudrucd955fOP+B2oMWClF7rUdpHCl1VkOWVEwNjbG7bffzl/+5RhvectbCAJL7gXzlVIoq+rIt7JBaZpy1llncc455/CFbzziko0+WrHlP4/3+20xvpXSmlQSnRa84ZItXLBZk+UgZEBZFhgtEGGDMgyROsXYnMQOSaTl+PEl3v/+99fGauiFdgaDQT25siyj0WwyPz9Pd2KcPafvI4wdFlYKT6GxBhU6bKnCdSvYocJxqzAtjmMUAls6mUzjaTkVtSxJEgLpikMmxhwVZ2VlhfHuGNu2bK3LjGdnZ4lUwLDnqquSMKLphUwq77ry5OtMbRTSCbqOhrSwgBEQNxt0ojHnNZUFhw4d4rHDj3D8+HHi8fEaT19ZWaHZbK7JAksjeO9738s7zz6HsbExUh1jlWJMZFg9oK+F4zLrAWU/xYqQ8ektvPGqA/z5J75ILx4HqwhrRaOhv7OukGU8EFjt2o8PhQAL27Zu4SffsIVQuPBJG6h0RwwwKAOCuEtnvM2CgMd6OYthg3ElmbAumdg3JWEckkhDPhxQDI7TCCKsN6hxp0Mx6PMDv3cL7/r3l/HqM+D1F27h9Rf8AA8/fB6/9P6/5477vsmgLCjDNgFw7pln8MSf/lwdZvcWM370g7fw6TuXiaKQtlghF1McW1qhyIaoRkyiFHPHHiNiG0FREBXHefGll/C277uS+aMZP/v//D2meSnDYsiYTLD9lM2dhGaoKcuMFW1pJ+NMBQ16qaZHQTtpkBUWbRVgGPaWeNlpE1x/9k6kOYJQEmtbaARSGAQlzdCxVoapIm51ybXkrz/5t9z1pZuZbDaJQ0FuBKXvfEExQJcBQvi2V8awdetWdu3d43i9aEfvUtL1JhTQ6jgHwMF4EIcJ1rqNskpCB758vEocVw5EK2nU8F9RFLQSBzmUeUGmHD+9ei0JIwLP2Kkq66IkrjHnCqZwQjoaaJMkzXrjBQi8gmDldJx55pk8+uijLC8u+uIM55VnpaYwlsm4RWpSCr2CCDL+9K8+zdiuA1z7oiuIhcXkmWNdxE2stHQHLoE+NJZQhUwUs7zt8rO47/gJTvQsNmyQIuhoZ+QHof9dpsJ+V7Ue/inj25ZwU0qRDQdsm5zmpS99qdv9vXEIw5DCmtrjdZilcIR0rfnwhz/MzMwM3W7XJeD8Tj4xMcHc3BywygOudsFut8vC0qLDlEJRexcVzlZBC5WRglVBnIquZktd83y73S6Tk5PEcczk5KTDeouSlZUVzj//fJLEdYf90pe+xNTUFNPT06Rpyv33348Vzgs4efKk8yCisE7IVZoT1XWqSihHRU4q3LDympRSjHc77N+/nzRN6w7Auce7Kr4jVL263PH/6I/+iF/+5V+uvXzrJReV8hSg2hOXDLKMCy64gJv+8TAP94Yb31g/RquW3HnA8eOL/Je/+Lh7rHOaccLk5CRvfvPrCANq/L8snXGu7oXzeApP+g+8DkCfV7/yet7+fS9xEpQeF/yN932cBx98kKNHj/LTP/3TvOWKHVz1ost49ateycGDZ/Cbv3kGP/Wz/z++8fBhh1FaGAyGPPzYI0xPT7Nzx9Z6A07TlGa02oxTKQV+ca+PylqtFj/zMz+DlPC+972PNE3ZunXrGr2OJEnoLbnoZ6AgCpu0vWRjItwG3+s5D0753mdnnXUWU1NTpMtP+3XRcl60/w3aC/w0Gg20tTz66CP85V/+Ja1Wy0lODgaupbv3JpVPZBnvjW/ZupWDBw8yzN08scJn/L1ebxX+r1avVZ42z9BVrqCHUXaDUopNmzbR8Lzcqakpd818E4HpzZvo9Xq1F1xFXpU3X+HIlUGtK+hKd5yJiak6aiiKgm7XUVIVq6JbF110EXd/7WvMzc2RtDt1JFuWJaUX1DHSeGYG/MVf/AUX7j/A5OSki0gzsya6GNXgKIuc008/nfPPX+CTn7+DJG7XHvo/x9jQ+DZM3m/oHqFVDEQTLV3ZbmhSAuEaJjoyvOtuO9QhkYyYKh/nhy7aw67JyJXVEmNsgMhzGghEvuDI09IggwAVNvjyl7/Ml750K61Wg1qKL4loNGLyMqPRSuqJECYhOzbvIIwDFpcXKIqclZWyhiqMoN6ZK+NUFStYa2lEMTbN0VbQG2aEKqIVNpjsTnLeeec5EZz5eSICYhFSCDh5fJaHo4fYtWsX8/PzpL0h8eaIrJ+ytLjIlqnNTExM0O/3OdJocvToUcq8pNcbgBCUw4wyzun3+6BccqAisBfaYYNlljLsrYarrs09EAoOnH2QRw8/4uhpnaYvo3XXyGrHWy4sRM0W/3jrrdxy4YW84hWvYDlNyWQIarUNUGliZwyFoGl67IsVb76gyS9/pk93vEkwdBsdNkALhTBDBCH9aMJNbpMyXq4gRcbiiQd59ycfcJuYSVFkbEskr33z6xjHdXBdygXHFg1XTkpeceYWJrJ5dLKTvhhHobBak6BoqB5R3ieVbaQoic0yFklbhOhhRqPdpm8a/M6XNL/z5a9wzece4gPv+rfsb8PbX3EO/+6JE/S0q+d/5LGHeOnP/ylKKf6Pf/Ea3vqD1/Bb//YGnvjyX3PPSpvFeDMSy6aJDlHZIyksqU2Z2DTl5XsyXnfpBVy1t0kb+OV/9xP8+4ZLcHUThS5KPvPu/41b7/omr/mVDzgoqUzp9wcMpSu60cbSW1l2zQAslP1FLt67iRsu3kqxchQZttDWEtghShps6YyX9tV2ttAYU/DBD7yfwGqMVKSlJowcPbCTBFAMXecYayiMZmxqnDMOHUDGiiIvyYyDE4w3psp3A9ZaE6qArEiJ4wSbGwQSqQVSu9JntCXvZ+ggYWpqim2bt9Dr9bj0kktIkoTHHnuMLRObuOJFl9de9E033cTe0/ayc+dOZudO8uSTT2KB48ePMzs/R7/fJ5x0Tsly2kOiwLjmmFXLrSoZJgNFlMQ1x95YJ3QulEQoyaFzzuGOO+4gLwuscMUPjTjGxBFGryaxmxIWjh3hAx/8E37t136N/tISSkqUp5ymyhenWIE2mkDBsJjnX1w4Te/2o9yetoiBLIygNCTew81QdYJXa+2rQb9NxvdUYyNc0GXnHQl8cnKSCy64gF6v595rV1WwpAWr8bXU7scvLCzwsY99DFjV0VVK1bSsuJGwsrJSZ0Z37tzJli1bKHRZ02JGa8p7w0EdLimlar7o2NiYw6KyHJM7DPf000/n7LPOYWVlha1bt9Ye5cTEBFmWsXnz5vr79+3bh9aanTt3EkURu3btwhjDfffdx9TUFHv27GE4HLL/wOksLi4ipeTrX/86x2dmakxyenoaI6hLQYMgIEqcd1x5u3VnAY/nVvSc/fv3c++99zoaHRCHbjPURenLsB3u3Ww2+ehHP1pHBpXXLbyXPRp5VPDLoUOHOO3Bxzl+/DgReN6uwXoMVpesZtTtqudYYdcVJq1zy8REB63drKo2vzvuuIM37L2MCy68kFe96lV8+LNfoUxcOIsQDAdDklhx++2389mbPkdDWBKcRzlM9nt+9SJRI6HZcpWFd955J488MsOWszavORdYlfPM85y//Mu/5C0/eA3dBHbv3s1d985y441f5E0/dQUHDx6k2fw8WrvQ/LzzzqQsDd/4xjeYm1vmgYfn2CrdPM7NvONtb5smjCJOHD3BiRMnajZJlRVXKmRlZYXc388wCBClw2ivuuoqosgLjtceq9dlZlWqVEpX3fXRj36URx55xHW7LlerMCtPLQxDEt9ZpDs+Xmfq+/0+RuDw9UDVVZtCiBrXXRo6KM6WVeQV1vjq8vIyWzdvYceOHWzatIldu3YxOTbOU089xYkTJ+robW5ujieffJIocrhyxfA5efIkTzz5BJs2baLZatFoNDhtz26efPJJBumQo0ePuoSyj25cfsZ58gsLC3Q6Hebn52v4r9/v1/q+wousT45PcOjQIR5/9FE3H71WCVCfb6XK1mw2ue+++/j85z/Py172MldZWKzF2lXkHDzjcfFWq8WVV17JFz/ztL/HGmFXNUFG2SGj+iTf6tjQ+BoCZYSiIHBG02Mc0pZVx3pAYISrwQ5tiiqXuOy8s9k0OYYYLAIW4VV/SmsIEMiK/I/T9/zrv/kEhw8fptNu1vSiSr/T6JJAV6plOdOTkzTbLZeVLb3YMpak1aQwjqYyFoU1TiylpBHFoA3KgE5zBK667CVXvISzzz6bsiw5fPgwZVkyOTlZY7B1OaYPjSpsqjLGaZrS8J1qq6yuS6JZ8rTgzEMH2bVrF0888QRf/OIX6Q+HjvsYBsS+lQqALkqSKKbl6WzGGBAgwwAVhc5z1hoRBUxPT/P000/TjOJ6IeEbCIbx6m89evQoN910Ez/4gz9Yb4KVcRgN+6qJPzU1xWsPLfEXj99P2RzzRRclwroOEQKBEq6ZpFIKHTZZFDFz0XZCW1CogNQqVDJFIz1JYl3CzRYZw2QL/+0Tt/D2ay5k6+aId//CD7GvOeC2L93MyZMnEdEEp51zCfccW2BxKCgbbXpCUASuA4ZSlsm4wY9ecx4P3Xs/Tz/9NUxe8KrrLueCfZspgCfmB8SmT1iugBkSmyHDcAJCOJkeYe54xv6tMddedICPfb3PHXd/E61eys7T9/P9F+3hlltu4TVXXczZW2AOyUe/kfK1I5pP/Ls/QJcZsQrQ2mG4h//r2wmnp/lXv/0XPHyiR7vd9ALhoZcjdSI1sXTzpShLsv6AS0+LuPLgZnTRw1iDrVpxGYsSEiFVnTCL45hHH32Uv//7v19Deaw2maIo6oiJ1HFld+/dQ7PdqiOqheUlwjCkM9atZR6zLHPaKEKQBiG9Xo+xsTG3YWWuG8W2LVs599xzOevAQe69917OPffcGgaMooiV5WVOP/30uphk567T0FozPj5Os9nktNNOc9+nS7Zs2UK70+G0005jOBxy5hkHiBoJjz76KP/4tTtdZ40gpJW4iPfEiRNMbNoEQLvZYoCoS5IrWMGUmvGxLkYbxicn2C32cd9ddxPIVW5ylWwfLUHOsoKPf/zjnHfeefWGWYnvRFFEoY3TpZHuO6I44uLzz2fP7U8y20/RQQLK6VoLAUJ5aEaXqCB4TmGqb8n4fqujLEu67TYXXHCBy4pWlVbStwG3BoNAVWC6kBw5coTPfe5zdLtdlHffq6RYqFZryfv9PmNjY2zfvr1OnlVGcHl5uW6Nsri46Jr4+a4TQoiavVDmjt960UUXobVmcXGRBx54gE6nw8mTJ1EjnuHhw4fZtm0bTz31FEHgOjI8/PDDdLvdmkPabLrKpiRJOHbsWO1pz825TgmPPfYYUkpOnjzJ7t27CeOYr33ta8zPz7us8+JinbHu9Xr1LgrU1T+VJ26tZWVlpZ7YiyfnavU2YVdLuys9iG63y6c//Wkuv/xytm7d6s5/xPDCKlOi6jxw7rnn8pnbv8H8sPRh6SomhvfKKuyr8nw7Hdc0UAhBGPhNry1ouKps78XnzMzM8Ou//uu84x3vYNOU4hd+7sf5Nz/74xw5MoeMJxnfLPj1P7yZ//bhT5C0uvXvM1ozHGa86qpr+NWfvwYFPPLYMpPdLlsd1Mhd9z/BP/zDP9QLDWBqaqquplpeXubee+/lwNZLufbaa2l//GEef/xx/vpvb+L7XncN//H//Nfcfd8bufLcLQB84L99hieffJJGexfWWsbHpohVwPHjR2sNZ7wX2e/36W7e4QoP/AbX6zl+b6krwXIXzVx44YXP4JeOGodK66Q6h09+8pPMzc0xPT3tQ/LVVljGGBKvrSCEqKO20TxCxYevCpcqz6x6XHHnqw1/cnKKJEl49atfzfT0tJPN9PNjYmICYwxLS0ts87j3aMusJElYyRydslIaVEo5D3VqqvbmrbV0Oh3OOeccpjZNc/fdd7O0tOS7CwdMTEysqYKrEuZVnmZ1PlKzfFqtFnv37uWxRx6ttb1HnYzKwFbCVJ/+9Kd505vehPGYcmVHrC8XVnK1W3mj0eDiiy/mE5/7Kip0iUWMZ0EFlSKf/03in8bY3dD4FkKGhgAjQvBsNqDuPlwKBTbA4JIcjaLHRWfsZsdEQqwHlEVWl60KIZDC9bwvdEaA0xv41KdvZHlpwdNjZE2WDoKA0jfiQ0qyouCCSy6m1WpxcmG+rj+P4ojxyYk6oRdEoVfbT2kmTdqxKwfuDYZceP75bN68mVBFLK4ssv/s/bW4ycmTJ9m6ZUt9w1qtFo8++mgNMSwvuxbhVQj06KOP1uF2FYZVxQZJkvD1r3+dyy67hFarRbIr4Zvf/CZxGPLiyy/nkcce44EHHqCVNIgD17FjaX6hJqpXXWGt8LX2XgsjCSNX+bNnN7MnTkAh6ox0TWPyoXeWZfR6PW666Sbe9ra3uXCSqgHnqq6rMw7us4faKa860OaPvzrnJr+SGFMgrNN9kDJASIEJY56YXeZzj8Hjj/fJ8gGRGseWAc2gzROJ5DOHDTIveXjQJvLi3x9/8hi3/Zv/k7f/wPdywRl7uGz/JNu3T/FECbc9XDI/e4JOCEGkah62MxqCI0eO8Nefu48LLjiX7Xu7DICvHoObb7+HP/jTj6PFdmRjiRMzx/irb+7nxImIxKwQlilZazP/+RP3sGnXQawNOS3OmSkMP/2+L3KnOZMfuXQLLzp3C3cswJ/998/zV5+4kaQ9TZzNMzExgQgsCyuLJI0OuZV86nFJs6l5tB+zmEE5f5Jms8mgcBu+KT0843YlinzAtvGIV589hRzMIeKmvw8aoTV4p0MbXRvx+++/n9tvv70upXdC5s6wVNoJFSQ1vXkzU5s2MTs/R7fbdSJDg4HTIQmDmjVURUrCemjDwtLSEmWjycTEBOecdYgTJ04wc+w4S/MLpMMhR48cwY4UIZ04cQIlndOkta4NZ7UZP/HUk7S7nTrRfeLECebn513CM8vo9/usrKzQarVYOjnPjs1b2b5pC1/5yleYW3JCTY1WE1tq+kNPLQ1WpVellHVJchi6zb4oCianpxlmGYsn52pN4GoTq5Lb1dr43Oc+xxVXXMHWbduAVUdCKuFhvBwphGNf6JJXnL+LO279Ikc9hQ4vil91rHmh4wV7vlU4ftlll3kGgV2zu1tf8lRdEKUUJ2Znue222+odG1bbjeR5Tmkc9js/P+/5inG9K1aKSXEcU/R7Nf5V01m8LkOv1yNJEvbv3881L3+5Y1JoeOCBB0gSVyrZ7XbZu3cvW7dupdvt1obr0ksvravjkiRxYi1S0ul0yLKMvXv3EscxZ599Nvfdd1+t29DtdlFKsWPHDsqyZKXfY+vWrezduxeAc88/nyzLWFpaqnfxTqezWl0HtWcfxzHSZ3mHlhoL3L17N0eOHCHLsxrLC+OklqKsClJuu+02rr76arZs2YIeqWmvPJbq/1UC8JxzzkHdeWsNUbiMuKzpdxX88nd/93f8zcc/XKu5aRTDrPDZ/R7/8l/+SyLj+cDB3ppvffLkcd7znvcwHsKWMHQ0vSjkxEIfK2KkXFXlqn6fUoo777yTb3z1r5mcnCRJxilRzC8usJTlBOOu+qnTbPLJT36ST3/sw46a2Nldz5fHH3+cn/zJn3ReULIJKRtg4Xd/93e5pT1Ps9nk0TxkbnFIa2zctSb3WPvswjJaG8LQ9Vb71//6XztcM97p51PmNBJ8hIdx2g0idJSpLM+56KLL6XQ6deK3zrKLVYdD+hyIEIJPfepTZJlrx1S11akaUWrf2j3LMprNJvv27XNhM6bW/2i32yytuIiw4rkb4xKzm6acJ412UMIll1zC5s2byQbuPbt37yYMQ2Z9rqLSGh4Ohwx8l5bx8XHAedGdTqfm1kdRRBzHDAaOAz8cDjl06BAATz71FEtLSxw4cICJiQkaDZdoP/3007nuuut48siTfO1rX3NCP2XJWDTmEnReZa2CyFS7TafTqRUAkySh02ixZ88evjYzW0NvlVdbce0r/HdhYYHPfe5z/OiP/VidKEyShLRwTl8FH1SRwtTUFAcPHuTJ+444DN+3jq/aL71QBeANja8VqFKEGCuxWBQ5gV0VYLEidu3hTYnQmv2bW1yyu0NULGPKIUEjXpOYkVajhXEdIQTccsutLC/3SGJVY6sVKb106XgAwjhi9949GAHSSqx2eJfF64b6yTkYDgmjyLVuzwoKldFttzn77LPZMrWJRtigv9Sn0WoSKMXy8rKDCqIQFYV1oqJaAJXHUCUQtm3bVrMoRuGA6neHKvCUGdeptyydt2hKTZHlKB+WLC4uctqOHZx91ll86UtfwhYloXD6sVJKpC/qqAol6k7Jknoz27dvH2ma+vJJN8GanjpXJSnyPOfkyZN84Qtf4Ed+5Ecw3pscxRCrEM1aS5Qvcdak4JxdE3zjiTnKIEHIAGEKpBEEwqIEZFpDmBC2J+mlKaIsiURGIwJrU6ztQNzEhDF9rQn0PBKJziyN1maKUjMnJTNFSTafEYQCIToEQYwInDh7EARYo5wmbtjCdFr0RJOehbznNGtFFCJigbYBYatND0tvGNEc24GyGlu4YpVB6Q3c5FlIU/hW3xYdJsRjEY/QIlvOCBsxwVgbqXtsmRwnt4p+ljPZ8OFoEkIQM9e4nLnlZcZjzfRkk8WeoMhSjPZ9/rTGFJLQL/zTOoJrz9wKw2USINNO5zkQBikFiAjEaqeNBx98kLvvvptms+m4sr7Dbxz7+1v6ohKlmN68uU7YhnHkvDxjwIraQalgjjiMSCLHaw+EJGk2uPD8C7jyyitRFpKowc0334zOC4Sxtdzk7t2762hp06ZNHDx4sC697nQ67Nq1izRNGRsbY3FxkW3bttU8/a997Ws1T1hKp3G9ZfNmt5lnGWcePOhoccMhe/buIhsOOXbihFNrNIZAeEVdYwmioC4GMbiu4t3xMWZmZmg3mjRaTbbt2M6xY8cwZYEpV6mmFa21SrDdfffdvGZ2lm63Wzt1wrrKPCXxUEJJSEAzneEV5+7k9oePUdiSUjsnSODbQ+GYQ/+smG/FXNhoWGvZv3+/A/LTlE4jXtULEGt7fknlQoebb765Ni4V1FB9l1Mpcyd34OBBh4n69j+VolGFi4LzlHMfFmRpSu6rxMbHxxkbG+Pee+9lZaXP5OQk2fFjPP744yS+7XV7rMv8/DyUusaWqoq2Xq/HcDjkyJEjNf83TVMee+yxOhFQbRiHDx+uq+h6vZ6T4BOCY8eOMD8/X3vsSyvLPPnkk1xwwQXs3LmThx56iMFg4ATlR3DL6ppXehJJktDr9Wi3He9wcnKS2dlZl6zxBrvSsqiSCMYYvvzlL3PDDTcQ+1Cs8nQrI1yFcMov0rPOOot7D38eFfnwuMicwm2F4StZ43mNRgNdWkzpOki4BoxuGq7h0kKNqTOSLe52u2jfZqrqxTbKxgiCgNKzXxCrHW/d5Fe115/nOSWWVruNLnMkqwkqpcJ6XlVeZ3VtlFKYwj3W3sCE0t3XxZl5tNZs7jhN5myljwgT2pNb6w4Ms7OzlPgmkN6z1Na68t/MeWZ7ztrD9PQ0Inel5kG4WuRTecCjWhaf//znV/uWedphdY6jmihTU1OcfvrpZEVen1cVsSwvL6/RVAiCgHTgHBXdbJEkCeefe95qU1gLGIfd9vt9duzYgRWrnbdHMdgKrsrznF6vV3uOc3NzdRKu0gCp+PQVNl3RQWuHxXv0SilW+inT09NMbdrEfffdh7WrOixJkjD0UcPMzIyL5Pw1bLfb9Vw766yzmJ+fd+yokUjCcXpXtU6OHDnCzTffzBvf+EbHCJESpZw2hmS1slUI5wju3r2bbvdBFlb65F4/Q3imhjyVUXyeY2PPF69R6b9bef5hZRSMv+EhJW055JL9m5Bpj2aiyFK3MLEBmdZESQylYxo0Gi1uuukmjp5wEnqYss7Yl6WroLIC+oMBU1NTdRhvvBGvVJCqSprKQ60mc9ztMjdIufjCi3jpFS8mz0uUCBjvjtUTaPdpuxifnHCL3UIzdrBCFEUMBoNa1GfFt3gZHx+vEwmdToc9e/bUYupBEHD8+HHOPusQY2Njda8qIVxb+GbzDOARul2XZe62O5x18EwO7D+D0/fuY9uWrW4jilcxvSqZU5Yl4+Pjdav5ht8whBB0xsZotFqsLDmR7ko0vaIhVSHZzMwMd911F9e84hUsLS2tocpUw5HY3bhy/zS3dSxP5pooUiBCrNCU1oCSWCSltkSBQhc5VkhsIAFDZgyxda0PijpH4HvB6QYKgRAlaE0RQmpzlJUoC0oUYMFY1xbdhA1ycBibF+pRVpLY1FFtfI85YVKwAQPZdv38bFqflxQgrd+gRYiKGugyBauZ4CT5MGeludPBFMUSrSBkfGIHg6JkSU1S2pKwv0xRaNKwSytqkfcXaUWClaLBsJSEwuF/SljnMZFQaEuoBKIsuGxHxFh5ktLLbEfCABpb5ERhyEruNs0kDnjiiSe4/fbb67lWFSc4z9EV0UQ+U3/a7l0sLi8hw4C8cDBdRcmsChSqSCwbpuTDlGwwJG9mnL53H6Ysuf+hhzClo2zawv7/qfvzMMmyq7wb/e0zxpwZOWdlDVlzV/XcrdaIAE1YIMkY2ciALdvImCuuMZjBxsafr7GN/eEH7rU+4esPg41tbIxAGIOxEEJCg5Fa3eq5u6prnrJyHmOOONPe94999o7I6pYQ6hY89zxPP11ZlZkRcc7ea6/1rne9L7dv3wb0mO9gMOD20pLW0c7LdTMibKqxpaUlO3lqGt6rq6tWdCpJEpaXl3XfpNFk6eYt2yBuNBpkWUa3rWHDZrvB0s1bnD5zF0ePHOH8hQt0Ox2KokKSaBF9P/eWM8HbUOMG2YBCEJJEMTNzc3T7fXv4OnnQB8dWeaVSiS9+8Yu84x3vsLKxUqY4ehnnDVCHLEsoCqh6Hd541wH+52efoFipEWfKJhFpEuW//2vTd/iqMt+X47EJocvE2dlZ3czyFUqmNtsx35MkCX4euLMs46mnnrLjiiYYmPLAC3yb6c3OzlodAdc1Bo/eCKfStZixEMLiTSdPnuTNb34zMh5mg+Wcb2hea2xsjDAMIecaVyoVqwlgAl+9rgcLpqamGB8ft1jk7du3LYdWSsnCwgL1et2e7PV6nRMnTlgIYGdnh7GxMYwUnsloXNfl9a9/PWtra1y+fZNqtUqSpfbzVatVmxkZIZ3Q09nMIOvrMeJeTy/+XERm1KXDZI+f/exnef0b3mD/zuLwDHF4834qlQpzc3MsLXVzXFLsG1j5/9fLZFGO4yCz1Da4GvnakVJaDZFRnec0d5AoTUzoMnbQyze/vicZGY6SuDn1SKgc+1Vao+Duu+/Og4B+H2atKmngn6Hi15NPPmnXvsE4TcKQZdL+nZnUEkLgmRH6ONrXOzCUs35X61RXipoH/653vYtjx3TwnZmZscEsdHUWfOiQpo71ej1tiDk1RbFYZHJykosXLzI5OWn7KwsLC/bnAer1OuPj4xaTNQyhMAxxhfY+nJ6eRikNaywtLXHkyBE9yTaueyb33HOP1sCenOSzn/2s3qNo+LFSqbC5uWkPJCBnSuix6EDovbe2tkav08kz8TDnNg+1ZOI4Zm1tjSeffJK3vOUtmkf8FS6lFCdPniR49DmtqxwUiZKhY8jXyvGFLxN8tZ/XS/8+EwKBb108A9njocVjzBRdiDoomWjrjkwh89FFpbQPUiEMuX37FleuXMJ1PFzHw8t5wHE6bB6laUqlVtP6nT0NumcDHeiiJN4ncg7YiZ243aNWKhH6Aa09TfkJ8xLzypUrTE1NUaqUWVlbpdFqUq/XqeXZ6sWLFzl9+rSFHgyP1wQnIw2plLKGmsYQU/MEU1KZcf78eXzft+plhjOcRDFr29u225tEsTULHKvWqBRLdFtt/EKoCeDCIY0TEjEctUzTlH5OhZFRwvT0NIPBgI2NDf3M8o06yuGtVqvcunWLpaUljh8//hJ5PIMjJ/hI5TLj9XhwocSTN5uITOG4Ihep2k+lcXU/H60DBk6+HmLTOMwxbqN7mhkqT/7z5vuVgFQMHQIc4lxLWH/tG51hN9MQlnUSyO3ulQMCqlkjf/3cySN3GBi4xfx19IFWc1OUq4icEoNUUWOHYqHIwKkwiGOybsTYWIHpgqKQZKh+Lo7Tb1p4C8D1c5NXHFA+KndDFo7+nGmvwevPHuT4OAwGfRIKuQBGQsHzSdVwlNn0GJ544gmbVZphCjskk7swu47D7OwsXs56SGVGmqVDHnCS4jkuUmR4jksp1Ly/TqvNvXffw12nTll+eLlYolap2vHeQqHA2NgYSZJw8OBBNjY2NIyYi0nNzMxYWME0Uet1XUHGsXYWgaFF0PHjxy0FczAYMFYft1WkgSlMBdtb7lAplfXkXX/A61/7Wna2trh680Y+gSYZ9Po28x41GxgbG0OmGXGW4RYCZmZmuJXz6o2YkMr0IBZ5szlNU5579lm+8Ru/Md8DeRIic9M64QAKR0Y4QnL3gTHuOVDjmdUGMhvuMci5+c7XOfMdzZLIXWZ93+fEiRN6gWSZxUDMKePkalVIHSxfeOEFGo0G1fFper0e9ck67XZ7H/FZSsn8/LzGoOKB1S415YfJxIzSfqFQIHVcAuFy+vRp9vb26OUZ4aWVFTqdDqdOnLR0mY2NDc6cOQNg6TAz09Osrq5aiclOp8OlS5csnmWoZEoplpeX93WjldI6roYPubq6Sq1Wsy6wly9fxnNcxsfHKZfLXLx4kU7nADs7O3aBnj59mueee85KEZoRY9cfkutLpZJd2N2ePhympqZ0V1h4NtsxOJ3hRnY6HZ577jlOnDixb77+zmebZRnSkRw6dAjP29r/HF8l4dE/y8tCW0ohPI2pTk6Na08+b4Jut0tjb4dGo0GtVqNardJP+/rgTXLthxxDVPmhJWU+WppjyDDU4j1x4oQOdAzvsdlD5tCTSovyX754mZs3b9pkwXyvWetuToWamJi0wctxHBzP3acCFni+Paz39vYohVqPpJ4PQVy/fp0kSaiWK9y4cYNqtZoLSPncunWLra0tDh7UFlFmrUup3+Pa2hqVWpV6vW7X/NLSktUkuXr1Kvfccw9xrLndUko7qXbjxg0mJiZYW1uj2+1aMfalpSWyLGNnZ4ssy9jOExQjjgVaHsCM5ZtmntHRTlOtvZLGQ0flsbExzffv9S0TCjfvixQLFru+fPkyu7u7udLgy1f35tkFQcDBgwd5ankXLz8EgVdcEb585qvIRs1llHDyybZAsx+ERKUDFsYkx2YKkI8/IrS1pnJChDKiLi7IGAefp596gkJQtCRtM32TDjRGlfV6uK7LxMSE/XCmLPR9nyDxCf3ABmnP0T5UbipZXFzkda95Hc899xwHDhxACMGRI0c4f/48R48fI0kSZuZmKRaLzMzMWEFo8kB38qQO0E899RQzMzPWGXliYoLFxUUbuLa2tjh06JCdeltdXeXhhx+2Aw7Ly8vcddddVm4vyzIOHzxkMeJut8vRo0e4++67SZKETqfD6XvvRmWS5154nlq5QrPTthN0ruvSoWNLHMdxKJZLhGFIVdVIZWbV16Iosh5zBh+uVCqcO3eOd7/73S+7sEwDQSmFm0WcmnCZqbjstbU2hVYv3U+qyfDzdZKL+zDQJpnSBTwiN0OKnLEAlBONvQ7c0GoHA1RjHZwa/jgAxSxB20XkE5V5H9lmuqZ8z99HYDJwm3FL3Wtwivver5vFhJ5HhuZne45HbayGT0prcweZrDM5OUlQK9LqDYi6LYrVcdLyDInoUUl3QEDkaCeUYqQrmp5XJUMBLq7j40gdBBaKCScnikiVNwbRyYdwPWIFOL5mk6QRoVfg/PnzFkpzXZdSQQdUcigrLGo1u6mpKZ2oJHpkvjvo61cXDr6rt3K/3yeNYnzHJR5ElIslzt51F1Gk/7y6t8rG2jrdbpcTx44jhGB1fYMoibnv1P1IqTWo1zbWOXr0KNu7O7q5lsTcvHmTpaUlAJtkmOm5LMt4+umnKZVK1m5reXmZsbExyuUyt2/fJjyhxXfazRbnz5+3AlXlYsjly5e5deOmlna8927q9TpveN3r+cIXvgAKol6fRGbUajWCHPooBCGVUpmsKG0PqOgFzMzNsr68ot2e0wzHH9IrjWzr3t4eTz31FO985zvp9AcoBcg8qOa9BiW1f3ElabBYlZAkeGWHONN8ad/VZqdfK/DwJ9Z2MCdElmV6frtUgoHOSDOZ5RlvPtKqpD05TJYZxzGlsbJV8IJhEJBSe01VKhU70WNwstGSx/ydKStKrs8DDzxgO7bdbpcwDK2qvmkKmHKl3W7bsm5vb4+xsTFb4hkXCaPxsLe3Z/G3JEmYmJhgfn7eNsY8T5PZTSZuhhjsXLoJAPnrmYdv/K82NjY4efcZHnnkETa2NrX+al4F6Kmpjg3cMDyQ0lT7ws3MzLB6c3nfkIr5DOZkXllZYXt7m6mpKXvvzO8ZVZySUrsBzM/Ps7l7ES+fwZevsKv7Z32ZzB6GmsG1Wo1eR/uEzUxOaqZAu0OU674qt0c/HSrPjTJEAIvxK6VpeFmWIXISfrFYZH5+Hik1RinVUC3McJlBr4lOp8NTTz21j3PtkA9F5FjlIO4TBAGzs3oSb5DpZMU8617u4Wfwz7SgseN4EPHII4/wwH338fzzzzM1NcXExARxHHPp0iUm8wm06piuAOr1OlmWMT8/T6PR0JrZs7N4nseXvvQlTpw4YbVvp6enOXr0qA28jUaDu+++2677vb09jS9Lyc7ODtPT0xw4cEAfXnlGfuTIEfr9PtPT0zQaDRZzTn+7r/fV3ffeS7vd5oXz55idnWVrd8fqcJv7KaVEOMMZAkOLW19esZWOqZRLlbJtzoOm9r3jHe/YF9fuXDeA5UCPj9+gGUXgBvmzl+Ybv6Z1+bLB1wHpjGhUGplXhRmFlPhZyuGpMoUsQghFloGUIIRrMT+TPfuey7WrV2ju7hAUfNJUEoZFVKLHaLP8BXzf1+ONeelkym/H0b5RhjCexbmraZwwoMeRIyfY29pjfXWDTrvNpUuXrPvv9va2pWD5vs+FixeZm9XCITNT0/iuZ10oRgVIrly5Qr/f5+bNmxYDTtNUU4xGZSnVUGzGMA4Arly5wvr6upYz7PXthltZWbHBMcsSut0u555/Xr9fx2XQ6+M7Lo2dXRzfs752RphaSqk5ifkCLJX0lJJx6YDh+LBpJEWxzloOHDhg+cz7LpVp6x9SPNfjrsVpXnj+WTwc9L/kmWe+JlKRN0JyNsFATGqpAldnrsVUalxX6Aw08lt6PSiBp6CUq/T1PX2viqqFk1vMoyDJN5MU5lXz9WSwYoP3G5flHHNTeCDAU1GeiRvxE30vQk+vyZ6UqCgiLIxTqfq0o0Eu/6gP/2jQJxt0ENIh8Av0hIaUCqoFAvqOHoOWUq9RnBBy2M1XGcfrunrodMuUHYmfdhEIEkooN9RmpLhUPMm1a9dYW1vTlC6GtDiztpRUBEHI9PQ0ONomSKKsm7bjOASuhyccsli/n267QxonzM3McP+999rkZn19nTAMCf3AYqK+75Nkku1tPa03MzNj95oJXAZeMyO9JpnqtnXDK8qb2GYk2FDLzDozMIM5BButpnW0KJSKDPo9K125tbWlJVo7OnG55557uHDpooVWXFc7ZkipUGlGoaKHTEb7GeVymWq1qm29sgylhjKSZgDD8zyuXr1Kp9PBz3WJjT2WQme8qXC0Jk024PRswOKRgzz5/BX8op9bN+Vsnj9N92JDNxsbG7NkY5M9ua5LooywxfBnDKe1Mj5JIvWAQil3fDBTKcUgYHJy0t4k5Qw71Sa7DMMQpLInfRiGPPLII3oirrHH0aNHOXX6tKaydLtsb2/brqwRWV88coTbt2/z7LPPsr6+jh8G3L59m7GxMba2tjhx4gTj4+MEQUCtVrN6ASb7LRQKhGFIp9Ph+eefZ2VlhWpVm2RubW2xs7PDoUOHeMMb3sDFixdZWFiwTra1Wo35+fmcrqZnyPuJVlGrT06yu7vLbmOPWq1GP46sM+yw850R55tMz+VPsLm8Tr/fp1Kp2FPeHFq+7xPlDRFDRXJGMCtz4o+e/PPz87YETlL5qplN/VldUmpfvfGq9gUsZsJyVM1EFuhNWyqViHOLc89x8+bY8N6MZkMiJ++nSUYpDOn3uzhKcfz4cavBnA7a9ugyQdXcd8dxWF5eHnJh8ylCAyMZfWrHdZiYmLDNYOVp9oA70kAyB7Rptprs7sUXX2QwGLC5uYnn6EGc3e0dq97VarVotNpsb2/bseCzZ8+ilNYU8fNpxF6vx+bmJrdv3yZNU27duoWDplS2Om12d3e5ePGi7UtsbW0xPq5NCMz7Mr2Ufr9Pq9Wy31MOA65cuUIjH36KEs1I8M+ds3De9evXkQL29vbwhGO50O122w4hDQYDMsezbKkkSYjoo/LKw7CnjBt0s9lkbW2NI8eOf9m1o+OP3mtTU1OE4RJJXg0Z7vXXAXaQpPkvD7Oc5C40iB2nGU6lwr2TJdws0g1Cz82tviWeSIaUMAcGmcf6ThuvUEUIF9/JSOIBmVcilRkqinW5VR/HLRXIUPiVIkGq1fMTqYWUZa74pSdmfFqNJncdO8HcAQ0DmHl213FAKcqlErVqlUMHD1pMLctB+kO5jbZ3/jxHjhxhcnLSZryG+QD61D548KA9MVutFhMTE4yPj5MkCa1WizNnzlhY5PLly5qakh8svq9dYo+Ma9w4yVJKlbKe9lMO5WoNum3mZ+eI04SjR47QaDRwhUOtXLHZeKVSscMn+mcV0hWEXojjCVKZ0O62NFXK1YvMfOZSsci5F16g/W3fhu95JCNiJ6MQjnIDoqzACb/JkbDLFTWFzPWbXZXiGrRV6RNf5hWOl2fAZhVmtvLJMwMZ7ltZcR7M3ZF+hUIzH2CU1aD/72dJnpnkh27ukybyQOaiS/bQz6UFBeC6xFFiaXpBIWRlXTNDJicnKRZ8dpu7TE5OkrlDE8xWr0+sBFkmgRTPkah8CiQlBAWOyvR5JAEpCVxFnHRwXQdH+NwzX6GYdrUioFDEIm8oK4nIIsidJxyvxNXrS5o3ihYl73d7lmLl+B69aECpUKZUq5I5oDyd4FSrVZJ835imbOhrq6vdNOPw4cO8421vp1AocO3aDc6cPsvJkyfJsozNzU3Onz/P1MwsM3PaiuvatWvcf//9LC0taTnU9XWMoI4QgkajweHDh5menrZJyMzcrM6+PZfr169z5swZHMdhbW2NlZUVyuUyvV7Pjie3Wi2OHDlCqVTi4sWLPPjgg9rJRUoOHzvOsWPHKBQKlIslvvSlL+Hh8sA993Ps8BH+R6NFL460xKbU2hJxlhIILHVVKIjShKIoUqxW6A0GxFmCnycSRoLAHH4yy7hx/TonT5xlEA9wHZ1BZ0L7yXnKRyiHUGhRnaOFHn+U7JAVprSOsMwB36/Rxu2rynyHkziZPfENfjR63YmdGFym0Wiwvr6uF3B+yo/KG7o5nmkwXoM1xome8HLyoGqyASG0FqnBRldWVizm2W63qVQqNBoNut2uPXnN5Fez2bSOqMa1wmw8M4EDmgZk4I6mGWbIOaCGPzxK7TI0tVKpZP/dQBOu67K1tWUrhfX1dYvPaWU2n7W1NZrtloU9BoOBnSgzJVyWN/DM7/Z9H1+4FsbwRjKh0ZPZYHJ7e3t285ig67quDZrKdVFKT5/V63XkrtFF/fo5uH41l4FQDMXw5QZFgiAgifUIuFHJM6PrlUrFwjYG1zSaDBsbG/iFsqXzmWGCO1/jq71M9gz794NZT2b/mKEesxZ083foTp1lGRnKvn9dyrtW1Amwa1ImGv/3HNd+jmPHjrGwsKDVxfIJTZNtm8N8ZmZGT/DlrIxOp8PCwgLz8/OkacqDDz5oGQaTk5MsLCzk+sotu3dGNUVMZWl6L/fdd5+dZDPBOcsy28cQQljOfbfbtQaxRnekWCzm+8nn6NGjvHDhRftvY2NjtHtdG4w9z7OVcOAHViGx3+9DPk0Y5CwXwFaRL7zwAm996ztzuCeHtSw7BZRUpJnGjo8dO0ax+DSp45JleaLpeXnT9WtY1y/3l1LgSJFjbErlPEM1pGSkGfVqlXKpRBz3cf3h6OPoZTZ3t9ul0WhQLBZtkDNlgOd5RP0eIl9IvV6PUBVsA0sIQb8ZWSv5drtN4PuMlSqUgpCVlRVOnz7D5uYmjuOwt7dnRx1v375tT1ZzGRaAaYadO3eOu+++23Zpr1+/boPYYDDQ4s+5boLruqytrVlcrlAosL6+jhB65LPT6XDjxg0r/FEsFlleXqbRaFiRl9XVVY4ePWo5uOvr60xN1NnyPBaPHaXTaluYpNvW04Lt3nA4w0AyhUKBJIpp5yW1oR95nodMh4thNINvtVrM5PP15tnEcYyjzMBLxiDpU6rUqI+Pkax28IpFhJAI5YDI9TpeqaLIn/AyeL0JwqMCPEIIfMdBpon9Wim57xAyG3ZyegopJY1Wk0xJygUtPGMO9iG1zrEHl7lXX+kya1/JlMlqxRqlGkrmsH/i2NcRQrC1tbVvPQmGGgRKKZJ0KBBuMjVzyBvBGUOx6nQ6CDUcS282mzzzzDO5FGrXit2022263S6dToeNjQ2Lz5p7aoK3EUoyDWJzH5rNpu2hbG9vA9hDzTCYCgVtgmB6Kdvb2/sstUwD3EyDGnjQNJjHa2OWRXH58mXSNLZDMECuujcUhlJieLhlWaan3goFisWiNSAwa2MUi3Ych93dXaJYjzlnSX7oqhRHOXYteXmFVa2UGC8HbO72qVTGiZKvbL/1x11fNeZrApjneXR7A3uS6vJpP4fRXCb7MvPw5XLZLhZzmU3k+z7j4+M2WwyCAHKvrLEJ3fDo9Ht66qZQIBvEHF08xsTEBAsLCxw9epTV1VWrvh/HMYuLi1y6dMmqikVRxPPPP8/4+Lg9tY8ePcrJkycxQuTNZtO6WDSbWpTaSEqaYBWGoRXb8X2farXK9PQ0c3Nz2jI8V/Uvl8tsbm5y+vTp3JFAB4OTJ09qScCpKb35spTFxUXa3Y7OFop6Br02rodAUiW1ESJYSpmRztPeV3WWl5eteywj9t/msIvjWMMZeUNwNBNzHWFxfCmH025C6ObcnzXXwbxnEwDMIWPWkTlQzfcZA9Q0jmzVMzExYXncRjNgbGyM7e1tkpzqaHoWJuj+SS8zEh6GIUlvgOsN98LoVKHMn8vW1ha9Xg/H1QHByZXOTFKi4mH10u12yRxs6ez7PkLpgynKG2Khrxtex44do9vtMjMzYwOtaWYbrvm1a9dYXFykWCxy7do1VldX2d7eplqtWhzc3IuNjQ37utvb2zQaDTodzbAolUo0m01u3LjB6uoqCwsL+L7PxsYGzz77rNXbvnjxov39/X6fa9eu0e/3OXToENvb2+zt7XH48GEtChQnWkGNei4xoIOoMaINwlAfIp22zviD/KDoaZw9cD1Ld3MchyCXmpSpsoMspgkYx9riq16vk6UjOO7I4WkqGNfL1QYd3VMpFou6QvVfzSELO3EkUQxFu3H0mxNKMlMNcIS0hOMvdwkh2NnZ2WdnYspec4IbSMAtBFYFyfM8yE/3KL+phTDEzUv8LB8BNh1fU55du3aNw4cP24BjbMTNUMj8/LwdiKjX65byBdoOfXt7m7m5OTue2+12bcZuNmepVLKNwenpacsLllJSKpVsw0pKyczMjIVYTAA3D9ic3FMTdStWUygUmJuZ4ca1a4TlkoUTRkvvURU4x3HwchqdWVBpku1rrBlK0+bmpr2/Jri4rouj8k60TPGVg0oiyqGH5+psTgiFEozwffezD/40LnNo+75PkkakWTyEfjBrKrE6HVEUUc478M1mU1MK6xPguPYe7Ow1iJKhJgYMm5Bm436149WuBJnFzI75+AIilQKePbzMuh/NwPaaDTIlCfNDw8ANo++lUNA+aoVCAeU5ln9eKBQQSmtA7Ay06LnR611cXGRiYoJarcbU1BS+G1hhdKUUr3vd65ifn7fjxNVqlbm5OY4cOWLNLxuNBqdOnSJJEhYWFtja2mJ+fp5jx45x+fJlkiThwQcftHtXKcXRo0ct1BPHMadOnaJWq9kk7fDhwzZjr1arPPLII8RxzPT0tE2+XNfFFVqXeHJ6KucSJ9x9991UVpZZWlqycMvc+Jg+KFG6JyL1/wNX75eZmRmdgedj49EgtvvCjNvv7e1ZM1BHaLcdlemMVyEQDsR5BVJyMhYmJzi/sUmWJdqHUqiv0bv4T5D5mhPb4G4GOxyFG+7kypmvl5aWbNlsFr5Z3CbrNTPtRrcUsD9jThiD+WZZhpMpG4yWlpbY2trSOB6wublJp9Ox025DfVrXajmYkiPLMi1Fly90KTXtRillGwWjtJtut2u71OPj43Q6HVqtloVITICr1+uEYUiz2bTNuEKhwO7uLl/84hdZWFiwZoQXXzzP9PQ0UzPTbG5uInItC4ONmVLTBAbL+sg3aJxvxl4+pII31L8YrTRMyTh6mpvfYQK1eQZm9NNMWP1ZXibTM/dCKWVlF01gNJN9Sunpq263S7VcsplcHMdDce+cSgXGXHREe5phNfbVwg4GHxRCWNGl0UzXPAvb4PQ9223Xny3fvqaxl0NFd3KC3Xys+M7XNp1/w5Iw3HbzWfv9PhsbG5w4ddK+ZrVa3dcnMDSx6elpq29i9qjxVavVanieR7VaZW9vz9K7TO/FeA4CVCoVKwZluM/T09MWVzd7zdxrwOoU2ziQQw9h6NtKUlfaGlYcUkCTYb/I8xC5m3ISDqmXmo88NBMwjdhut8vm5ianTp2y30t+mBsPSsSQF68dN5at2L3ruq9u8FUCV+GQM9+svi455SJwFLMVD5UmCJm95NfcubHb7fa+B2xKRBNABgNJWCxAJulHA+2LlGX0+z3GShW7GBJk3s33KBVCapWqbbDNzs6yu7tLq9UiyClrpVKJy5cvWw1ePcq4YzHVYrHIlStXmJ+ft5vWZOmm0WC6w/1+357ag8GAlZUVq98wmZP0zWHguq7Fgk0jwTQAqtUqCwvafsZ1XQ4fPkwxDKjX65ayMzUzrfVZI62d2mq1CFwN7BsqkcGVZaSl8IwaluM4OL5rT3iz4Q053gRxI/enJwV1hufj6JIYxWy9rjNf9WcNOkAQejiOIIn0YRwEAfWxcWtT7iIoFUtMTU3RarXotrTCV5SkuIOI2nhdd8cNBStveEWDBJHLVZprNBiY4DsqFvVyl1IKhMQTipmKi8pStBK2YX0kuQZsDs2hyNKE3d0GMExEHHeYbQNkqNwCPX/WibAJQRAEkAv0GCxUa0mnrKysUCqVrDbw3k6DjY0NvviFRzV85QguXbrE7OzsPtpbsVik3+9z/vx55ufn6Xa79hDe2tqiXtdyAEZRzNxTx9GZ6traGr1ej0KhwJUrVyxU1u/3eeaZZ9jd3WVxcRHXdbl58ybb29vWnqnVag0ZCXHCrVu3OJ4meR+oY+VV+/0+nZ6Gw7IcXgsKoR1b1vtQB1sDdZIHec/R8cj0TUw/YGdnm9Hz1THPX6aAwPV9Bt0uFVfiZgm+H5JlisBBN6PF1+ZJ8SdWNRsNnGmqxWEQL79JRzE5kzGbDT/KEjD4SbFYBN8lyP2nZJYxNjY2ZCr0Ovm4sj7dDx8+zPr6ug1+1WqV9fV16weVZRmTk5NMT09b1oMpnUazkcnJSavGpJTi7rvvtgHU4FImgBnvK2MM2Ov1OHHihC3719bWOHLkiIUonn76aYvvZllmR0RN9r2yssL0pGZcmAU/OT2l+ZAjUnqlUolUDU08TYdZBSki52QavVXfDazCmd3I+eeHoaWQ+UykekpJCUjTDOEOP6frun/mmO9oOa7J7YmdPCwUCkS5Xm2rpaU3x8bG8pl/HbQmJiZs9mYuXc2IfVkuDAMuYF/vj4MddPAduo1Ime37naPB2/M8VN4UMzKQllmh9sMegBWSSdOUTKa2GkzTFJV3243JZKlQtH6HhvFQq9VYXlphZmbGYr7bu9of7uzZs/beGijBdV3uv/9+zp07x9mzZ20GbEScTJLT7/dpNBr2fZrESkrJjRs3bOPQjP3Ozs5y8OBBQGf0c3NznD171vZVdnZ2mJ+f1829nMl0+PDhnIvc4Pz580xMTOjJ00Tv7d1mg3K5bHnEtVpNc5NzaMlICBhGBkLHIrO2TQA2Veto30oIgcz0s01ypwsppdXxNs/rlVxfXs8XF1clKOVgTmcpFFIpQhfcWI8AxnGMizdCzxjK95lAYU7q0TIKsCXJqLWNK4ZjsaPdZyGGAw5plmg9YPRiNYsgyzKb/ZoT1ZTZ5neYADvatDELfnioDLvkppQxm39nZ4fx8XGroWBoQCbzNb/LfP8oq8CUhyYjNaLcE+NjOI5Du6sNOr1Ai3rvNBv7uvBGjHu0KaD5jcqOu44uHtPxdxzH0t9GJ4HM/XENDCG0Y7HnQBx1KAUeg1Ta8Un1dZq2+HKwlf13Q4UbyUTN4VKv12koPcnXaO7huHrqr9/voxxhG436F+Wz+ErzahEvDyuMfv3V4L1CCBIFdVdRctMhK8gxPORcOD2nVDpK4giHZquF4w4HKszwkNlXicxs8A3DEHzXDhyVy2VEHqxlovsdWU45m56ept1uMzExQZZlVozn+PHjNvkJgsBCDEY34tChQ7aUXl9fz62bCjZ5OnLkiP23qakpjh8/bkt/Q/WamZlhZmaGOI7taLLZIwcPHrT73ezZqampfaP4SmnFNDPIBJqXffDgQcJyieeeew7AygcUCgWcVA+n7O3sahfydMh7NmtGe9jp6tcMLZnn3B10yRhx3hG5FRHaTxEhSNOMwFWUsi6eGyBwGaqa/bFL5GWvV8W9GHjJAh69Rhew4a0a/FeXAMNyGpXhjeB7rVbLBrTOQN80z3FpNBpcuHCBRqNBmpcZ5kabjqzpZD777LPMzWkXguXlZaampqzosynZTEluJtTM+9ze3t5n4rexsUGj0WBlZQXAwhyGt7m9vW3dh43j8draGlNT2rF1a2uLra0tu6mazaYdOc6U5NKlS3R6wxLK0H2iKIIcC+7ngtGe56GSlCSfrzcbIPCGk4OmurjzIBs9LO9kqMBQGvBP4/rjeLWuOzz8zGFixr3b7bYOwI2GzX5r1THtLdbYszQpfb2Uh/5qXubwdt30ZX/36H03eKaUEjdvWEm1X2/ZNJYgh0NGGnNxHOMgLJyW5FKkJhBKKdnY2NAQQYbdE6YxLISwTg6GnhbHMYOBnu4zwk7mkOt2u9p1Jc+09/b2rLecUspOdUa5WaZhFZh+hYFPzPs12K6ZRDXJS5IkLG/vsLu7y0Quyeo4emLucPXovoa1SR4M7AF5/yJfS0mc2Kk2x3FwcPdVg+aZmAPJXHZvsL9JavaUeU3zjF5VzFcKXO1kn4IKkEIi8FFoGTxXJLhKIoWPFM5LBjzMmx0t5czXppQ1ZGeTjZmsLU1TyLvBxWKR0A9td7KQDkuMiYkJJiYmtLfUmbM2QBnQfnZ2lps3b3L48GE9DZRLLprS0DRGXnjhBTv8UCwW8X1N6J6YmODSpUucPn2a+fl5mzGPj4+zvb3NXXfdRb/f56mnnrK/32C8x48ft4svDEPm5uZwHId7772Xzc1N9vb2OHv2LI7jcOjQIRwUtVoNP8zNAtPENo+klNTq45ZaZg4tk0X3k4havrBNNi1yse/RhpGly7guKteAsItN5DoCoJ85UPQDnaEpiRQvj3mKfNm92hmxCUAGexsMNKXPEw6uK3R2WwhJU5der0vgOIR+YJs5jXaLer1u4QdpiclfHwBF5Qhv6KSUfRejyiYRWhHwjqa0IzSHdzCIgaELiSndDfYZ5+R+Y9kjAs8GSs/zcPLg0Gpp/ep+t8fY2BhCqeFnl5JWo02pVKLdbtNoNNjOBWpu375t+yBGe9qssytXrtjKr91us7S0ZBkCN2/epFwuc+vWLTtG3e12efHFF5mdnaXX63Hp0qV9VvDr6+scP67HeJMk4ebNm/R6PcrlMp7n8fTTT3P8+HHNbkhSO6qvDx/dN3r00UeJ45hms6mz/1rVDiNFUcSgp3s0bo59mwakSXTcEWzWVMR66jRG6o4Ko8PCQmgMIFGCTHj4UjJb8nEcD8fxkCrmlYy4vWqZL7xUtxSG2cUo9mj+b/A0c5KEYUgh8HBMU85xcHMlKpN5Gm0Hs9FMFjuaIbjuUKjZcRxb9hjA3jQaGo2Gbt7kotCmRDOTOqYsMyWO7/vs7u4yNzdn8cDp6WnK5bLNKHZ3d3Ech/HxcdIRwRHTra/VahYWMVmDwQvTVDsM7DY0I8NwiNORyZtRqozJft1suLlNBmG+1wTcO5/H6DMbvUaD9J/WZdbGl8tKCwVtsyQzLXzjB5593lmmR02np6cRrkO73SbJpLU1z7IM7jg8Xu2Md/QahbruTD7u/PMo5DHKarHVSs6gMKLk+K5d06VSycIxpp9QKZWZmppicXGRSqXC1MQkAI1dPaFpKJaDOLKNr3a7zYEDB+h0OnYdmz6MkWY1FZPh4bquy+TkJOPj47YfY8TXjx8/TrPZZDAYcM8999jqcnNz0wr6m2TL9EaCIOCRRx6h1Wppt3I/0PuwUmZiYgLH0ZjyIE30uHKkBz9EPvHXG2hdE9/VSQn58zfv1WTcnjMc0Blda6PMlJf7eznyHM0U3ui/v6rCOgrc/VNMDkoJMsfVs/4yA5GgKGl8eCSzHV1w8NJmwyjGa+hlrqtPqla3gzvQs+KOoz2oYtfVnf4so9XXnFuZamnGwWCgJ1hybM14TR04cIDbt28jpdbbrVarrK2t2bLUcRwrPbm1tcXFixfxPM9yYYUQVmh5bW2NTqdjhcqfe+45K6UXBAFbW1t2omhycpL19XXK5TJLS0t2iMIcSJOTk2xtbVEsFjl37hwzMzO5EWZ+3/MgnGQZW3k24vs+vWhgN6A5RCwDJElwksxCEa7rEnjBS6hOpmwf7W5bmlauP6ddlocZgSJDCO2BZd7f1+OyTgJqmKXrhoZRi9PvqVYpE4S+hZRKpZLmhgrdjZ+anqFULLPb1BCEwslx3v2bRX+ukQ+jXlnmngkv5zZIPJXobFc41sHDbLIMhXKGrztaugK5Atf+A8g8J8/zrJCOxb6FTkwyJ7G/z1C0jPi+ed6G3eK6LmPVGlF/QLFcsnZZRru61+vZNWqoY4YTb76vXC6zvb1th5HM8MXi4qI99MznMuPDo/0SU7mavzfJRLlctuPIURRRHavZ51ar1Rjs7uzrJQWBbymiozRB3xsad472XkbXwGigtVAcgPKsk8VwvfsoEjypFfPiNAPHxc8NbL+u7sVfy2UCsrmxaTp0KR5tSo3+VwlDbd/jmjHBvj2lwjAklKnVKTWn8/b2NkkmbSA3472VSoWxsTHOnz+PEFp9qV6vs76+Tq/XY3p62jpJLCwsWEvsfr/Pvffeaxt3/X7fKpwZ76rp6WnrVvG5z32OSqWiT+ww1I2BvAwDLD9ZSq3psL6+zsGDB6lUKly4cIFWq8XZu7Qld7ff0yd7EltGg250DmfRTWZrK4VCgajVsc0+g6ONduzNSK7Jvu/Ee+88MGHIsTaZ+dfzGt0Q5mulFKj9gcM47iZJYtklpuw1gwHm3/Smc+zn3/f72Z+BvhrXaDZrhzbES3nw5n4PmRHDpq6hMhp3iEG+DrJuLoWY6SBrGkYG823s7FIul4nyinBtbQ3P89ja2NRjvDsN0jRldnaWOI4txLB47KhNNlZXV22fYWlpiU6nYylloLnzRiSnVCqxs7ODEMJSy57PZVGNOWaj0eD69etsbm5apsnq6ipra2vU63Vu3LjB0aNH6ff7zMzMcP36dSYnJzl37hy1SpWdnR0ypYV9wvzA3dndse8hTVOauV6K4+lqQyjNYukMtDaK57gWvw6CwMJxo0kIsC8uGXLBKPPBGgm7Q9fsV2PtfMXg6ypFavmKIyB1vh8Vw2xodCOPZsAm8JkT2fz96MlkGgaQZwM55ht6vk3zTaniui6FUpEk0yD+gQMHmJmbt+VEFEUcOnSIUqlEt9tlfn6e++67z75ep9Ph4MGD9nvTNKXf72uF/HzxDAY606zVarb8MtCIocSYcsn3fer1OtWqxp/29vZYXFy0sMDCwgKHDx+2p6sQgpmZGcbGxpiZmeHFF19kfuGAxngFrK2tsbaxYZtKSulsqVAoWHF6L/DtJJFIpRUSMjBGNqJvanHekZLppeyC/KRHs1k8x7HP4+WuEaWCr3qhfaVruNDZt3bcEYaK+Qzm+6WUqEwSDyIKY+OUK1UbVMyEX6Go/fRM1/zO13u1LqM3rDJJEnWhXAE1DPyj+8JxHJRM8T3X8mDB8E/3exOaacaJMW1cqbwhy6VUKqEy/ZzHxvSkVxDmmWCpRKfVplquUAwLuFNTXLhwgXK5bBkM58+fZ6Y3y9TUFICFHcbHx1lYWODGjRucPn2adrudB8DQfm0Oi3q9zsGDB2m1WszPzzM3N8fi4iIAjz32GNVqldOnT9PpdKzrd6/X0820iQkqlYplPhjz1jRNWV66zc7ODsdOHN9X5Y2Pj1u6V5qmFPIJUNfXDcE0Z0MVayHVapV2s2WHpIQQCOXsY1yZ5NANfO3OrWkq+TSnskiucjSn2HUgiQcI4eI4HkqBVPIlsNZXe70qme+XowgBFnM1l/nApnzQYhzDsdk0TXF9z2Jnhq9rRnONnoLJfI1du8l+dnZ2OHXqlA2WZgN0Oh3a7bYdkzSKR2ZD3FkumUaG6QKbjq0RCTIGlmbevNvt5oTtHarVqsV219fXKRS0PX2tVrOvaRqHhn/b7/etJKbRlzXd30zqwymVw4kie8hJSdQf2AWmMfHhqT16Upvq4E5u6zAYDzPE0eD9p3Hp9zB8Ldd1CXNs19x/IwwkhGB7e5tCEFrX6jDUf46iKC8bsQ0dMzH29XzvJoPV2aM+NAX7MydGvjZj6uZ5aEz7pfCQqRCDIMDLG17mZxxHsyEa3R7VahWhdBB1XZfFxUXqY+O5Y0zGwYMH7RTX5uYmU1NTVt3PQA6mf2IqDFNBmslOE3TDvEKdm5uzlaHjOHYCzbB/xsfH7dpaWVmhXq9TLBY5ePCgpcKZ6/r165RKOphWSrpfY3ozrqsz86XVFd2sz4b6xyYbrVQqdNtawyJ3fbV0U1MVusbY9Q5mgxnCGn1Gmn2SU2a9od6HGb/2fZ9XOvj5ssHXV/R9maCEh0IgHUWWprhOgCMEUT8h6kvwXVQ8tAAC9nFQDZY1Pz8PDEdATWk1Ku7dbDYZn6iTCZcsdzjoDvpEaUJQCImiPmmsGQVJb0Dk9rh06zqNTotTJ06SJEl+qm5z7doVy19cXV0d8iLzMskI6IyNjbGzs8Ng0KNer+dKT2s8/7xe+EaIplIp6c6tH9BuNnjumaeZnZ0lyzKuXLlixUNMSVepVLRrgB9o19U0Y+X2MteTmOXlZWs/ND09TRzHXLh4mZmZGYIg4MKLl1jbXmdnZ8dSy0bLVU0H6kHO1gCIehHddg/P0fqjXq55bCg0UikQgkKxiMgDvnlWWZbhow0J2+4EERF1ISh7Md0oxilOEuflTUlqhSjjqWZyAzGSC+u/Z9/X5jOY9S1tADEbQSIzI18p8YXDWLVix7Jr5YqeXOt2aTY0k8Gb9S0BeGtrl3rdwysU6SfDptWoldK+6xVivHdexbRDIFOassCON8PAdRBeip/qQzR1NVe27AmEkiSZoOAVmJmZot/vEnjjoBRekNsW+QIhBWEQ0o/7lrqYdXO6XZzQ7/ZIEh3ocB2inCFjDu5Wq2U55b1Ol62tDRYW5m3w6kcDm1ysr6+zu7trG89GWL3ZbOr3P5LoGAGq3d1dms2mZfmEYcj29jZjY2N0OhoGMz2Zfr/P0tISc3NzFAoFOp0ON2/exPd9JiYmKJXLdHs9+oNBjlNnSBR7ezt28GNvb49Op2Nxa6UU/VxxLcnyJprASs3KOMmZP4pSofwSQanR3zNZqeGmEk+luK6iKQukeFR9/TwyleK4BXrCp08V6bTIhEfB0XMKKV8bLfNP4F48bNAopXL+7cS+htqdOJo5LYwwiBGSMQ0EQ40yhWypVNIlVO5WGmca5yuW9bx41NeDDWTDLrHRLTWc3CAIOHHihO56J0nuDnzGUteCIODIkSP2PWhi+BTFYpFms8nm5iavec1rrIj0+vq6VUnzHK10dvLkScyILkC9Xrd0tEKhwNGjRzXEkklLXcuyzFq/TE5O2izAdfVE3+zsrB1p3tzLGx7hkD5lZuZ1U03YLENKCaG0FYIZoTXE+FGlL5M1mmv0hBdiKC2olGR5eXkEAnhlR7xpGpmy2mQjRg91YmLCOn3AEN/e2tqyDRUDXZnBFKUUpbJ+Zp43JNOb1xvNRr+e7IbRS0qZc8L1qPed1cWwAeTYgDU6wOO6ecM00FN8cQ6JmWEk00sw8qzlctUGEMPDLXqB5r9P73D//ffTarW4ef0GvV6PjY0NVldX2drRGhfnz5+nWq1SKpUYDAZsb2+zsbHBwYMH2drasrbxW1tbrKys2B6IyW5XVlYsRLe1tWUnxXzfZ3V11a5zA/1EUcSlS5eYm5uzIlKrq6vsNRq0Wi2ri7J45AjLy8v0eh2OHDlCsVjk4sWLdKMB3W6XKNFUyVRJ28cw0ISn9FBTkg93mYp0dOLOPA/TI5mYmNjf/xDDZzdcV67dH3eSC77W6yuomjlkBKAcNI3YIcuDZF+EbDQ6ODJ9WYLx6GI3wdf82b7ESKcRsLqqpVLJCo8YTFWmmcX+wjCkkDsHN5tNy901/F4jdVer1SwjwZSepmwyQXKU4mTsUoz4R6VS2YdR6zJjSDo3BHjHcSzmlqa6ITjEJ4VuIOYPuhCEdjS6VCqRpimdTocDtRpZmtIxOr15sDWLK4oiG1AMVDN6jw1mPspgMM9htMEzMzNjN/po0w3HI80yvKyrp7GcAnv9FCUChMzw8gzzThdjRP5a6s6M1z59+/70vc4XvFC4rkMQFDVs0O5AJvEd19L0lFLs7e1ZD7soiqx+hbkf3U6PwA/xi/pgMgfOy0EqX9/LIRMOsYRGPyNgoB1aVL5JZTaUR5ES4QdI4VAfr+F7Dn7g2kM2yzLS3AVZ5WveMBfMePtY3u8olbRucK+HNp4t6sk+x3M5feYu6pMT1qew0Whw9OhRjh49ym6jyfXr13nwwQdtFtjpdDhx4gRHjx7VVVC7zcGDB7WzRM7Fvf/+++0Bv7S0xLFjxyx8t7Gxwete9zoLCxrNFBPcjbXPwsKC1dg9fPiwnnpTiitXrnDs6FFbOWdZxszMlKaL+R5n77mbP/rCFwiCgOpYzQ4d+b5PSN6UjRPCkmZpFIKQ3mBAt92xz8Ec6mbtZ5kW3J+ZnkNJAcJHKoUrUpTSk4og8LPE/sxWT+KKDIdU/wzi1aWafblrtEPearWseLLvuy85BUYpMYZuYhyJzSlkpOic3HnAnJCZwGJNpktvxiqllISeb8cEu92uLYdMeXT9+nW7abe3t9nc3LTTO8bRwThS3Lp1i7W1FTxP44vLy8vAMIvv9XqWwlYMtUL/888/rxtgeWe42x9Ynm+73bad4sDzrWSdcYc1wtEGO9rd3bVZs5+/50ajQa1WI5GZVeQyTSMdiAYWMgAss8JM85j/m+83f1er1faNN+8LwAwrFdsYepXYDibDMBsdgeVSm8BqoAIzCmo2vcHIDd2pXC5bxoNSSnNUB5HFKEchGuAlB9LX8zIZmOtOWB9D8/ejB565J0ZudHQE3vQbDPXJfC7TgAuCwA4DGTzfZGPm2Rroy3Vd4kHM2NiYzSrNezBjwaNi6aaSMlSu0a/Neje9BYN7GnU4GKrPmRF9w7M1fx4dHDLrQWP0wv7MqA+hWccGwmy1WtRqNS10qxRJ/rzd3GjWYVi9+XmipBOu4CVMGrMu6vU6ExMTep/k7024+9kOjnAgw+5Xs66+5tG2/PryqmYCMhWihCJQEUrFOBRQUpI6BdbSAtJV3PkO7lz8SulZ7bm5OW7cuPESaEIHEGG1B8rlMv0k3kc4N1KJoyIfJlO+cuUK6SC2AP7WxqZuNES5gpXU2K3ZgCZzNY0Dx9HymJVKhd3dXYTQsoDFYpH19XWSJNkn7djpdW2Xt9frcePGDfwgYOHgQbr5KLHrao+tNNYeb2NjYyRJwvr6ulVhc4XmGjf3GqysLbOzs2NF0a3oSjh0EBgtc6SELFOInMNqqEdmkZrNYTeVlBw4cMBO8o0+K6UUiRS4XgFHpRSJSVSJ622fDIEnJF7Ot71zks1qLvxxiyzHXl0HnfXiEHo+riNodTsgwPUcCmHRYu2GbZIkCRmKRGasb23q7Nf18Fz9Ozd3dnMReGkDhdlYr0Zp+NVcmRCgfDInZLub4pOQOFrP13VdyFJcxyVTIJwAiSBJMw7MTFIOPXqDbF8lZSZAldABsdNqUymVaeaBsh9p+K3XHzaf+/0+mZs3KAcRuw2tC2KkJiWK8xdezBMmfeBtbGxoJ4fcJeL555+3ScTFixdtU9iU7maSrlDQ1u9mrQuhrcJefPFFut0uQRCwtrbGzs4OQRDQbret04vBpDc2Nmi1WvZAXV9bw3UcNjc3iaIol4Od0THA03ICvUFf93/SHM91HRzPZZA3A5MoziuBHoHQAyRa6lJT+ALPR3oZ2YjTyfj4uIXwEA7KEfgqQagUiUAIB0dB6KS0lc9aL8MXCkempLi8ksrqq8p878Q/hBA2wyvkmMvoNfq1UoqwUGBhYYEXX3zRWqyYLNbACaNBdrycd2lzYREz8mhw1nKhaMd319bW+KY3vZnx8XG2trZ44IEHrGqZOamNcWCpVOLcuXNMTU1p8eR8YVUqFQ4fPszc3JyllqWpdhq+ffs2hw8ftp9/Y2ODM2fOWKrN4uIip8/erWf6HYfFxUXOnj2rieJ9naGePn0aGGYxp06dsjzdUqnE2OQYZ8+eJUkSzp07Z6fbCuWS7fabrMFco1mF0bUwWYzB0g1UYSaPDLZnMo/R56vLMB28Iim1e6wf5t35VxbALL6WM12yfEimVC5SqVTsASUYUtw6nY7Fg7f3dveR69NU7svi5Eg2M3rw/2ldBmIyLIw4Lr/kwFRKD646zv6KcGZmhhu31mwZbDLKNE0tg8kEPOLIbvYgCJBqSM80fPp+v0+33eGFF17gcK4i5jmuXc+6ERZbZoZpNLdaLW1PD1Y7V3uWFdnY2GBzc5OTJ0/i5AHSMJBMtq+UYmJiwprPNptNTpw4YR1ElpaWLL1MKS1HafaZ0WUwPQrTlGs2m3pi1HO5evWq5j4PBhTKJRuU03RoyBDn9zoMQwrusDJ4OeaOqapnZmYsu+Plnqt5jhr+lLn2hRnqMBXi17ZuvnzwVQKV6zm4WR8XSFVMpgRZUOF2S3JzfYszi4ta1/crnABSKY4eO/aSEtdgmFLqJpwRppmen9s3AmjKU7OJzQ1PkoRuNODKtas8+OCDBIWQzlrXZkFCaMy102rbUqbZbFKpVGzZanCfVqtlrbKNMMhoKTiadQ/iCF9JfHxanbbV9DVZgAH/4zi2XlYm6I26ehg6nWlSnHvxRbZ2duwsuvnMllam9pP0lVL0Wx373ka/17yGCUgnTpx42UUlhNAME6nwshjPdVnrKjbaGYGvS0033+SJ8+W6uiaQv3wdpmRqM15HOKRORn/Qw/Ucy/V0HIdGo6E7+54uN9s9fTAWChrLDwKfLEtwXBc3H0RwHK0tsi/IqeGAz59GIFZ4ZK5Dmkpub7fp9XRJj3lWQoHKECIgRfOCMyUIfJ/jx45x8fJNnSGbbD1vwsm87DcYqaU1DnTTKyxoLnm3M6Rujo+Pg9TZ39l77sH3fW5cu4YfBhw4cAClFOPjepLNNJKnpqZoNBp26izMG8CO41Cv1/F9n0qlYptnR44c2YcFV6tVbt68ycGDB63f3tTUlGU5NRoNDhw4YHm8jUaDEydOMDs7a9kbO1vbHDx40PLj+/0+E1OTLB47yvbuLo8+9hjT09N6L+a9EBxhDUUdx7GwQxiGkGR2D4pcu8RB7OOv+67H8aPH7B5JFAjHwZV9XCFJpEApzVARwE7ksBO5OCKnA+K9Il2Tr5rtMNol9DyPdrvNxsYGZ48efUnZOQotmJPn+PHjtuw1ROlisWhxXqW0aPvOzg5hWWd15kQ0kzbmfaRRvM+54YknnmB8fJydnR1u3LihZeDzIL29vU273dVZU5pY7QUDJaytrdFo7FotiPPnz1tw3ghTm5JrfHycZrPJlStXLHd5bW0N1wtotVrs7uyws7NjrV66bS0R+fzzz9vsZHNzkwsXLtiD5ObNm8x151hZWeHzX/iCpvS0BxqqkJnNlkfhB40r6sC9ubFhKwJjoW2Up8zEkoF97hy1HIUgsiyjlGfNBiOXjnxVgpc5DJDKdvkNtKKUolqtWmjI930EWuxcORpSkVJnd2bYgvwQNNxu83nMJjJ/Nofr11unwiQRjqO1JeI41oGS/Qwh13FI9Yexf2cC1OhBYZX/coaROcRLqmybuVmmXb4NC8JAaQb3Xl9f57nnnuPhhx9menqaS5cuWYzVaJXcvHnT/uzt27dtRWgGG1zXtdmnwVsLhQKNRoN2u71vTQFWES2OY3Z2dlhbW8u1GYZi7CZ2bG1tWW2IXqdr+cWmijN9oTRNefrppy0P3mTGpjlpmD2jE7RZlrGX91V0JTg0zhy9x6VSiSNHjgwrKDnU+B6NX+Z3ml4OXiV/XmZ/fG3Qw1cMvjJX+bFZrdRd6r4E5XisRwUiEeA6Ma4cBujRy+BvMzMzTE9Ps7S0ZKezTDPFBFE/1BKLJwqnUEpRCguMV2tEaWIbbFaqTkniLGWqUmWQ6sba/Pw8u7u7jNXHbcfT8zyOHDlqg+vly5eZnZ+zQxtmMm1xcTEPcC6nT58eKeVjxscnmJrSrr9zcwc4ceKEbdB1Oj1OnT5NtVpl6dYtpqenOXLkiIZV0syWV66r7eON+WaSJDiey41bN5menWVtbc3OuvejITRgGm1aqjDflGlG4Hq4QcjNnPtoaD5KKSsWbRbNfN5lNtKY+/FjifAChFCkgHAEy62EjvQRfHWNheHhvJ9m6OY8XgcBmWSsrkWGzIG8t7enOc+uT7FQIo4S0iSjPqWNVA1d0JwRwtFOGyiB5wVkmcJxPGC/QI35/2iFcOe/31mBvZJL5m4vKQKVSVb6gpoIUWkfX7g4+XCQ6+cCMbGp3HqcPn1aQwr5szKNqTiOCfww15V1WVte49jp43S7XcuAMHzaqNNDJilxTsXsRzrzfvrppykUCmxtbLC1tWUhPqH0GL0ZT67UqgDs7OxYGluhUODy5cvU69pf0DhwGxuiVqtlucTFYpG1tTWee+45mxEbGy/D8Z2cnOTWrVv50Ifuhezu7uogmuhs+NFHH82xV8He3h7bjR2yLOPci+d1YtbYs5oTaZrSG/Tt4et5Hs12k2pBMyt2trZwhcDxXW3H7uiqq1gsWvXDqZlpZufnSPNmm+N6OdshpwTiayZPzoJ47vo6nQxEkJFloF5hdfU1TbgppXDyYDIs8YYiFsPZ+qFW5tjYGA899BDXrl2zNDJDr/F9/TYMHWxnZ4e5uTkGcWQ7vOaUG1UIM93VLMs4f/48J06cYGpqivHxceuCapTszWitCWCgJ2CMfYmBAXzftw7GpktrVNHMwjEuFIPBwGo8GIpNlGvrmgVhsneDYZrvF0KQyszScf7wD//Qqp1VKhUdbIOhQIjpBhv8KQgCdnd32dnZoVQo286wOTTMc0qShLNnz1pcDPZniEIIEks418/q1q1b9ll/NUwBc8AKcQfGOYItG9zeOFnX63Xq9To7Ozu029qFdmJiQq8JmdkMUv++r1za3dljuPMazfZH/+7VgiTM2jDVyOXLlzlzSE9RyiQDsV8/YJShMDk5ycLCArdu3bL0wySHGUz2mY7Qo0qlEo6fc9aVtCPmJoCb/VCtVq0R5X333cft27c5ceIEaZpSLddYWlri8MFDOovMtC7ymTNn7PszHmUHDx4kiiJu377N4uKiXdvnz5/nnnvu0bKm+cF/5swZQB8iu7u7PPDAA7byKJfLFsrYyjUZjh07piut9Q08z+Po8WOawdTrceXKFe655x6++MUvWi+4MAz3WYC5+X0wcF8URdazbyeH77TGg74nhSC0SU2apiwsLDA5OWn36Fd6vqaaSNMUD/08NZ3wa19DX35VC8NkkGTCIUVo92IyHJkRug6XNxK2Yu2iqhwtACPFsIQyG8/glw89/DCFXK/ABLv9Ytd68xhyPWDHe00mY0jn5qa0Bz1c36PR6/C5L3yeRElc36PVaTOIIzq9rj2pDdvAYLAbGxssLy/TabVpN1t0Wm26be0Ltr29zfXr123Zbzq+cRxz+fJldnd3uXXrlm1GmJN8c3PTTte1Om3WNzfY2dslThM6vS7nL7xIp9+j3euCEAjH4Y++8Hma7Ra18TEGcaTtggK9YEywStMU33HJ4oQ0/6+5s2uzZXMYmU1uiPm+7/Oa17xmP3WMO4OUROAyUD57kcPF27sIvzj8vcIlFa7Gvkb+0/qnDiBROSNCU3MUge/iInDR+rt+4NlR1mq1ahXhsizTlLpoQKokyhEMBjFRlGDU9HRrg33vdzQd/0qZ650Uozv/7ZVmveb3SCnxXYGD5IlbPZpORW8hR5BJEI6HVCkiy/AcB6EUCo9qbYL7H7yPOI3IlCSV2T74wHCk+/0+/W4PVzgIqSDTFUUhCG02aKylTGXZG/S5ePkSOA5hns0akSgjFGXon6O9glKpxPLysm3iGcrfaHNrfHzcYvXVatU6YJhm4ZEjR2wj3eCypuIxmb0JmgZ2DEOtyTA1NcX09DSb21vcuHXTaiuYxMvASIHnE3ja0zHqDwiEhn52dnZ0opJJhBrSLZVA7y+ZgSO4//779fNThrmjV1rqOKSOk/PYHQaZoq3KLLUyvHLFHp4qfwZf6/VVZ75K6RFVs9jMSPDm5iaHDw7tccz3jpZ9hg5lSNa3bt60N143CrSItBf4doJnc3OToJAbbHZj2+wyP2eUnwzOppQmai8vLzNeq+UK/jpYXr16lcnJSUsfW9tYt91/gy/FcWzHLCs1jUHW63Vu3rxJp9NhZmaG5eVlgiBgYmKCVqtlp852dnb2zZGb+2K4xYPBgJ2dHStecvnyZetZ98wzz7Dd1ApRe3t7NiC0Wi27eOM41vqkYcFyF/f29lhfX7cwgxn/NEpZoDOQgwcPcvToUTs9NtqQMsHV8zyyNMNxdVbSbDbxCnWS/IDkj7GIN69nMj+T6SQDzQEVzjDbnpycJEkSNkbEg6JEMzbM80ySzK6Nrybz/uMghFcDWvhK1+g610Ix2jV73BsK5YBxWdjPoc6yjLvvvpvf+Z3f2dcANjxXs++yTBu5+r5Pr5+7NggNR7VarX0msTC8361Wiy9+8Yt2KrPdbrO5vqWHJBaPUq/XuXLtKqurq4yPj5Nl2lni6tWrbG9vW0780tKS9Vrs9XokScLY2JidbtvZ2eHy5cuEYcj6+jqAhUjW1tYArFSlEIKLFy8ShiGVSoWlm7dYXV2lNq7nAaq5Rdhjjz2mg5wjbJVr6Kfdbteu336/r13FlR6r3tjY0MNOwsn7IFhM3ngATk5O8uCDD1ro885rdL2EYcjy8habm5s6GcjhSft9rybsICATSme5CkXqOqg008r5CEKRoKSiowo8cbPL6xfLFk80APjoAjOTZqVSiYcffpgb16/b00MvynwWP8tpU0KwsbHB8ZMntLI9yv7OsbEx+7MGFjCczn6ny/buDp1Bn4ceeACZZrntT4uzZ8/iuxoGKJSKtvvf7/eZGK8zOTnJ1NQUnudx4sQJ3bjK1cPOnDlDpVLhwIEDrKysWMGPKIrY3t7m5IkTNvMMw5BDhw6xuLhouYyHDh3i8OHDXLp8mVKpxIFDB0mShMuXL9PstBHeUPlNKUWS6Yak57g28JbLZULPp1os0e30uXbtGv3uwLIzDEneUPhcV9uGP/zwwxaDG1LKhsFNPyOJFALhl3hhuUGkAgLhkGURvlckQUMaodIGnNmdyv15MwmVIbME8CgGIX6uFGUs602DpdvpgRIIz6NcrdHf2UPhkGYKIbVnnFQKleN/X/4yzayXYrn71vPI392Jeb8qlzHMlCm+gs2swPkdl8MLmrWQCY9Mga8UjshQWaKbbwjSKGbx2FFOnDrJ8tKKTVQMfGAaQI4Q7GzuUCvXKJR1YFEyIxlEli1jNJ13GnuMjY1ZGO/pF55jc3NTc2zTjFptnDAMWVtbsw6/cax1R2ZnZ5mcnGRmZobJyUkqlYp2i8gPTiEECwsLXLp0iZs3bzIxMcHu7i4zMzMsLCywu7vLgQMHLDWsVCoxPT1txXhMo9UwHZrNJkmWcuzEcTY2N3Fdl/7NG3z6058mLOrs3C+EFnY0MGSapqRRTJDzvSvFEv1uj+3NLQadrj7YSwWb2Zv4ZJQLH374YaampzUcqMzakGSOQqHde3yVIoQkFQEv3NqlOcjyiVoAhSOVXu/O11nVbDRTgmFWe+XKFQavr9ly11wmC7SdbvQGeeMb38gnfv/3rQ6oKUMM1uQ42quq2WzqWfVi0br2mtPcBG2DtRXzceNwfByAJ554gtnJKY4cOmx/TmdUOoBPTU3ZLKPb7SJT7XJsmALmQfsisCRww4AwuJwpl4yurBHTGWVmmObgYDCgUChY7DpJEtbW1vjiF7+oO+MTmjlRKBSs/m+WaX1Sc1KbDNgLdMm2tbW1z+FjFP82ZdnY2BhvfvOb900qmWu04SYFeF5IP46t8+xos+qP6+aa55Jl+rkYjrWhP5n31+tp9S2UXktBsWA1HUYxaHOIm/f8xwXK0cD75Rprd67l0QrglV4m43Rc8ucd6ft4eEEfqAxplQBZvtbdXMOkXh/nda97Heee/2UmJiZshWfwSUMb7Ha7WmpxQvNvlcCO1Zs16rouYzKzPQ5D4VxeXuaRRx7hkdc/RJpqXD/wfA4cOIBEc8THx8eZnp4mCAKWlpZYXFy0v7darTI3N2dfA+Ds2bOUSiWqVS3naaRVoyhiZWWF+++/X9NBu1329vZYWFhAKWW1gOv1uu3B1Ot1JnIZgi889kW7ZsfGxhC5Xq/5rI6j5Vybu3u20jNsmuvXr9vs2EAlQkgLc5iY9NBDD72s2p2uNF76d6urq1ZvWcNsufzkKzjEXzb4OgqphEJ7USlSBJ7roZCQSvy8sRK5Fa5v97l16xYnTpzYl1GNUn4MxUWzBeZ46OGH+cM//EPbJDAPVDhaYFrkEz6mtDdYk9nAJqC7vu5ORom+sYMoQjmC3WaD3/3Yx3jnO9/J1to6Ozt6PLg+Ns7q6irLqyvMz89z8OBBDW94vi2Vt7a2aLfbzM/Ps727w7Vr1xBCMDc3x9bWFru7u/YhNJtNrl27xvz8PIPBgBdffBHXdZmZmWEnp501Gg1E/r03lm5Rr9fJHPiDP/gDzQeWGa6fCw6lSc500M9hEEeWcqPilCiJiXt9dnZ2CVzPHhSjJHFTqg8GA97whjcwPT29T/dhlGY2DDwSX8DFtR1ubrZQ7pheHI5WmMocDf8ISzu405ZniMqWSiWyJKbX12WhwSMNLJIkCX5YIEsz9lrN/D04SKkzcBNATbB62ZLwJX/x8lDDaAAehVrMv79qUITIGZ+G1O+WeebWDq1WNU8e9KQUQm92B4VQLlI5OK7O7u655x7GxseJk8Q+VyPcZPaU53lW3S0MQxxPoF1ghiLupho0wxpKKWrlCi6CJ556krFqldOnzhAPItyiY4NNp9NhamrKNnZNQ9donBjqpqmo6vW6nrbLtbANzmrudbVatep9xoR2FDYw5gWmUWYgq3PnzvHUU09prLlWtdN+o8lZFif2ABhtoBl3mtGBHLOGDBWv2+1y+q67uOfee4dJXF5BOWjPwsQJkELg5158zXbK7c1dUhWQxhLXU4Suh6tyZOBrXDZfVeYrpXxJaj06PXX9+nWOHz9ub9BodmpujGkCSCl529veZvEcQ3/R+JbOdmQOKWxublIoFJibm7NDEWbDdDodVO7wYIRBHIRdDP1+n0984hNUiyXe/OZv0kI6CI1T1apMTk5aFkS1XGF8fNyerCZrMBDC1NQUaZpaubxRKczp6Wm7WU6cOEEjH+s0ItWAFReZPTDPE088wf/8n//TLlLHcey8uLHLbre7+5wkDKRRqVTYXF1jbW3NCpyYCbg7F6Lv+7z97W/XgS/vxBsMebTTb5gqaZqytLREq9VClMbtv+ln/5XXh/ldjqOHJqLckcO8n4mJCXZ2duz7NBQpww5xvYINHqNMALMhX47C+OXewyiWavDi0Qaw+fyjycEr1X7IsozAGWLjhUKBtbU1NjdLHD16FCH3wz2uF4AS+57X4cOHedOb3sTHP/5xatWq1W4YDR5+nmGbHoMkywNZZCs713V1gyqvsFzXJZWaJ5ymKb/927/Nax9Zp9/pWhoZjmBlZQXHcbh+/TrVapXbt2/j+z4vvviidQwxSn+VSsVOubmua1kZKysrlhJ648YNuwc2NzdJ05THHnssp2d2rKUXYA08O90u586dszCjyZoNa8esl0FXY95mLNocTLdv3waG2iaFQMMVaaqfi6mmHnroISYnJ2m1Wn8sUwbghRde0O4gteO6ClG67yLumBT9k14vG3xTga8Q+DJBqbyjLZV2sfVcEpXHehVTCB0+fVvygFtjXLVxE6nFIYRH6iakKsV3iyRRguvHZJni+LHDPPjAAzz++cd1GeE5ZJnKT+o0n1hy8KTD0tWbzM8eIPBChKdP8iAM8IMC3XiA43mUPIfAc/OgklEKC4iC3lwbezts7Gzy8MMPI5Ria2+LYqGoFf2DkL2dXaRMmZ2dznHk2NKe+v0+UxN15mdn7MHR3NulEPi5s7IHMmNyTI9tNnZ38BzB3NyMDpgyIcliJmcmSdOUF86f49btm4CkWCwRBB5R1Gesot2J+7FuUFWrjtW6MGV7MbeDv3nzJkk8wMtZBCpVDAJB6nqESRdXuERxzGte8xpOnDxJfzAglJotEfoBcapQbu7skA40XovHYJDwP6/AXvEYuD5KCLy0TSAgkzqYD2SBwFGINNo3dIPSPGzcOv1IUJicpym3KCU92s0WXVVifOoI470bOA4s7RYQjiDJejieS0KMFxTIlA62oas3QSwFwg0IhMaxU0fzl8O8aRVl+UEiUhwPgoHmfEZxyszkJD/9fd/IkalxQkeX2f/xU5d59NwNHL9C5jtkOTXZzcnyEk2H64kI11UEcYzqbjOJ1tONUpc4DVkrj1EoFCggcTJFIDQsEItCrjmREPc7PLrSZ/ZEGSG6eJl2PFBALIooFIWsh4NDEgkCL+RNb3wjn/vsZ0miGLdQ0M4YaUZQ0JWNk2e2Kytr1OuTTE5P6UPaibUOiDAsF2Wt2gWK3qCHCDyCchEnUzz21OPcdeIkZ+87q5+bVHQ6LWZnZ6hUKvR6PY4cOcTs7LSFyra3t5mbm7MHQr/fZWFBT8wJ5bC0tMT0pDby7FcGutLMYQXTFK/X65or3GqRZRlTU1q1bGd3i09+8pPsNhq4gYvvuWQqtYMXEoWQw4GKsKT9FN0spVQoErqBdkNudXGkdqwYDAYQ7rcLiqKIubk53v62t5Emia2gUk8f1r6UeErhCYco0jx8IQSPreywXZgmc3TzWMWJ3o+D9BUN8LwqThabm5vcuHGDhw5P20wiDEMSmZ8QKlcmQ28ix3d45zvfybNPPKuxzCze9yFMyWWoXZcuXeLMmTMkOZd2tLuss6X9vE0DY5im3Gc+8xmazSavf+1rNVsg0b83jY3mrcZToyii1WppC5Jcu8KUMqOjw6bBFUUR3W6X3d1dK8bT7/ctw8H8zkajwVNPPcX5CzqLMLKVRvzGYIYmOzWsBcPoiOOY0PG4du2axk3LFZK+XuCBH+AXCjSbzSEu7Hm8613volwuWyETx3HIlNZlNh3xML9HSulJv42NDdvcMc0NgzeaklNmsW6uMbznxXziaBDrKaCBkExNTdFdvUUQBLTy7GRMJXk2Nrlv8kuhcrWzId472mOIk9ji257nkcWDfMKrbLNJKYcOELOzs3zoQ3+PN0xBCPjA/ffdyz3fCh/8+/+ep569AI6P4/n23rqui5L69QrFAt1uk0oQ8Le+9wf5xruPaeH9Rp8nn77Ef/vS01y+eJGgENhpSnM/skyXokEQcPnyZbJveAhHST2l5+rGWGtkyixNU5z8uR8/fpz77ruPJx7/kl0Xo+W1zNe953tcuXKF+uSELacNi6BYLNLqaPbP+Pi4xXKbzaYWmcmnvS5evMj4+DgPP/wwY9UaL7zwAsVikfHxccbHxy0lc2ZmxjIKpJSW6eO6rrXZQmrD2bNnz+qgEvgcOXLEVpCtVotyuWyn+Qb5kEO9Xmdvb4/HHnuMvb09vLxHgqOrzkJZs5FUzurotNr7xonLZc1v77V73Lx508YDM8VnqgHA8v3f9KY3Wb0Jsy8UQ7ZOFEWkKs2rrsiaL7huAWWgO4YyqaMssD/p9YqCr9kcO3GJzz65zENH5oiJCCqBViDCx3VcEndA5rrItIIrXUSmOHPyBI984xv55Cc/ydT4mKWuGIUu13XtdFdrr8Hm2jqV+hjtRpNSNR966A8YtLukRd8GRyklnX5PA/DZMIA88dSTXLhwgTAMeej+h1hZXSVNEhqtJt1umyTT0Eiz3cLZ0DPySZJw49ZNegNtN9/r9VjbWGd+4QCyr8WpsyxjEMc8+/zztDp6IqtQ0YI4jVaLp599lseefMKWWEopdpsNWx43W038QohMhnS6JIrptjt5hqGzru3NLXa2tvFdD98PSZKM0NMcaV8llDzIUkGUZrzmDW/i9Nm7ieI+WRyReD5SSPrKx/VciAe4CgKRIklIwyp/dKtNJxfw8VxJovo4xLhCUfAAEpwsx978IomEntLc0noxt2FSGrt2ehsExRRRK9LtRlS8hEFrjcR3USpAZTrgCwc8KQgdlyxLUZ4E12Eg9CasqQ5SSdLCJGkGWZRvinCcNE0pxzsUPI9UCRLpsys1/POP/9xp3jQF//KjT/Po488SJxmnTp3i597/Ov7tD30bb/qBC8iwQk8q3LBIJBNEFuM4MV6WIht9XjM3zUf+2ftZXDzMDhrRPnagzMNnH+JHvvNBPvShD/GzH7+KV59hkBrLqrzRiMB3A15Y6fL8So/XH3RIZUrilJG4hKpPAY9YKnA0rODmnfj3vOc9XLhwQUNgBZ29hkV9ECuG+G+/3+f61WucOnUKIRV72zuUa1r7wXc9zV0Vw7Fno3dLfojFMuPxJ55gr9nk4QcfZK/ZYH1zg92cKbGxtcmBAwdod7XAzY1bN1mYP0C7rXVS+v0+jUYjT7ag2W5x6/aSZTCY9V0qlSgUi6xvbCDy5MA4iF+8cpnHH3+c1VXNKR6raEW1QRIzSGKKbgWZ71+jluY4mnnV7+smdpxqMSqllFVbG23+m+RhMBiwsLDAW97yFhsTDJc69UJSUgQZOAFFR4/zNwrTfOq5cyztRrjV6tBDUTh6gEgolMpAfG1h9BVnvkII/PyU395eZLqumzVZliG8oUSeHtczDAWNPb773e/mmWeeYdBp4ziOHVc03+/7vsYOleLq1ascO32ShYUFermknmEUGAzWnEaGjJ1GscVu6/U6UV8bXF69epV7772XM3fdpcWZq2U7Umnss+fm9Ajy3t4eU1NTHDhwgO3tbY4cOcLcnBb+Mfju7OyspvbIjLW1NRYXF1ldXeWpp55ib2+Psfq4dll1hsptoxNpw0k/31KGyuWyldxbWlpi+cYtnX0qho0rVy8g2cvdbdGL/b3vfa/OVgZ9yxVVSjtWmEOKHEd2XZf17e3cfVarWo3i9ZoNMWzOGYxe5BqpcRyT5nqqxNJmA3t7e8zNHkAIn83d3Tx4aMw+zelCQsVIOTTellLmJp76tVKZ2oYMuISGYpQPkwiZl5VCr7FyWKLdbvPQQw/x4qV1PvzhDxOW6igcnn32Wd5cW+d7vucvU6/XWW1EOKHGmoWUVp1PJvoe/aN/9I84fBg+85nP8Vuff5a1rV3iLOUbv/Eb+YG/+Of4Bz/xI3x2+z/x6FPPU6hU7XoUQuu/ykzbaj7++OO84dAb7b3LsoxgJJsVQuDkTSXXcbj77rt54xvfyKc+9al9oktK6alSKSUS3UdYXV3VpXwxsIpfphcA0Oq0beasA7xufMf9gV1nL774Is8/+yy1Wo0jR45Y7WqjQW3Gik2zz5hsmgPi8OHDLC0tD7PuVotOp2Oz2q2tLbZG9KvHx8fp9/s8+uijlr/rOFgKmpSSLGdfmHhgpk4rJW2KIKRez61Wi729PcsmMlCdqZqCIMidTvQ++ZZv+Rbm5+ftCLVR/jNQShINCF0fkRvQKqV49tlnc52NYUXmOA4y0yyWV3K9wuArAY/UKbEd+Xz8hQ3e963HKXSXKPguKGyJ6+IilU+Gh6M0b3Du4AJ//r3fwa/+h/9gS6TRhog5oZw8A7x9a4nJ+gSlkhaBLpdKOc0sHWmuDHV6AYqug+O69KIBge/heC7Xb11nr7XH5WuX8TyPw4cPc+rUKYrVCtuNPTIBKQqBolApg+fiBD7SEbhhoP8sJXEueekXQ1Ik1y9f5tq1a1y4cpmbN28iURRKxbwBokizFOG5lptsFpYZXzYPXKUZaRQzPa5x58bGFkkUEfgF24wyjTQv8HHjDqHncbuZ8V3f9V2cXFxgMBjgux5KeSSeR5RF+CJDyASJQ0qOb3kev3oRntsLqY1JSDLcPNh2fc1nFirBSXoEA+0cEoxNkUifkvRo93vcSiLGxsocKWh2R8stUAom6ey2cDJFKdYiOFtofQo3gDiLQChKpYAkzodnMgGZS9HRGX1PjGmHEVcxGHTIVITjCfwkxVEOwhvTB66QpElMgoNwJIWsSSksMV4s0mlvaxEVIfAmF4hckKSopIPvpPheEeW6RIOIoODSF33edWSON52Gf/OZdX7in/8WsZT4hTKRkPzulT/g+qXb/ORPfh/f8643cv7ZL9ITdf38ZJTDFxkoB1mc5gtXI96xqzg9PQZxl4LrkUmpfewCHXR9lWemWUaaZbznPe/hySeftHxf0/Cy7AfHYdDtITyXCxcucOKEttLqRwN8XwfiQqFgp+UMRGbcsA1LwcAWrtAC7I996Us8+OCDHF5cpN3tcvzECd2ALhRYWdGGA5OTun9x+sxdTE9PW7roxMQ4s7PTzMxMIVxsozwIAmYbDdvMfuGFFzh/6UX8UmATkEESk/X7BMVCfphqvYwgCPReRhBOBUS9PqWwAFJPw924do2128uobDhWb4wVDORgeNNnzpzhm7/5my0kYQ4o13WRORRDGpLKBEcmeJ7D4ysR53dBFSeRmSQQGSiQymieZLyS61XBfEGf6s888wx/7o13M1YOyaIY1xnSejTHbjgNZHDEt7/97Tz5+c/zwgsv2AcLWPGMIAhIM01uTtOUK1eucPrMXfokbjby0z6x2JeZdhmlFhnpO4PRFkNt9XP9+nXa7TZPP/00p06dYmZmhiiKOHbsmFVuevHFF3nggQf2qaGdP3+esbExPM/jxo0b7GxtcfPmTTY3N7Uk5uwsQRDQ7WjcrKrGLBe52WxaLi8M5+BHT+A0Xxi+63H58mXrOhBH6T6mxSidqtfrcfLkPbznPe+xtD5w8gkhne26jpsfhvr09h0tXvP885ftxnQdB8GQZaHHZh1+7Md+DLW7zEc/+lEGWYbnFymWxlGuQ7vXpFQq8X3f+X08+uijfOHFK5RLFba3d3GyYTmowqHDhpQS19PsFCdXZVfSQUkx/FrlhqHpgGLRJ44GVt+53++TqnTIsXWGAuqf+MQn+JEf+RF+7ud+js9//vMATE9P8+5ve4jnXtTC9bXaBIMc85eofL1pTPr48eNkwP/6X/9LG3hOTIAbIBz9fR/72Md44xvfyGvfeFZrz45wqDUUJ/FclyTLSOOU5557jvvf/VaiuGv3glLKmoZmaWY53v1+n8OHD/Ot3/qtfOQjHwHIBcGHnG4/b4L5Ocd8fX2der1ObVzDdsbtwoiGm8voIxg1uOH71fe72Wzy9NNPc+HCBUAHmPvuu8/+rLHsMiJPxvXYjBgbJoRZS5VKhe3tbZ5++mk2NjasjXuUQ2zmsyW5mpiRIUhHvnYcR9sDhSHtRpNarUbg+Wxubg7pbcqxMgXmgLqTKfId3/Ed1itwVBtbSolwNFzlOQ5ZkuHnjbbHH39c09UK+f0OA8th9zzf7pOv9XqFwVcTjoWjkL7kaqfAR59t85NvHqcrU1JX6+L6UQkhBZno4zo+saMbSQVHyx2+733vsw/HlFlmMco8SyiXyyhgb3uH5596RguUJxnVsQqx6bajS2ajYCbRJ6HRZ3Ach2KljExS2t0OhVKRONcivrl0i1u3l4iiiIuXL6GUPl07nQ7NdsvapZjhEAMXRFFkN4bv+1TGx5CuIJJ6LDIsFe0pbPiKxuctTbWgSaGkS6CwWKDg+mx1uoyVKzz3zDPa+aJU1ffB1e8pybmShVxwJMkUXlDgr7//r1ApFUgTUJkgSfRkYSRTHCSuykDp01sIj45T42Pnb7G2u0GhWCCLe0ghkLgoFEWvTyxjDqktPvC2KZ65AL/9623W1DSOHDCR3WK6UEANXPwEvv/tpzkwuMnvPL/KdisiQ+G5EmSG9B2KRZ1xiFQyFoYkUY+xsEQp24E0xvUEwhN0lB43d9MenU6HBjVCr0TJd0nTSCvpBSWSdIArXKSvBbo9RyJknw99cYMz35HyjvvKvOueP4eHVnF8vgU/9OHfpEmZXiSp5g03QUgQhsRphgMcn3coKnh6O0ZMHqKQ7EA6IKGA58Na8Qh/eKHBG98OE4WU3V6GFFrZTKJwFeA6ZInECUI+c7HDvY9kvLYiSdMY4daQDqSZrggy5dAd9CkGOih2ul3e9e5388ILL3Dx4kULxVmqHBAGAUmc6J+JIm7duMHhxUUA4jjCUVh4zgzfSDQnXqaZXYteqv+vPIcsk7S7HfaaDTqdDmsb6zzx1JPMTGkd3bm5OVulXblyhSNHjrC1s0OWj4sv5vDhytoavV6Pcy++yMrKCuubG/T7faanp5FSstfSmtokMe1eF+E6dPs9aw9kDl3P0QG+4Af0cyw9HkR0oxZLN2+CFFTLtZxOppO2crlsXZfNNNu73vUuHnroIWuBZCiaJpAGOUsEobQzRljjqStbPHl9m9QtoGSG6zi4MkUoiRQuGQIhvJx0/qeoanbnZTJUKSWPPfYYzfveQLkcMkg0vonpXntDbcxisYiQujv+ute9jhs3bvBf/+t/tRKPoxxI19U2IqU8qO7u7rK0tMTRE8e1kIg3JOObLNHzPCTDWXkzRWd0SQ32afywRoc4nHzYw/AHDVl8NOM06kqdTodarYZSGqfyfV830EZ4rAZmMJ/HGoPm5aDrulbr2FV68ufypctsb29bjVMT/PUklWszFyklKk1597vfzf3336/Lr7wja0pOQ9Q1B5T5uX6/z+OPPw5U9PvKMwWBPkiM51xRdlDA6uqqfd5SShppMx9BrWnNgM09lFK0Wy2KpRKB70MaI4S+j/1BHgzyrKnf7fAX3vkX+aHv/SbiHoQFcF3Yi8HzwE1ha6vDRz/5OB//+Mct1tvONQayVJeNSZrt4wQnSczf+Tt/h/d/yzfw8JkTiEx7933otz/D9YakOjaX3798ChFd2vvhkNDvieGUJugAFohg31SUy9AAdnRtmGzSbPCtrS2efPJJ3vj2U3ZSKywXCX090IDyLKXLZNCu6/L+97+ff/JP/sk+7NdUhEmSWM+/Ulhga2uLbr/PI488wmBXH7qO79n30Gw2GZ+o64w71Vxh81qFQkFb7uSjurVabV9Tanl5mXa7zaVLl+x+abVaekouCCCH0HZ3d/WUZ661bMTTq9Uq5XLZVqKjTtxKKQbxUH7AjMsbxo/ruoSe7v2ElYoWtrp0iX6/TzEsWasj8znMfQesKehf/st/eT9jJ2fymJ/L8vstUz1v0IoiHnvsMf0axSJKZbgI0pxiaZ1G1PD5fy3XqxJ8Ay8jiVpkwTyb7QG/9tgKf/Nb30iQLeFo12WkkiC7OASkbhWlHKrZgCDnAH77t387V69e5fHHH9831QbYKS6V37RCGLK+tobMMu677z5SpW3IHcfBZUieT6KI0A9QAuI00doUQpDIDC8vIRKZ4QrfKmrhah8nx9cwhfBcvLxcFsCgE+P4HnGWkskM4bngOsRRhON7Frd1HEdnGSgyJXE9FycfgzQPzGTjnuPa0iru9rlx7Trbm1tUSlVd9ngOoR8wyHnARqrSL4R0mh1e+9o38Rf+0vsRgyYFoOtWSGRCUekGjO9EOCrLPakEipRiscS//extnt/2KJcEHh6DVOF7RQSKNM5o7DRwoohS1cVL4GC5TE1GjDmSQeaQetOsNxTTtR0ePjKGN12n5YaQejiiiBc1ESIv6XKX2SzLUL5AhC6O9Ll08yJHnW+kNCN4tgkig7vr+ri4uT7g9acqvO3U2/j4MYe/9KHPELohYRHSuI/rOogso+w4RIMefuCgPJ9eVqSRBfzn3/gdftXzkLnWtFtwmQ08lnOpURl1c6pRh0LokqoAh3GuNTQz5fl/9R26DM70lKGXampgN+1TqNdQCSjpIZwETwjIcphNhCgFjopxHJCFMp98YYV3PHyaI9UyRdXDTSUtQhy3gKskWZzYoAE6Ezt16hTve9/7+OVf/mXrAzgqnhTnVZfJ/Bq7u5x/4QUWDh3Cc1wcdMmunByucDXdyvU9ytUKQUFDEGmsD/KwlCvZOfo/Q/XyhM5Mq2M1W7H5oa5OjLuGrsAyCqUSXkEfKp1el3K1guzltvYlDb05Sb4mAh/Hc3W2mfd7pNQu32nuSO26LhmKWqXK2toGq0u36bZ7NoM1wzQm+RkdPHJdl+/+7u+mWq2OUBKH7i7mIA3VIOdpu8SqwKPrGV+43SP0BGQxOe0cVwBKEmcKhIvUvpoIpez3/EmuVyX4GkrJdl8HkD/6oz/ibWcOcGjaZF86c0jlkJtrsjCTsbquywc+8AFWV1dZXV21mgYmIzDZqSkdTCn/2GOPcfzMSVtumIewt7dHtVrV/MY8Ew08PV2TZRm1Ws2e4Ek+0gnYEs9kpaNju6YcMgvQ8JBNFmq7srnLRaakZSYopTRpPn+tfr9vqXS7u9pJo9FosHzjlhUiMvSZMNCL2c2Du/n3/mDAsWPH+OAHP5izO4ZGozCkJSGMxoZvD7KVlRUeffRRPYuf6vdfr9fx3ALdfi/nMiuKYYiUXdbWIh566Djlchk6+j55ORa2trbG+//82/AFllIH2OzJPEth7JHkcMMYbvKHPvRv+Y+fPYfrupyYFPzrf/2v+eQn/5CPfexj/Kt/+CN867e+haO/c5Nbt26RJgmhC67joDLJIMeCcQWDNEHh8u3vfS8/8M1nqdcrOhA6oDxY3drjr/3jf2f50LrM1ZVAJjPrH7a+tcN47rGH0Bhh2tGGjG7JJwaWl3fyiqTwFfdHlml94i9+8YuceNdbENmQwyyEQEllpRKNroMJaO95z3u4evUqn/vc53K7+JJdT0DeuJU2Ydnc3IS8YiuUNIOn0+/Z+2yGFsz66HQ6VEpl+3omOTBr23VdHH/oOD76mUo1zWwy8qyLi4ta56HZsAeCwYEHg4EdczdyA2ay1QRCA630o94+njnoKbjl5WWaucqaCaBmHHp0itFUit/5nd/J6173OltJj8ar0cs0KIXwaQ4SHn/8CT2k4WvIkOzr4379qgTfWApkqqiFA1Scsi7G+XePrfHT736YJGsTOT1818dJJJAiRIYjdTZouv4ABw8e5Ad+4Af42Z/9WTvYYDaJeZCmA2wWR7/f5/wL5zh58qT2rwKK5RJebsFiGgBmwZbLZUvpklJSrVYtxGDseswiG7WuNqemEQIZPUFd17Wbx/f19BvkY9lyCFG4rrZGElJnE5O1cXZ3dymWq6yvr3Prxg0tFB2W6Cd9O7opctUuJXTJ7zoOgzx4f/BvfT+zU5OaNO5XSaWkIhKiOGLgeHhegEoTfM8j6jcpFApsOnV+4dP/m91Uy2C6xQKNfhsVOcxNOIRpi1JhwGbkk0hB7E/y4d/9Aj/7t9/KP/zJH+V//PePcu3aNZ69dZuZmRne882v4wff+xaWgV/67DJhkOFkHZJAgO8QZRkq8HFEgKdHyvCSGD9JefNDD3KzEPLhP3iSpLIIwN7yHh/5g3P81fe/h5/7N/+ZX/mfv88/u/80EzW4LdtUK5rlQJSCcAhLeZnZH5CmKf/43Uf4sQ++lhhoRnl2IiCR0HKgEu/Si0C6LikOcVFnRqV+RuAV+OXHWnzkuf+M74dEnR4FoQdYwoLmfsdSDxl4WY2BOoAQXUDhKACXzIEMhStSXAkFz0HFDr97bpfjbyjxhvIeQoDjjJEkGUVS0nxq1MBhvu/T6Xap1Wp84AMfYH19nRs3bthew/j4uB0jV0pjuEJBpVSm225z6cIF5hcWqNfrDPLg28u548Jz6Xd7ZIneU/1+n16/Zxk3VoQ872UM3AFxlrLX0oMag67ue7i+R2/Qpz/oI1Fs7+5ond8woNXtIFKXtc0NkiSxLAMDrZhgOOjp4Y1+t0dUzDUpHA01tHc1JWx7W8MZjkLrX+QN5VJJUwvNfh2ljr32ta/lfe97n7UbMteotof92glJM4eu4/P0aoPPX2uQ+uOMu3HOxNHrSwkH1KtnSfWqBN8wDPOgGFDKb/ALL7zAzXsmOX12nlTm3ft8giVTQ40GKSV+ULBMgHvuuYcf+qEf4qd/+qctNmxO0dFO5qgAdJZpJ4vFxUUmJiYIClrxvhcNLC/UBERzuhtR6NET1iw2cxqb//ZNIzmOZV6Yk9p8v9E7NUHbHBSA5RWaLrD5/jiO2djY4MaNG4gcrxoVmh6dMJMou2g9z+MHfuAHuO+++ywXM8on9wpF37IcTBdXZUOO79WrV7l48SJu6WjOux5m/nriUPNwQwI7q//pT3+aP7y7zrd884Pc+3/8CL0BrPSgWoXFvFr+8L/5GJcuXcKvjA3pcHEM+YGVpUq7ZngSL+fvhmFIuQCvec1r+NRTt/SEWhjwwAMPADA+Ps7KygoAExMTlrUipSQgd+yNNZZsfP3e+ta3Mkjhn/zLD/Glp84jvCAfw9XZdpLWCIKyftPCpZ2X74YFUCzrtZLl96HgFmzD1KwPgGSQZ6Avo4L1cl93u11+7/d+jzd/98OWM6opTpE93A1GC/rw73a1BsNP/MRP8KM/+qM2ezUavpo9MSyhO50OXi7EP7hxA6UU07MzVvNEKcUgiW3lp5RuFPq+T7lYsvvMJBIw5HYbW/mxsTHr3GKCt/n+KIpwA986JZvM1Gj3mopn9GdG13uhUMB3NPZeLpa4ceMGN25oZ5VKMbfHyjnqg7yHMIrhGrbSD/3QD9mESqn9IkqjDA9znweDARGCj33sYyRJTR8UcT9P0r5C8HsF16sSfAeRpFypk/Z2SUhJQg3Y/19/8BR/b/69TE2XoReT+SGh4+Fn+TQXAifwcfMgZ5pbr3nNa/jhH/5hfv7nf552u23BetCqWWaEt1QqDXFh5bB6e5WoF9nvUwKae3pip9/pIjw3H9cdWKueYlGLLZtAawKyuQyx3GwKows6qs5kqCtGP1Xbm6dDO+pM0u1rAnnU69NxPO2Y3GiwtrLC3s4ulUKRNJWWo9xut21Q9wJfY9Yj9LK//tf/Om/+hm8giWNKvgMyIVIeIiggkg5OGuEWxpFZgvI8Wt0WxbFpbrcjfumTl2gHs/gMkJlAIXCdAv3YZbPtUaSC7/mMBRqmSaRgrxvxkx/6VW5tpdx79ynuPTnGXRPQGcCj13b5jx/9H/z3T/9vapVpZJbiOz5xFBO4LrFyyQYZgesjhaNZxh6oWpnf/9zn+cnvuJff+hc/zKNPP0On0+Hs4hSnTgr+62M36UQdvuEbvwsJ7Kw2IILA1waqW6JCM02pC03fiqRLHElWNtrUpyP+/SfPExTHkUIixTiJo7UbQt/FkSlx0iMIFDVXIuMeMYK43eVnvvtbef/3vJtMQeCCTDVsISVEUUJJaSjpS8uCH/zHP8eWUqBC7fcFOLl6mRKK1AUxyCgUKvQihy9e3eHjN1s8cmwRP04oeGLfQWWCu8Eui8Uigyhianqan/iJn+Bf/st/afnhpltfKoQIpWEuM2bcyXV+X3juORYOHWJycpJqWbNCSqGGVlSqWUS9aEAaJ8hQ7oMBDGRgDiHHcXRS0+sh44jNnW1tBzU1iXIEbqC9zmSebZpkZhRiND2R0QaiKyEbxFTCov25tZVV1ldXddMr0HvCEYJuXvGZwA9YqE0pxczMDD/4gz9onZZHhadGr30Uu9RHjh/kdz/3BM+uRnhVgVIpae7UooQClTsVC3CNtg3558JHCf7EpAf3p37qp17yl1sR4a/99h/8w77y2Hesmykna+GSd3rJMaBQZ1rS0zPd2c468d46Dz54HF9ClqbadiPfLIrcRSJKbEliHsypU6eYmJjgueeesxmS4ceaYGgsdEwGKnLO58raCq1Wi0q1Yh9OHMek+ekYhoG1BtKBcijaYWy6TTAeFYY3eKvhlt75tZTSStqNarLGOb5l4RPg6tWr3Lp5U2+i1Ojt6mze8CmNUaL5nUmiXVq/67u+i+/8zu+0VDekrgyUn8MIcW55pPR9MZNtUjh88tOf45NPXaM6Ns5YfRwpFZlUKCkg5wNXfI1Du2HBZpNnz56l7Cme+MIf8YXPf46P/+6n+Pjv/QG//uv/nV/99d/k5uo6C8dPksQKR+gMSOW6p5nI+buGb+wpur0OlXKZrdVV9l78Io888gjHTy1y4vgic5N1Pve/P8c/+/lfodVqcWBqkqvXN/jUk5d1oHI1PtlFs0a8pJs3UvPO8+YlvuVbvoXlruDq9VsEhQA/KCF87RBRCANcYUyEJY6jOdWe46KSlEMVyaCfcP3GMteuXOfmjetcu3aD69dv0G63OXpQU666Tolf+ejHiD0X8BCYhpuR3tS7MXR84jilWCkTRRF7S8/ywOlTTFSrqCwBldr1ZrJFc5gDVuNj8cgR5ufneeyxxyye77oujlmn7lBS0nW199vY2BjdXIbVJBVxvs7DMGRvb49ypWLdvEd5yCZAmbVoXIMN1dIEabMHej2tZjfalzAJifkcvV5vxJtPVwMySa32hHE+Xl9fJzGDEI5nqZ+wXw7VNN2iKGJmZoYf+7Ef48SJE7Y6knekraNfm9/jFytcvLHMr/7W7+IUa3SlxqVDdyh3Cc6IhsP+50tuLuAYcf87ZAC/6d5Df/jGe09+njsu8XIk4Rdb1P783/jx5m4WolXNyBdVfrLnkV+ZxNkZNsCUUgRufsoJXQ78q7/4Du47swAyIfQy3ExTtzpuLgaihkI5MBSnrtVqfOITn+Df/bt/ZxelyQ4ACwUgh1bauvzWwjal3H1ifuGAbUi0221K1ZIdr9T0pcCewu1222LAWaapcNVq1QbgbrdrBZ2zLLOZr8Gaer0e5XLZllqDwYByQZPO0zjh2rVr7GxtMRgMtP+U7xMPkuFnAdycaWGoRCbLSZOE7/3e7+Xbv/3btbvACBasOZua0zwoTutN1NPOACkumVfi41f6/MKv/AZOWKZcLlMKNPzS63csAd7zPCZm5tna2gI0J/lY2OFDH/oZllcb/PCP/jjL/mH9eaKIoq83zGsefIiP/qu/xEc+8r/4B7/wSWq1Gp6vD6gu+lAI0iwfO9cYoOcW8RBEUZOxsTGOHD7OgQMH2FhZ5sKFC3SEtloatLcBKJbywzR3PomVLpuPVRv83//nv2C8UsaJBwQi4dB8jUzC+voGXZFTlvKBlrf9+H9AOgLhSRIlEYzlXX19v5KkrKUWVYJLRFEp5koOP/jd38I73vEO5ubKPPboTf5f/+PTnD9/ES/wNBYo9ZixcJpARubkUoZJTbMNZA/hSPrJgHvuO8m//843aHlNz7EleJqmiLxhZhILU6qb4Yk//NSn+PCHP2yhN6PoZ2EIX7MaTIMaR2fTvVz0/8CBA9quZ0wbv2ZotxnrNNLt2iBrTABMwLwTjuj3+1b4plDQlDezLh3HscmD2Uee5+EobHB2HAdHKqvTffXqVaIoolar0e308yGU1O45QwXNsmzfQVAul/mJn/gJ7rnnHitsZfbsaMAdpQoaqGIlqfH//o//nS+taJgwVFpHYiA0dc3J8uZmHmQ9Is2ZF/pwSISGsDyle1d3Or384+9+wz/8se/+tp+5M86+amyH0bFXlekH5bj6Jv3mb/4m8x/8Hmam6vZ0l1LiBq65C7a0GcVge70e73jHO5iYmODnfu7n9p2mpvsqhCCN9UPIlLSAvvHBun37Ntdv3mB2dpb5+XmbBZsJmtEGgHlQJgMw0zEm2Jv3bhaWKXXMojeLwbwvs0B2e302NzfZ2ti0CycIAm3wN8L+MNmPaeqZ92Y+99//+3+ft7zlLZbVIdAZTy6FgJtvDgOfBPmfBYLV1VU+9jFtza1y3mdxSutYZDKzM/edTsdmRc2mdpmQvmRqDB5/YoV2u42Y1IdtUCrh5PKF165dI001LmueTZJoTE64+wXMHcdhcXGRtdVtSmGB6Wnd8FpeXmZzcxMZ6yym5lf3CXqbewe6miHF3uNRDeZAOGxutkHoikq6GsN1cmfpMAyJshSEvodK6vvmiiFfvFqt0mxsM1Ef4z1vext/7//xDg4GsLLe5Z/+0/+LT3/qUS4W5ygWK3/sjL+BFAr+sNq7cOECv//7Td72trehfL0PzLoc7WeYdWfWU6fT4e1vfzthGPLzP//zeR/BsVCXlJJSRau9GZ8z1xlSIM3k5vT0NDiaUy48l+3t7SG7JufEm7VkAugo+6DX6zE5OWkplcbBeHJykjROLMZsdKiFEHYKTiapDcwA7b0GGxsbbGxs2L1mXMDTNMVztbON2WdmPwghaDQaTE9P81M/9VMsLi7aIG6yd7Pu7uTjmnXoeR6f/L1Pas5yaUFPE6b6tRM17IV8Pa5XdbzYV33IdEacCZdUBgi3wJOx4v/+1LN88H3vZF5EFH09D+7lPFdHOGRSojJdkntC4ZIRK0dr0772Yf7lz/wLfvZn/k+WlpYIK3VUrvdQLpcpFnOyepIQBB7gIN2h31Mcx+xt7LC7scPY2BhzC3O4UmeqSRRT8DWOrAJFFmd04o4dtOg0O7j5SZZlGXE/phgUababw45tQzMzCr5Pp93BKw43yq1bt4hz0WeDM3dTfbLa8i4bIIRDJvShFKcRmdQOD/3+gJmpKX7ix/8uDz5whm5rEyElQrngl1GOxEd3pvcGAUEYEGQdZDog9gKUU2Q79fjlT36ey9sRhco0vZzXORjElCshrVabOO4zUS5TrJXZTQVhWMLxBog4I+7vIgCXhIJwcJMtIq+CdMp6hJUYV/YZ7/eZTjtErkdbQcHRDRpfAlKifJdmc5ufett9/MiPfB//4Of/B61Wi1/+e9+tN4ryAM2flA7c7GZ89/f/fW70XaSooJQHDjgyIpYZjpvhO4qNaJx3/e2fpiN1JjXVu66bMZVZMr/EwNFDLqXusm44+eN6MyooZAJXbEMGA29cy1smHUS3x/vvLfOjP/ojHD02y2YM/+q3nuP/+19+i0Zb4U29hrFoB08JBirfRkLLFOrP4eGaJrvqELog8yAfCp8sdfjXT3fpPTLPn5/VlZB0fVzfR2YDfKGnRz3hkYl8tFjqAZBuW/JN3/xWSlML/OzP/iytjaW8SeYhHEUmwXF9XC9PFjJFoVgkjfWkVhzFtPda7G7uUKlUmD+kdXndchWhJOP1ce3AIoauNCbpMEmWWftCCL2XooywEpDFGUIK4n6MKIGnXJAKVzoU3DAXgPLo93qs7zRZX1+ntdfIzQ5c7RIptB64I4ZVgEmQdEXpE8eaTnbq1El+5Cf/KRMTE2RRC5HpYJ0h6Oawm8oiMgm+7yLjmJao4DouoZvx3Isv8mvPbEBphkCkkKSkeVgMhYIssTHOxVT8kAoXKL6imPn1C+ujL+J5XLhwgU9/OuB9b38tAbngx8iD1dy94ZifEAKpho64hw4d4p//83/Ohz70IZ549rwuiXLVMyGGnmlSShqNhu1e79PNzQP2pUuXEEJrPtRqNbZ396wXlWEzmNLK4Ex3WvVMTExYqyOjcGYU+o0lt8XQHMcaGpour/meSqUCebav3LwU8vRrDwYDHnjgAX707/5dFuamiKKWvVdJLG3mLZVZlCU9junmjsRCK4h9/OOf5Ny5c5TqixTLZZSrMfROYxOFFr3e2Nhga2uLSqVCuaptwUulElHcptvtMkjg+HE9USjz6kH4Ostvt7qcve8uarWi7UC7rkuSl75SCftegzCk2WyysdGzjhbb29u6gkm0iL4bBvTijI7r55v8pfSeUZaB67qavx2O0dzb433veitHjx7lw7/86/SSHmmgYZy/9G3fxtmzZ/mpf/2L+bOR+K6HK1zbIJVScvDAAf723/irfODNU6Qp/PKv/Da/9rt/wPn1Hj2nCsVp0k6HSGrcE/cr049M1iVypxazHnu9Hr/5m7/Jm77rHiYmJuj0daOqHAyZQFJK0hwTLni6WutHiRWL+Wf/7J/xC//6Z7h8+bLN+KywTt4UdkcmRR3HseP3Sik6nQ4XLlygXq8Tx7HWavD0PhFezrvN16xSina7bQNykiTa3ULqP+/t7Vnd3DRNabVaNnM0utZxHLO3vWPdLZTSetBBoIehzOuY6mmUljYagI027w/+4A8iSnW93qPMUkCVGlYMRg3O4NQGOtlaW+e//Jf/AuG9X2toe0XXqxp81civ03Mp+qRIlUsrnOa//e+LOOMLfMdbXoPf32aSAVma0XHHcXEpyr6FA5RS+EmPAEUU+aQ41BdO8E/+1Yf5X7/yb/iN3/gNupFmDShhTCQlQkgr/GFVwvJSZVQPNUt16a0Bf2nxJ9/3qVartqNaKBRo7zZICrpT7mSKxtYOSZJYwXVTHqVpakVfRkceBzk7wwR2U1KZcchYCDIhcFJFIAK9iJKE937ne/nABz5AJgW7/Zg0dgmcCiQpmQTPT/ACSEWN3mCAH+8xUSzS6GV4lTpZpvjtTz3Gf330NsX6IoMkZaIU4mdtPEfSCDx2uwmJH+DVDtPrbdLuRFSFHpToJgMou6x15/i9z67yXe84wHe85638t9/+DEWvRjMXNb+72Oaf/61/wDbw+y+ugiiRZAGVYj604oegJBUnI0oFv/RMh1/+gf8PaXeHQzNTvOcn/wuNRoNd6eGHZTp9zSMVaUQcFxCOg+8kuErbx5igGymNAadRS1cSIqPgC77nz72WyclJfvYXIyJvkkHmoDKHdx4PePfbjvDh/1Bib7eFF3rEaUbPK+Pk8qeDvQY/+i3H+ZvfNEW3D8899SVq7oB/8L3fjnL0oZglmo51ftfhF3/t90hEmme7X25fYA9JrdKn//PDAtdv3uJnflfwQ3/lO5gN93BVhuNAKiWxr2VIC65CZLHmDmeSgi8g6xEmCWcWJvnpn/5pfvEXf5FPfepTNqi2222LA5uGnGkSmyay+XeRKrIo5ta16+xsbFqtkerYmLXVchyH+fl56hVt697v94m7fcbLVQaDGAdhqWTlYslKU/Z6PdqNJo1GwwqYm30B+ZBIFqMSSRQNR+ZHG/Cm72EOSN93+d7v/V7e+9736r0s9X6JlZ7i88hQMiYkJVMesXJROAgvIEtTas6A5u4GP/bRc2wE9+OzX4DoT+v6U8l8h3xEl4997GMslCVvfc0Z0n7H4i5CCFQObJvSxg42eC5pprmBhmZ19uxZfuE//hqXLl0iLBby4DmkyBi8x2CzoyWUCZaOr4PtIB7YrMdkJAZDM9zG0Rl/o+rveVpM3GQGowRu04Ds9XqoO3jJo83Ffr+PG+qGXxbFVvT5gx/8IA9/wxt0ZpFv+lKOsRp1MyF0lzfJ5fdcDKtCQy3PnXsx35Az9nV7vR71/D2bbm+z2WR2dhbPq7Hd26Tf1xbxKZml8fyn//Sf+OaH/yH/8Mc+wKkHvomnzl2nlWO3f+G+OU4cKfPUOe3I7BfO2MwIhs2VJJ9Ei3P8ttvp8N4Pfj9/9TvO8Ld/+BdYeuESYSZAaPzTU5rwn42UuOYejt7rUm6ZY7rNhh8+GAyQJYlf8Ilz+/MsbwbZDMnJsWizdox7SKoT2je96bW8+RteS5YbFmToTSOBQ7vwi7/2e3/s+jf3XmZDV+coivB8l2KxyPnz5/nYxwL+2re+FtcdDjpE+Vh0lsX4QiByARjXE5ZTG8eSoFDkx3/8xzl06BAf/ehHaTablMtly8DJRvaBad6adQzgecP+BegMs9VqsbO3Z/fh/LxuwhraZ6/XsywM0Ot5bW3NMn2MPq9SiixOqFQqtsdiXstwpz3XjP269nea92Les3mvExMTfP/3fx9vectbbMM8zYZrwnVdVJZLzI7gvDoZknkvqctHPvIR1tcn9b59hbq8X+v1qgbfWOgS3SHFUcPuX6ICHCcgCidYTar8/G8/iixO8A33HGIsaxP0N/Wm9Kv5SaghBCcsEaUpYdylEgTItIUQPttqkpOv/1Z+8aHX8Cu/8iv8xsc+Tqfdt5Nr5JvLLBTTpDNB2M8zToTEd12csGA3tiHxV4olmxmYwGwaOk7+rIQQ+I5LuVSyp3Tg+8gcqnBz+T5jYGkggzTPPjzPo1AsEsmU3Z0G4+MTfNt7voMP/I2/Tq1Upttap+Q6CCEZRAlJkgIuiXJxHVePPTraGoZMkoqQJE1wiiWefvEW/8f/uEjmHyNwM9JoQOC5OMmAjYHSAwtJguz2CVTMYCvFm5ylUJuhF7dQpJSzFJnExKVpntvq8cGf+XV++se/i7/ytuO8/23HSdDByAeef36Jv/mh32FNLVATMSKReF6aa0sIXJXhuXrMOAwykDH1WpUvfOrT/PDb7uJH3v0AN576BJmoELsCJUOE4+OKErFbIPEgzl0fHBXjKUFB9lBS9wuEE9BSITLL+MyVJv/P+z1+8Nse5hOf+ASdruKBBx7ggW94Kxtd2BsoKFWJpG4+jvldkF2iBKqlgH/zu8/wnz5zhbQ4oYWRhM7wu5nOKsu5kFOv1yMWQc7vHKU07W/u2MaZ49kGkvCcXPLRISnP8pFHrxPUZ3nv299AabCBq1y8tI8nUjLhM5CCcuAgvBhHZZBleI6PExSJ8zL8r/21v8ZDDz3EL/3SL/H8889b2qJp3JrEw5bj+aivTBMyhLZESjMcCWPlKr2BDnhhGOIhWF26bQOnacoNBgP8oGADpEm0wjBESEUYBDnVUNohI8/zUFLiOg5eoYDKD9k4HtLWTMJjBiDSNOWtb30r3/d935c7cqc2izdDWo4CKVMiKZCOj+85ODKDqEtYKNCPMjK/xIf+9xafuFnDDf198NWf9vWqUM1Mt13mi84EXycnIUd4COEjHJ1FldM9Zv0BH/yub+VNZ44QKs2O6ImindtWSiFy3mtJDCxfsFIZp/H/a++9w+y6ynv/z1prl1Omq/fuIrnJlhu4YeOCjQ0E0wkllFBCKqmX/Mi9hADJTSAkBC6BEMCOAxhs3LGDq4yxkWXLlmRZvdfR1DPnnF3WWr8/1t57zsiSjDG2wcz7PPNoNDPn7H32Xvtdb/m+369x0K6OpJeuri4eWPk4t97yI5YvX06z2aSzo6P4LPkOmxftHe411wxzNzdtpkUkWy6XHcyIFm4EKJxrKxdqDv/JCW9ap3zyCCcIApotmMjW8dE4jl0EUQ4584xXcPXVb+aUU06hXhtGaIPVozWzNLGk1seV/bPzN6MYRNewctf7qc3b+eJ/fo/H9WyXWYiErmo7UsDAwABGOfD+xIkd9O/vRWiD0QLT3u1q0WkNhKacuAchVRNcbT2uM71S4l2vms6JJ55IhKGvr4++vb3cduudPCIXUKlW8VKDMmAzyE6i3b0LccD4NHCRrW8Mx86Yyb/9yZtZtGgm6w6k7Bms0xQWJats3rKdr3312xysJySewKishk6CMiCs55yvTVFhhWFcI/eUCSn//W9/zZQy7NrXYGdvPycvmY4PfP2bN/G//vtht85wLHISN3arTcZrUHPk33HohE0D7RSrw86J7jpHzSKSjKKU5Bk130OZrkYRPEI4FREXuZsCP64MTFaDvO9Nl/Oqk+cSKo84m9yTQcVNmAUSXxiEdpN2qRFo4YGSRWbV0dHByMgIt9xyCzfccAN79+6lkg1e5M9VzrdboHt0WgQoQjimv87OzoJtDFz/IcfFg5s8PHDgAO3t7cSJLsoCeaTaOqghMxRU7nzz6LvICEyumWaLqDdHJTUaDRYsWMA73vEOLr744qL00Gw2EZmQqiVToM7QNWnmTZUcnWit1WqUKh3cdOc9fOHH29F+BatcqVHo5mGd489ruV98rlCzX4rzzYcumjLv/hkUmpJ2O6dULvX0yk7d1JoUaRKqgeQjb72K1y9y6cZAIsdEqj4OK9swo8V3IQRe7GAnDeWcbGdHAInmZz/7GT/84Q8LEuQww0XmTq+4WNmCz6FxGFsMQbRy9bY60zxNzZn7c7xxuVym3hwtOxQpZQv5dZpFHvlC0FozMOA6vEuXLuUtb34zZ511FpFwYoPl0CepN6l6rtkhlMQaRaNItQ3KQpg20FozhIf024jTiE1b9/Cn333CjZ8G7lhTOst4GJLYYXmHMydTLod0d3QiR5wcUl+tSSONUWEuOOjqclPVXj7xod9l85OP8+CDD7L6YESfCNGqjPbbQSuoVKj4EX7qdK3KKNrFQer1OrXO+ejUpX7KQhTXwDQQjRHe+4bL+fQfvp4opcjD8tQ+Al579cfZPQKxXyaW7g8UGdOUde8Xmrp7KKtT3PpK6pywaA4f/9iHOGkBTBKw+0DEZ773M2688UaqgVsDI7LNZSTZCtfWQdkum+tx/vnn85Wbf0pvby++SPnKP/0dr5lRyxqxEmskX3rwAH/9mS+gqm1HfShbIXJ5Wm2MQYlctcUSSEW9XqOzWuYjv3Uer1w8gwleOqbkFeaQNCvx/RJCZZGbGRWWBQpY14EDB/jud7/LbbfeWuB+WyFXOQRseHBgDDtaEARj4H2Dw0PFZGn+epU1rx08rVIQEuXN5La2tjHCs0EQEDWahfNthWLmyheNRlQELPv3Ow25N7zhDVx11VV0dXXRnyEwgOL5tdZijfNHTZ2xt5GORWdIj9jA1x7ey/U3/xgtMhkvk6tuj5L8/yL2izrfF6XmmzeXhjM6vFTbAot6zTXXMP+NS1m8eDFhpbvgrfU8D2lyNi5vDKY2jzqk7xb18PAwofQ444wzOOuss7j33nu55557WPGznzE4OFgU91sndlqdZZpRBebnBIxZqK2OP399vthbeSbyhluezuXnnDf8gGLk8aKLLuLSSy/l7LPPRmUd5UZLtzp34kEQkBpdNAvdojVFGcRaS1gKaSaatWvXcv0Nt1GL5o0pc1SrVQ7s2QXWNS4qpUqBthi00E5anH8YhsSmkaV/lWIRn3feUt542VI+9rH38p3713Pno0+ycvV6duzuAz8oUsVcJUMnmkg7LuO+OMb3StmgSMqcuXN49YWv5J5bb+aBBx7gA+tW0Gw2Gc5oQfMI3io33ow4vHPLLX/gBwcGaGtvx/d91q5dywc+8AHmTmpjchhz4MAB1pvZbuw8GSnWQF7vzTfX5vAw5557BW9907n84OHN7NmzBz8QdHSElEpppvAsmDhhCsuWzaG9vZ26OXrNMFeByGuURSc/I38SwhY81PV6neuuu44J73gtr1iyYAyBU76GlcyVMFxNN/DkmAAjHxbq7OzkD/7gD7jowgu58cYbuf/++ws59ilTpiClpLe3t2hO56/Pz7Woz2Y1+BxpkDfEC5x9Fo3m/YEcr5879FasfCv+NnfKSFuUG3J+lHe9611cddVVzJo1iziOi+cm59doHccuyih2tA/QGlw1o4T7H3yI79/yJKo8AeW52rOwGXLoBeJueDb7pTjfvLzg2QjwsjhCksgQaVN8a7CppuJrSF1hPREhkS0zQgcf+8EmPiLn8tpTJxHKBlUc/VwsfaRVmLhJ6Ptoa119SjmnoJIRPClJjSUySeEsX/WqV3HZZZfxxKpV3HHHHTz66KNs3Lix2FVbd15jDEIKx7krFbJltFLIvIyiihtcNPK8sc44B6XnTjZ3vGmaUs8UVWfOnMlZZ53FxRdfzJIlSzDGOLgVAiUkJTMymg5agfXKjBgwsoLNlFKtSJE6RtkUKcD3BImxPLh6C//7+09jzDzCjEAmtu68opFhB41L3eRQlCbU65aDwxFDkWaADFbnpWhtgU4ndkodJWEPc/jAF+/holccx2tOm8YHLjmGD15yDLUI7rz7Xh746c+4f9U6dg/6jKgKfmcPIzYh8aYDoGSmpCAsiTBcPKGPz7zpBF798COs3L6LzTUXuUSiHWskZPJTiIRyZYZLSy20pY0x627Id5lWPFLjigvP4VWnLuJb3/oWj/aWmDxlDlcukjz55JPct38qSVLhv//8SiZPnszrP/1D5+xwCISYgNRYQqkJdMzC9oRKPeWxp7chyt1Uk630VODePSXe+96/oT+t8NGPfpSPvelEpps9rEsnFiWt1oagzIiQlBLEmU4djNaA02yTwYIIQ2xcoxT6bI6n8Of//Ti//8YOLjp1IZOMIz6PceP06BiERqiQwFMYM8oFnAcEecMzh6SdcMIJbN26lXvuuYd7772XoaGhQm4rDENEXv7wA0qVKqVK1Y2Y+0ELoRWEoVdMixorsoYVhYMVQhBkyBGJwCgXKOgkLYKofOPLm9qJdgHP7Nmzufjii7nkksuYNWsWURxTGxnBjfaqLOgA35fFs5dnDkJrwmzyMfHKxFohlKSWCr5w9y7uu28nttSD8n10vUa5VKJhPFLzEhV8eZEi32czrTXXXHMNdtdJvOGS8zDG3dS83tG6sAoEhFL42Y7v+d4YQbzhYaedtmTJEpYuXcrg4CAPPfQQjz76KKtWrWL37t2FZFHON9uKgsh3zTxdbJ2Ag7HqBa3ON9/d83nz9vZ2enp6WHLCCSxbtoyzzjqLCRMmFKTYRX0sG49uPa61YG3Ghyy9bOrMJ4pj2oMAmxiscWiH2+65l+v+51FMxaEMyiVXs6unhv7+/qJTLBXs2bMH4SmnZzWSkJpnbzgYY1i+fDn33fFffKNquPr0BSxbtoxTlp3O5a+5gMtecwFr9ibceu9q7ntsLY+sfsp9rry2ad09jNJRdjsYHfXMpxoTG4HwUb5jcrNxHR0EPBsKKI5jjjnmGF532anccsst6H3DTJ06lf/zyXfwyf/zBR68dxdKKWbMmMHChQtI0+8Xtcb8+G7iMC7WY/6zfHLrscc2snffnuKc9+zZg+RE57j04U/wcCW9I/1d3sx1QpdO1eSaa66B/nN503knuvKDypxatkb8MMyk0kdRILm1lhfyMtm8efNYtGgRl1xyCatXr+bBBx9k48aNBXIhn4rLx3Nzzbcc6pUjeFpFKtM0dQu15fPmazkvtbRmrUo5zuKBgQF832fixIkcv+Q4zjnnHM4++2x6enpIUzemn6Stwrij2WZr9pDfP19Kcs3CWMcEQYnhkRo33HwH9zx80GXSmZ8oZ3XsPFNN9fMTwvxF7ZfifHN+idBGQIQWCiM8NG46JxGl7GBNlAVlDcrGpMKlL6kssdebwRcePMCT7OEdFyxiXtXQGVqMSUjTfIJO40mPVJVIjEZkNyHOdlMYndd2N7lOreYwoBdeeAGXX345AwMDbNy4kZUrV7Ju3Tp2797N9h07CtLzHPqWQ5y0ozwbswiMHXWWxhhk5h2q1SpTp05l5syZLFq0iFNPPZXjjjuOtvb2wsHkdbJW2FucTT75OsM+WtCpoSk1whgCYkpihHIiqErBSOyRts1i3UCd6++5nzvu2Y4I5lCyTcJKO7LUxv7BGlO8ETraFTtGnBMp+xJpoSJTbBK5xqEKyNmZoqxm35UMu2spQAuPQLlGSnXCFPZHMf/4wD7UfbcSyh9ywrQJ/PHbXTS/9K1LmZAcZPkjP6GtZzJJs4mSIUb6NKKESihQ0UFM6mr1X/jgJWzZfqzrhltLBQGpxuqM+7jSzt99+b/YmVSJRZWG515X0XUUTcpmCGU1iUhQaYIC0sYwYdRLux1yk0jWxwgHE5PGEI3UscrDoJHaNVZDYdBRg0BoAtWkbyRGlALOnKH42dM1DpRm8YHP/icWSdCxmGr/05x3wlyi9BBe2Gd5PnJERF4jzK0iXEq/T04gaAuww72OJyGczT/csYkNIxXefdUFzPP7XDffOhx7EPVRkRBTeUZm1uqI8w0jLw9MnjyZ17/+9Vx66aXs3LmTe+69l82bN7Nt2zb2HzhAbcQRM5XLZYZrNSqVCvWWddvI0Ad5JgmjAQcwpgw3JgrPeiOTJk1i8eLFnHnmmZx88snMnT+nKBU04wij8w1JodQo2+AoXHS05GeMoSRdIJLioX3HMbF1/zCf+O+VbNgwiJUKFTpSIGMFDc+VsUSQkqT2WTf3F8pe8si3FVGANfz4xz9m6Kn/4Q/ffiWVGROzRZWxBmW11FFM39g6I4xlPMobZLmTy5mTTjvtNJYtW4a1rta2ZetWNm7cyK5du2g2mxw8eJAdO3YUtI45q1hrE62trY1p06YxefJkqpUKkydPZv78+cyZM4fOTsfwn6tcjGSLubVMMfahHVs/sxle0feyz5Q6DleRoSxKpRKPb9zIt2+6g4ef2gJepknnKarVKtv3HnAz6iWX5nV09LjjpBHdXd14NqJWq7nI3/eJW8hGDmd57XhwsBebpHR2djNzyjSWnXw8ZyyYxZlnTCyiECEEKksvfd8nTQxCiYzzuZ8gr10CJy2eywmL56JxSU6IW5D5szAIfOYr1z3rGiqyDxyfbY4nBRxBkDEEGZ9z63hsXkMMiwjSTV2uWbOGd7z1Sl7/+tfz0Kf/1Q0HeE7qPK7XOX/ZMi6+8Bh2bGs6Ipn2riOe288D3i8yIJyTac9kgnLHds8995Ds38jH3vAKpk2bRqhchKyNLpADrXXV1mPn6zWv2eafub+/nyAImDVrFh/60IdoNBrs2bOHlStXsnPnTtasWcO+ffsYGRkp1F5a127+3s1mE5Nlh/nv8rVeLpdpb2+nq6uLadOmsWjRIo455hiOP/54Zs6cWTjVPDMbPefif2OwxwU6oyXj9H0fG2dDI9ad05NPPsm3v38ba/dWC86PpOXZaWQsgqXQx8QJL5X9cgQ0hUK1ZK8Si7QJCNB45GUVaz2McCyZ7u8iQKGNxRgJSiGq3dy/P+bx/3iUP3rT+VyweBbTwzqNRoPIK1MOytikCalGy0yiyFMFEYZzWh4CxtBB5k2CHJtorUV5HlIpjj/+eE488UR838Pa0TQpT9fy4n7eRMhha60EOLmDbzabDLfQUtqsfhBmDb1ms+moNbP0MS+hGCNItYdFIWVGfZe6Y4a+IEk0cdjGYN3jvsc3880b7mRDXVDqOBYppROVNDGmdz8TRZ2Ocgf7mhWiyDA1jPFKgqGaptaIibSg2RSUpYaoRlisdudAh7OyAKaMsuDZQbqk4aKT5nHhsuO4+tWn0tPTQ90LiIA1u+C+m9dwy30r2LRpE9VyFWtSjJCEShLEBwAIql0MD6c0hUcT+Mt/vZU1G7djBQg/RGdUfkT5ZqcYaAhCDDBcrCOEiyGbogMEJCLBKp824MO//Sae3rCFhQsX0gW86/Kzmb/oID09PUzp9PH1MN3xXmIR0KgnqLBcENDERhCUOvivFXu5eO0QH7hwEceHb+d79z3Ozp07qagaC2fN4OO/97tUgd+/5k52+TPxpMj4XA+JgsUhnRw7OmYMLRBNv8pwHNMWjmCMpOm3EUURnbZONVDoYCq3r+5j7cDP+K3LLuANSxwBTl13oaRC6EaRmcFokFKUsLJ120pR2drAqzUcGc3cuXOZP39+MQKdxDF9fX3s27ePp556im3btjnMbfZc5BtcXvMtlUpUq1U6OzuZMmUKs2fPZvLkyXR3d1OpVArMcZwkJFkU3tqIy51xkuTNv1FOiZzOMpf5cg5VkyQx1m/H+BWGmwk/Wb2DL/7gSQYHO+gsWTBNmkaCCjBeSGIMntUoASZx3BF5g/fFtpc88gVGIV8K0tTpwdXrdb70pS/x5HEz+N2rL2L69OmQAbmDbMIHbOEYg8BFJvkNCoKgSH/ym5VPwMBoRzSPCnJ4WOssec5v0IqyaK0N57wRrbtxvuu3Eo/kWOPcWkmmW+tk+XXQxvH2osgeGgcl2rp7D7f86CEe3bIfaxXlcgWjbUaL6WHSJtqaguc4TzOlHOU1bjabJNali1523GerTAoh+OxnP8t5i3wCA12kbNu2jf+88R7WbtvHynWb2T9iSEoTMv06VZxT2nQ1tjRNaWS0hJ7nmrJbtmzhiSfWOApNbbG461LOGoZR1KSnp4f46IE5QHF9r3rtRW6iCxdNX3LJJZx9uZthmgz0HuzFGJPVBcNi+qtUKpEmmaKEtXziE59g0ifezzmvPJMlrzwTg4vMg+zrpptv595773XDBs8zby3QEFHTkXZn10jgNmsrHXSsr6+Pb33rW7RffCznnHMOEydPdYiYrJaar6dD13keJbY6LhgtFVglHeFTtgnlaz0MQ2bOnMm8efM477xzi4g0TvLSniBN3bBEvn6VyvsVdrSWn0XNBZdv9rlzJEfefAMyeoG8ljv6/ORlvmIwJNtQgiAgRrJtzx7u+PG93Lr8CQa9KdlnSItR5cQI0ux8gpZjSilfqhmL5+t8DWR1XS1AZju6yDgdpE2zgYuxj7cWAqyHzmpfFVtH6wZx6qE8N6WkU01z4mJu2DbCyv94mHdfeT6XnlqlM/CRNsaYlET4eFndqXWEWObIgJbDOgepsVa7wbCWhoTXslDTFjFMAaQZNjeH9uR/J9w3JHGMyqR+Dm3I5T/Lzy//Xb4o8zFPaySpSdHSoG2ESZsEnsQPKqSJYk/axn2PbeLbdy5n8879VDu76JnYw4xaPwMD/YyodoQx+BisgLoICStdlJMBKu0+9WZEbbhJYt35KGERVhMbR2RjhKP2C+kDIMr4SVERGphrBZMqPo88HfP4449z7T2r2blzJ1EyhNaazo4FIGM6SzFJMkI9rRAEbdRTjQxDms0RyuUKwpTQxjAsQxrAYOyDDAmCMkprmpUu1/SxmkAqKlXoq9fxA1cLt8J1+b2sUVbKyNNFEHDfY0+x+eAQZSBIBx35SmWqy1Di4czJeAyPpBz0JoMHZeuIv5WnaDQijPDRXhnPWLbUNa/92xu4+OIab73wFLorHqFy1Jxfv+1h7n7wMYLqBOd0OCR1zSJe8YxdbSzZdv57oRzHhO+7ychy5MZ0Y51SKbcRW8VQrNGyE78ykb++fTev2PEzPnjpiSyeMwWdjYG3Bg6t69Fk6yx3drkTzjdpY20hEqmUIm3pfWitwVia9QbIUeECNy4ti2h19L0tUbbJtvZh8ucmh0y24u4RZkwTNo5yRIRfbCajzn1UIBYlqTXq3L12H9/78c/42ZZ+qh3HY4GG1iATlI6Q0TBCa4KwDeWFaGtI0pSybSCtpCmeH873F7XnOWQhcc43//lY55sPX0iO7nzLxqWZkc0addYSBBWakUtLKukwpfpezl88iatfczHHLJjtbpbvBigCOdqxdt11PWaHb/03CAJSbQttNIebHAXDw2gNseCcaFlIeZE/jygcLGyUa6C1y5sfM2lJr/JGRf4QGGMQuHPRVmNJEMY9HMO1Jtu27uXa2x/gJ+u2M1jqQYTtJNaNfM7qKDtCmtThKkM7yjnR1tZGOXQ/r9UbNOoxSUbsYnCL2ZNZVJFR4+XOt64y55vdv2nNYSZM6GL3np0kScJAZY6rNVqHGY2alrIXIKzjGTZej7sGEoyNCYS7ziMNp9E1V+1gxowZPLEzLki6pZQMyFw5o0bJ85GZxLvOnKyVY52vIRtnlxCNDJOkEYHWtEmHJBnyXK07yBpreD7IMs3yBDeKngy5+ysF4JFmFIRBOpKtU4ecmUwfHaEbkY6iiL5wOjboIrUugkJkOmH5Mj+i86XluRk15QcFzlVKiZ865jAjQKcCo0IX4EiHIRdRjTDqY6F/gCsuOIuLz39lQQZVHMOOSvVIMarKkqsf55OTDmopi6zR8zy8zInnmVhOjp6LJrQGLjAq45NnfEkLN0serbZi3nMUUY4NRpgx059JnEfwakxp4lBftXnbVu69915uemQTB3SVuGM2w/WIIKvzmsYAbZ5EGFfPb1gPo6UrcwlB2bjyYyRDno/9UifcNvbr4Kr3fCzawSQA/Gy23fjZeGuSQT+UR1xvEHoaEznwc6lUomkl2jrJaa01Zc9ikwgvEwpselWs8EkzKJXI8JutTt4hJUYTAikluj5ATwkuOO1ELj1nGQvnzKDLT6lqR7XolcqkiUVLisXlI7HEhMrRoVhrHUYXH51xh5ZychWV7dSGjFXJFs0bt+Ayx2syEhKTseTLzAlnNSqdFf4tY6E4wmSO2SbZJpHhQHEPSsP6NESZYRPy9I4D/Oj+h7nn4ScYShKUDBGZnAoixROSatlNIvX2DY6JpFvJ3d3nGVt7tIfkWcK4z5cIgTUKIbIBFO3geCnl7LgaD03JOPiVtlkTRCYkGJJgoktX61lk4kVZtJOTuucClq6hZP1+lFKUIhD4RH42MZl5LandphCFjhRHNTQl5SOsw4c2S+0OJWEytEa2XjybIvXohthUpTENzjBz3qnMGr7afR4j3GxmjqrwdBMvjSnZTKhR+mAVVlqwioYKs/d0E4fWWqSxSFnHQ+Bp59zqQQDWw8tuQ5KtM2XTjCfkUFmuQ8eTR4MLR4s4GgxEUcSyGSG/9eqzOWvZqVR9S7unEdrJI7kIWhbPg7UWTwq8jC/YOdXRYERKiSdHm6f5s+fOUoxOmXqe49QQAlSW+aUJwlhsNv5t7ChZjzEmw+rqIujKCXGUcpwOVnkoGRInGf6eFKENaeqcdGQUTdXJgYbhf36ymtvu+wlb9xzEy0jZf1ETIs8KgFQTWDc+PuA7/xfoEYRNsDabqhNgjSIVblJUSIsxMSXtyiuJ3+3eV0dURZM/e9vZf/ZHb3vdPxx63MOWHfJdS2Tdxrye1ErQ0Ww2aWjD9MlT6GoPnAie1uzatYvISoQKMcLduEajTtkfVY5wD6RFiIxp6ee4QKOd2jrLly9n3aMPcuapJ3HpOaexZFaPY7GKY6yR+BlRTpo65UPf90njBCEyzl9rMUYjfVcXzgmTW4HbLrqlxfGOXpe8+KWNHi1B0EJXqXPuiIylKRfws7mSQ0ZykmGKTeb8UivYuG0jdzywguUr13KglqDDLpfqCVmkbDa7HnmnuLu7m/7+/mJCLR8FzQc+ns2K4YCWz9CatmozWmtTArxszJfM+SoP0jQuoHdh9p7I0bFa9zC1RFNCQOAiucBaBD6mGFzR2cM8WjfMqUZNMjqZ1MzeN596IqtVesJDydFI6VCc9mgk5TbT3NUJ4VQtisaUIBN4dOdlpOeyFGHcMEj+uYRB2NFrJ4TAZAMBh0aJv4i1lqpc2j9aUy2VSgwODvCDH/yAzevXce6ZSzl+7jS62zvwPMdiJ7zyMz67W9dukjNOo+I5dxOGFAiKMWs/C1Zyy5+HHCc7ilRwCJ7Wz56fvzEGVD4kMcpC5yYrbYbiyIIylzoVQx1RI2L5yuXccNf9rNlyEFPuoFxuP7To85xNa52xGdboqFQRLSK6aZoSZDJdjUadSqVCqVwG65EKN0mYxA0qba405jaJrGfU0vs5nB3W+RqkkvhUdMSwaKM3dtIipXQI27+bmVXJq846jitOP57TTjsNE7jakbQxW7du5dYHVnLPio08un0/qmsattzNSJKQoJGeROsUT4GInJZbkkHJhHWcEMJG+OQBo1fwqFqpSGU7NVmiv1Zj8wNPcefKbbzy9CWcs/QEliycw+wJFVQ0SGAifGnRqWMKSKwAv4TJdL9cOmZp1IadrLxwyhFCgCddKULJnJUuLdIiozXCghTCcRB4HqkeHcgwWuMJicqwq0JbIGtIAEJIjHEihr6StFfaWRV1sXHLbu5fvpyf/mwlfbU6wguxYRtW+QiRifdli1VagbSjJCRCBbS3t9Pe7uR46vW6Q1VkJQh7lAUA4Fv3Pg2RSb6TEugGneYAE0SNijRUbEIg3GdDZPVxGZBaSaottdRjwDaoSVcWiU1ImnaQYjEqwYomc0f6mMww7SpBeSkkbvMyykmaV9K+MQ2Wg3Y6/bKTXTpF6yr4ZWIsCs/RbKYaTwimeIN02QEmxTHKT5GZdlqqMhayTDtuSHsctO3s9dtpih6EqCKlICEAUjyT0G7rTDQHaNMNeuQwJS9ASOHQPNYSGE1AE2MMg4QMUWXQlhi0FWJ8tGqj6VXRQlMWqZuatBpIQcgxvL9edl+0ONRBHxIJF6l6FiTk24XVVMplaqV5bO/r47EVfdyy7QmWLm5w0dJjOWFOJwu6uwmbB/Hy9zKWVJVIRUCEIE4MnvKRyiMxBrR7f88PwPOIsvqvFBJhjYvKbYIx7vgI4VSpjcHgSmfGuPlIa/NoG4zwwB+Fohlj0GR1YtNJ0kzo8FM6SylxfRhpJCZs4yAV1vWnPLR2D7cuX8HajduxqoQ/aS7WxM6BPc/x4EA1QTfxA8lw2kCrNoQnqOg+KiQ0+3Zz4rxZvGLZmVx6/iuYPrGD0MaItMGTTz7JA+t7+fEj63l6715om4gfNDDGCfrWbYgw/mHP8LDON+9WQlYn9bPaYa3G+cuW8fvvfjOvPKGLrsTtGqmnSFODJwJOOeUUjj/tVN7egM987S6+f/u9NCMnOqmz+t6hddRnsyiKioI8uAZZUK1itUMb3H333Tzx0P3MnzGZS885jRMXzGDOlB5U6BX4T2st1hgCXxUpue/JggAaRjHCrZhcFxGM1oyldLvxofXk1uvV+rP8WJ7ngR1V3LDWsm3rZjZu3Mi3HtnG1h37GR6p44WOvDq1Ei0UibWFs2vFVwpBMeyRSxQBRcSbR6p5jflo1sof4GrYpqiPV4MqXtpEaQOMojNyc5GsouyVSUSV1JYwcYLVGfIjw2Ir39UVQxESKomQrtZqrSXNNirJaJQlpSQkpKzKhMQ0YlF8FmFEQZgShiEVWaGkmwQJCAVCZA2eHE+dlWOqpQqxaGdIVtCpj9FZI8eTaG0KfbWyX6ZqJWXSwmlJY3G8fRaRjdUGKqAkSySiQjMNSWJ3P4xUxXm6SO/nWuZHtDyj0RnfdZ5BgWsM50T9ne1txHHMnXfeyZP33c6piybxqpPncd7JC+lq6yg00yDDzcpclTsZE7XrdLQG24oUwubrWxYTqHnDLl+fwGj0b0ehlFprdJZRFMfKrs+odmNEkp1LkiRs2raen67dzs0PrmL9vhojXhuVSifDDce/XS55pM0IJX+e3PnIlmdFfhiiU1M8L81mk5Iv+IM/+APe+tozmFAGm0DFA5opJWWYMXs2Z1+leFMffPm/buXaG27HDyvFs3Q0DbjD1nzX9VF943v/pLaXDnSmSVEbHuZD507mM3/0frraQ9JaDVXpdqOJxgHb6zjqOpu6SRav2sX37vwZH/una0iDDoxy0iaduO4zYRvNxGBUNgFnYxQaz8RjL44XkCIxVqHxIANcF7CaxNWEGs3YjSx2d7B08UJOXDiDsxYvYFaPz0TfEsrGmMWQaIXwQ2SWXlntnKTRDvQuM8l1m+3UXtYxNsbdsCjNFq3f5hxD2kBaTWDiLK3LqCNRDOmAvqZh10CTp3b0seKpLTy+ZhNbdu8lZZQfNU1TwiCLGHTGV2FGGZxcg3AsITjIIrXWLSngs0HIitpvNlGmcdelx/YxUTaZKgeoehKZEe9EuNpp3rAQaJQFo7PUWAliDcPackCX2K3mIoSgarYxRQ4yyyZUhFfUfiOV1eWziC4ROWtZhIcAKxGU6JeWfabKRrPQpcY2QaV1jpGb6fIgFBJEWtTDfe0eco1yE5a4+xuKjNzdegybCrttB31JlVRVsdYyzWxjmqpTDgRlW0eaGJlvtFYRCfeQ56Ttscp4oKUrfexNe+jVbRwIJ7meiDagY6TKIlaTdfSzvTA07uepOLx3bi1nuTLaaPPJBQlO+FRkDWZrLfWRiGZq8UpVhmuukT13+kTOXjyH804+lsUzu5hUVYTZIX1pCWS2aQhXhsDKjG3My7gbMg3DrGErxKhTyct7+XkZY0hboGbGGAKVYYxtNkJPFhBo97rUArLMYGzZV9Os3zPA8pVP8eBja9l1cIg4a2wKmTXClUWaFKNz7t/nh1ZQwsMYV9bLA5YkSTjD38BnPvFxzl7mxrvrGZWoUZnSjsxY2ShRCqqkPtzw4xV8/J+/zXDs4VfcZvjZt5/1+7/3ztf9y6HHPULNl2Kns9YyUh/h9DPO4JOfvJpS3CStOeepM5xcGJZJogir3E3McZ3NKOWSS07ndwYCvvi1a/AroUuDk1Fsq5TqWbOGNE3BC4pams6cTl6rzCExOdrhwIED3HffLn56zwh3dleYMzHkgqVLOOn42XR1ddHd3U1bWxsegYsuW/CDruY1OsWTR+hKKQfJYRQqU8pIteOMjSsIAoRJ8Y2Lbmu1Yfbu3cvu3n427R1k5brNrNq4k629DWo2xHptKOWjvFFWKVcXd043n0aSjI2w88ykFUHRiisuataM1juPZodOB4ZBSNkTeLrmmh0iKw/kQwNFVmBcFkA+feQ61EHgExrHeZDjLEMZ4qXWRTs6Q4vIsaoeRX3RjkZZWPcZSkEJFWVdeNz1LfklpImLTm1ejy8cVFaj9D2/wJvmDSLP8/Dx8axHlLrIuBSU8EkQQmPNWK6EIuvBlR+K4zFaHy37ZYI4KNZN62d6vpZHouVyuShxNZsNGo0Gkyf2MDzstPZ0CuW2TsrtHSAcW97OnTu5dctqHrnrZk6cM4FXnHIcJxy3iKlTp9JeCVGByti9HJpDilHZevc85KPLeV/EjAl+Wq9Na209r+2bJIeBZo3colbsynl79h9gz74BHnp8DT99ciPb+hoMxIqmLOOXO9DaNcBT7RqtWVFjTLT9fMz1DTR+izK653l89m8/yxlL5pFGtTFsbY0sE88RUdZItIZalHLJxct494DkX//9WuI4HpNtHGqHdb51n86mF6CiEUySsCg4yD+8/RSm2mG0iUg9AWEHg7aC8qHWjAlL3ZjsgzR1nYoXEI8coEeX+NQbT2TDfSF3bB6mFLYxojpAgUpr+L7bUcGhHFIkWo6NBKwKspRTuKjQpJg4BuEulAPnW3yVIlJDIlKkH9IUFZ4YtjzSb7hp+ybC27cyrbuTJfOns2jONGZPncCsCVVmdykqQUhYDgitJQh9bKLxS6M4Q6UkceweXi0ExggMhmZT0xBQb1pGGg32DYywu7effQMjbNy2k6fWb2PXgV6GGzFxlmJ5lZyqUeMp19AKlMQY11UPPYHWCWlk8HKWNXclAIux2fQPTvo8j0J0tvCVlKhsQ8oxnYezHAoVqWyQhBEmmToz2MNUHeGnDrIVBRUSFWIySJpAo4iomAgEpFlEGJgBhBC02TLlpMSWYCo6TVlkDuBjiX3h6EQpgVXEXvYQ5rXBvPYpPMfXawwI8I1mijlIr+yiETWQEjpKJSaYIbTRRKINrI8QDdcsEg5doPGdEzdurZRk1p0XCSU7gkoGCXTAHjudkiwx0/YSkiDSLCKVbaSMQiiL1ly+WZgYYRNC4xjLhPLQqoN+AnTiYYWHER5WOP5hWUAvneURb56BHA4XLIRAZxFid2dnMXJsjMFXkuHhYQYGhujo6HDwv2ZMR7tHvb4fMzRAu1+hLj2abTPZjmDD1oibNjxJd2Udx86bwnFzZjNr5nQWzZvD9CkT6Cp7dJYgJEHaiNAm2Az6iMqoHLVrhiTGMf9Zq9GAsAnSGkKZ4mXNeqMNMWBFQAPJUGIZaMTsOjjEhg0b2LprgPue2siBvhFGGnUEZYSqIisSTwmkiWgjRjaHKUtXrmqmHikKo3qwUiL1yKEX7jmZlSl+SRDbFK/k0ezfx/uvehWnLp5D2qiBTRFY4shgpU9Q7sAYS6NRx5cKIVOMHaYn9BGR4BNXLmXo8eVc8/gB6rUGNa+r+3DHPVLkq4Hi4b3kyks49aSFJLX9Lv0OS9SjGFWqkKaW0PcxxhJnvLgSh3CoZCJ4Skmuuuoqbv/89RkPr0tDyhm2EHV0nF1rfThNU4TVTopFZgxUhQxJnUCoQqTSSIHvB8hAFeiA3bt3s3/b09yvG3SUFJOqismlhM5qG5OnTqKj0saUqRNQBiZN6CqOn5OsSymJtKFWa1CP6vQdHGJ/rc7e/YMM1WoMRYb9A8OMpAKjAqJU4VfbMoFHMaZckH8vxCiuMk8nhXAcCfnOfrhdvvhdcd9Go+O8Y9/Kc3C061tE+CJT+8ii0ynTZ2LLHaTCQxs/O4aTAerfsWlMOWR0/YgxkZO0EshgdsZ1gSdNmoRXDTHW4mWpvQXSVLN7754iigUc5afW+IEjtlfKlXNs0xZRV34tpk+bga9cPdeiEFKASBHCUNu3m0ajjtYJRrjotxJW8Jrue6Ed2oGWiC6/Lz09PZSq1SzryAcSJJiE5lAvQ0ODLWUhhU4oSly/qLXWdfP139fXR5IkdHR0UK1W3eRgI5f7cWWx3t7eYurTaIOUGcInyxLLXpkkabBmzRrWr3ocTwkmdLbT01ll4aypnLBoFlO6qkxsD5nc0cakid0uaAgyAVGjQGhsSzHbOVqdQc00cRQzMDDA0NAQvYNDjDQtu3v7WL1hGxu272L/UIORkRHqSUCt0omVmWK4VaOQT51ijcbPouXieZE+UritTGt9GGDeL369m80mM6dP533v+y2kBO1uOJAxDApFM3Flk3KphI4bxedPkgRrDGF7hbe85S381xP/Nua5ONQO63xDTcPTwySqDRNIfuvsY/FSaHrdrmZjLEIYwniIilKYDHbjSyBtYBEQVDOKQImIRnjD2cfyTzfMZO2mPZSCMiIIGG4OEaoyKh/ayM7TdX+90ZqlBZdEGpRNC1Y0YVI8IJYBqQHr+0TWo24k+J6TiTEWZZsEaDf0oQBVRVPlIJaDTVhZL2MPWuy2Bso2EHIvygo8OZbIOr/5KQJjZFGGKHC70tW8CboQoXAcjlBAYYR1kZwkda8VFmnBN+4Gmmz2P48AtcuvAJVfgjGmRI4LHWutm9WzOV6AIAOHByahLZC02RH8IGTi5PnoNOW973l/kWIp5WTav/HvX2LanHkc3LufOBEO1SDdBl+NUqo2YrJxPBqhBM8LaQo3gbdw+mR0mnL1m95BR0dHEbk3m02+8dV/YeHMiQwNDrGnrjO0QgMlBD3sxTN1JJI23U6CBwKMdaPh8yfPJk1i3vXeD4zhbbbWsnPnTm655Yf49YhdfQcBKGnNJD3AoJa0y3aE1iAF1hW1sSRI6TN15gy0Nvz2O99BZ2dnUZsXQtDX18v13/suQXsP8a5dzLAx/drSpzvQfhvWpthszCjnpsiHj3TO9iddjTHwnPPEambMmMHwwKAjd6r4TJjgpJzyezs4OIgQgkqlgrIpUaPGyIjASh8rQkRQIrXGYZIBaRKscGiexCoSrw3hVRxczwoONA16xHL/rv2IFQezso5H4MGs6dOYNmkCXdUQmzap+IIpE7oohR5JvYnMxuC37dxDosrEVrBxx176ag0GhiJqUYM0sUSpGyryRAeB7EaWDJTAZPzNKns+iiBDKIwMqbegQZQFRIo0ENp8GOb5uV+fFCwkVpJETa4+dT7Ht8PwcJ1QhVjrOTy2NQibUBIOjhdGjv1vSHSCcKyNHgZVH+as2T4nHjOb1atXP3MCMrMjtuJybGF3dzdz5sxBytH5ed9TKM8Rdrixv6N/+CRJqFbbCnKNKJtsCYOgGGt8Kc0rIkwHkhdSIM0op3drE8vVrCRSjm4OIi8KZLXyQ9PTX0Zd6sW2SVOmcfWb31JEWPV6vag1VqtVPvR7f0yj0eCab3ydxoEBUp2O2RxGURmjESQK5s6aSTI8yO/9xV8V3AKtVJ4f/Ogf0mw2ufZb/0lNNukfGHzWcxVCMHPadBpDA/zRX37iGVSG1lpmzpzJ7/7uR/jKV77ClEmT2J8pOBSjqkewWTNn0ExT/uhjv5dptkUF5ai1lsmTJ/M773s/X/vaV5k+Ywa7d+57ztf6UJSNEE5hAm1ob29npF5jZGSEcrlMrVYrsOf1ep329vai56E16EyLtxV//vNY3tcQwg2bWOswt3Ez4fHHH2eNsITSoEhRJkboGCkMnhVo4zLeWiPGBG2oUoVaAloFCFVBBB5CjPLxKkAhDldneUmsQDVlPZwTTjgBg8s4TKo5SvAKMIZXI001SEXQ3s7cuXNZsWLFEV93WOd7fAdDgTW6mfpqeudUOlSAaSYEwsnFyDhyF19m3crMDeXnmF9S3dLFlSiWLJzPkyseYUJnJ8IKenWnayLoIff6LPR1CUXK6MTPWHNcEh5W5OWKLA20BojxclkXYYqTMuSRdRZF4qGFwVqFcgBcx0GhhPtDmQGLrG1RVlDF5xTCFOcnWrCb2FFnjD7S4vKKv7VAkjvp/PMKsppl7sTzf5yiQ/558wjqcBNRz8WkTVFWZ7VNyZwZsxmJ6kyYMAFjDCMjI4WWXS6vlI8wv/kdv8213/8hm3bsxpMRvk5JPPe5u+MGzbhJqVLHGMPMqQvRzYgP/+mfFyWcctmxinmel1E7OtHNN7/tHVxz3bU0hnvxYleGSUTZcfdmJQrPRigLM2bPI4lqfPwTnyzET33fp7e3lwkTJhRESL7v8zu/8zv8xze+xrBJsJn+cmAaBMYjNCPZepYY4TFlyjQ0hr/4+J8wNDRUyFENDbmx5BymqJTiQx/6CP/xlS/RHlhKjQa+9RGmQootMrpRTgc9ep8BiWtGubFkizWO6rS9WqFSLWMxHDx4kEmTJtHe3s7w8LBzjGnqVoBfJbYCYWOEAGs1WI9EuswgRxGVMrJ4IyRaeDSkawYpq12NViRO+NZqpLHkZPNt7WWMFqQCdDYZmlgXZEgpIRsfV204PmYiN11nUsIATNrIMkPlMhUs1qgMDwylLPPKM748eDES994tLXkHITaYlmqOep7xW2JLSBFgEkO11MEZkxTlqEGsE1wRRWbPoDtQpDIFFVVFGUjjhEAqhBeihaZuEipKcMIx07mzlNIT9+4+3HEP63y39I6o1mgt58Qtuug6q8PkE0zPUtdyqdJhcLHipY8Ki6gMEIdsIrmNdqzH4neLbeHQj9DS7c6P8etiHdUS1tb4g4/9SRGR7tixgzvvvLPQBbv44ouZM2cOaZoyceJEUmPp6epiaGhfgVCAZ9appZJ88EMfIooiSqUSvb293HHHHWzbto2uri7OPfdcliw5Hq01EydORBvNxAkTqe/Ze8TzVZnC9Uf/8M8Kna99+/Zx0003MTAwgNaac889lwsuuKDQL2tGTSZPmcrePbtdyeMIg4C+5/HB93/AiZqWy+zbt48777yTrVu3Uq1WmTt3LldeeUXBi3DV1W/hpu9/B7bWn9M1zyNZm+GrS2FYMNLV63U6OztpNBoMDQ3R3d1NZ2en+2zWCb8a7XoG3jMW4s/3fAnhat3GmuzeGWTLKHGSpsisqaq1xkqF5/nYrFdB9gy5PoxTE/alIk1tMVyUn4u11gmWWgmIMevlpbJWn1Sop2fTp57nHTmGyswNX5miue2mVVMqWWP9SHZY51tT1e5IhqriGRqDB2iODNLR0UGa4TnxfIyUCJpoA03piFjajItgc3xlnEWmVUYwUY3Bg/so+z7CJFgjKYUghMUe4pwOZf5X2f+1xEWEwp16/meezXHBYyNli6KVwGf0AC6CdLP26TOUBYrDZ5FuavIu9aGxfd4FF2N+L0gRgmxun2Iy7dDPl0c+sTwMTlHkkTwcmailJVI+zPv/vGaRpMKpXEzsrHDla99QDLXs37+fa6+9lr6+PnzfZ/v27Wzbto0PfvCDzJs3jziOufryi7n5llvQ/Q7tkEjplCeEoukpGgImTJpEYhy3RxiGDA4O8q1vfYstW7ZQLpfp7e1l69atfPCD72f27NlEUcQH3vt+/v2b/8mADBGUiGVILEN8YbFCMqK66Ozu5LLXvqEgRR8aGuJb3/qWE77MHqTvf//7tLW1ceqppwLwgff9Ltd985soYdDWkEqfVPooaxyNo/Jor7ZjM0hbFEXEccwPfvADnnzySSqVCgcPHmTbtm1Uq2Ve/epXAzBlyhSHkZUhmtCtU+vQIe46B9mtdZFevm5lXvYyEPg+bWU3TjvQ34cnFY2ROhN7JnCwr5+DvX10TehB+QEmSVDKw7MNF6HJknN+xmAxxeQiUqCtX0RsCIMy0JZlnJEsu2TPqiyts6T5OrLg+w6DLq1FeQYw6KQJNoOYKekGcxKTlTsM1ko8KUjTBOV5OJSO+7l73mUR0CUyE7jNMjuZsyJmyz/NYWxFpqDd70RO8PX8iHG0smjdQAQhw9EIe2SVGUEVG48QW4hkO0Chxu7p3F/4KAslEWEw9KlOhIC2tJeSDdi6p5/hWNJU4WEVYA+brwqBzgv7AwMD7N69u2heuN+LMfyaz2Y5d+bg4GCxE3gtnfyX2ooJnkPsSOiCQ392pNf/OpovLW1tbYWW3erVq+nr66NadYMIHR0d1Ot11q9fX2Cse3p6xmY0mbViQMOwxFve9LZiHeWyNaVSqeBljaKIu+++mzAMR7kkniWrynXBcpL7LVu2sGfPHsrlcnEsIQQrVqwoOtI5R3N+joezSqXC5ZdeirWWcrnM3r172bBhA11dXYShk/GpVCqsXLmy4I929WNL4D83ptac86C7u5uenh6klFQqFTo7O2k2m/T392OMq/9aaxkZGSl4q2F0oixvLo6dhHz2dflsf5c/64db/7kvyF/fqmiRT8jl53S4bPBXwQfkpSNjDDpN2bVrF0GLSOezWd589VsH7aRk06ZNYyZzD7XDrhIlI22JaIp2Ip1yy6Y6c0/18JIUE9fxlIMLjWSEHZ3pAIDD7zK60/tZLWdEtfHY9l08smUI3TGLUmMPXmAw0ifRmkDkpzG225/v0EYapAFhUyDFlRTTUXxkMes+NhJ0Ncy0mKFvuTLA6E6q8gghe6FpRRHY0R3KrReLzEDmeYiZDx8cGoHmtXDyWlbxvmNrW7412U6eR9hZgy+PfFs/l1VF5D/6qcY2jY6MGz28qYyFSpBhZDMLw3CUcNvaYojFGFM04PLFGRrr8La4jCLEYGWMJcbaTiRe0ZgQQjA8PFyQJeWNpjzKbDabo3yz1lBOU4SIKOsmiW4SiJS2JKGsIzwxCjfLU/XWAZlcwSFHquS/M8oyItqd/pl1ZD111e6cCZBaUTTjkiQpzil/j1KplIlrthfON2+2Douyq7fiOQKprK5RJODSRXU5BaHwwyLF7+vrozlSp6uri65Mjqper1Or1Whr76CtrY2RZkSaOpYwYwUJPhaLp90EnGcd/hvpuYGIrGZZZIg5vjvT7Muf0wSTrS/hiI6yc9JaI33peKBTgyXBUwFgnKK4zfokwgMhHS+y1sSpwNrRoE1mtWGZPb+5goTNSpJauJUvbf7EmQwNNBYtoIXLaHNKUcHRm6bPZr4BT0pIDVUv4LaHNnDJq15Ft9CkNiXOnjSfXO6oZQJXgPEVqTGoeh1fSsqlLvoPDLB+816E34kW/mEjiMOGrVJKnUe0Sim+973vse9As2iKwHOL+EIfrr/+eoZ7e4sHpSCF+RWIGH+R3ffniSx+HSPixKrC0cRxzKxZs1qoDEXx79y5cwsHNzQ09AxH3xrt5KofuW6cMYaFCxdSqVTGMK/FccyCBQuoVqsOTx1FBab2iOcbJwUEy1rL7NmzaW9vz/DAqkAoLFmypIiSCzVn+Uxu2uJ904Tb77yrWK8zZsxgypQpBY9CkiRorTn22GOpVqujkaEQJD8HvK/VoiiiWq26AaVmk1KpRK1WK2rYSimSJGFwcJB6vV5sADkiKbdD12Q+3vts1vp+rdfEWltslvn3rRtb/ty0qovnyKA8Y2mVlD/0Wh/uZy+F5b2rPINasWIFe/b0IQ+ji3e09xBilLHvkUceYfv27UfldjjsJ4+NX05sBU9KymHIEwdiPv/dH9MfeAzZkFiVMFZSTZuU4zqDssqQaiOUdfxkkLIZoWLrJMZiqmVuemwf3/npRqqdFaSN6fM7GSpPoI0aFTOEZ032leLZFN/G7svkShgmiwrlmC9h3VdhwhTd0bEdUnnI12jUC47D1aCK3xdvd8jXM94ve52wR/+S1g0aeMZFhb4x+MYQmpTQtH6+seejhZ99KacIjXJKvLjdXuZflsN+HXr+R/pqqG6GVCfK1KkP7ua/bry1SBuPP/54LrroIsrlciH3fdFFF7FkyZKCxOc7N9zEgIVKHFPNRniHZZkdYga71Cy8IGJkpMYtt95RPMDTp0/nNa95TSFQmqYp55xzDhdeeKGTDc+cjdANmspNsfWJgEGvTF/Ywd7SJJRX5mDfAHfcdWfhQKZOncrb3vY2enp6aDYdD/All1zCqaeeWowXDw4O0rAltE6wzYPs9Sawk06sMAS6TlsyiD64E+mVC3kb3/d5y1vewpQpU4pG5IknnshrXvOaMdH8sOiglEXMDWGJPUmSlhC2jcA2KIkIkfHY2tTVWUOlSJtNAinxhcAaDdYQpwmlSpmOzi4sgtQakozG1I39umlGzxp8x0zgMMr58wEoKZHWIK15xn3Pf26Fh0E5eIG1KG3xbEpoYko2ITQxoYkJrEYJPdrLyI5jsqaaFNnosNEIo/GxSJ0Wz7cwdsy6zM/30OdjdA279x99DtwXOIRFvv5/3nV+xPUvAur4bihLJuyOfT79nz9kn19lKOxBSU0pGSwcqbRgrCKWbdRNCdIYaVJ8X9FUHmtixV/euIIo0QjlY2XzsH72WYtT1lo6Ozv5wQ9+wIIJHr/31ktJI4WyCmNcraPg+G00aQvLmNRxPnS0V1i1tY/PfvazBdF3PjudJAnKZrWyVk84bi+J5Tv37gP9zOlw3fS2tjastVx66aWceuqp7N69m87OThYtWlQ4nHzMdce+/bS34B2lcjSEOd/ucJzS3TOFoaEhurq6GB4e5pWvfCWLFi1i9+7dtLe3M2/ePMAUtcIbbvhv+voOuMgk1oVcDdpFya7W5gZh/v4f/5E//eM/ptlscuyxx/L7v//79Pf3E4YhU6dORQhBvV5HKcV3f3gr+3oPOlhZmqKFg6LlbG55ZJdowxf/3zf409//EAAzZszg937v9+jvdyTw3d1u8qvRaFCpVLjuuusZrGckMoJs6jIm9H10kqLEaD22Wq1SUQH1ep1G3BwztZafZxiGDA8P4ynfQfKajV/LbOpX3UbvucFYQ6VS4e677+bbx83mfW+6qFBFztkVtRnNlsMwJLRxsTaFB//0T19mw4YNtHcuHKPdeKipv/mbv3nGD6eE1L/23zf+Tc2EpMInFhUGaePhlU9iyz0sOGY2pVJARVqs1pTQ+DpBiIBEVjHldupBmZse2sGffe7LrN9Xx++YQZSIDFcr8QHPbbRoR9Q3/vUSfSnTpGSdXpu2EhmU2LB+PeedubRoepXLZebOnUtXV1dW63Qp45q1a/90/bqnL4mH+zEyAgU12tmnOzhofIRIiZhI6lXwA83mdWs4+aSTqVarCCHo6Ohg2rRpTJrkVANUxsH7L//wDyjfZ1//ALGaxk7ZznYxhbpoJ5YltIKeNMH3DUP9+5k0YQKLFy+hoyNTocgagXk6n4tUfv1L/4i0mgODI2wM5rBDzyQRbVhZRYoQIQMCkQI+zcGDTOxq5/bbb+fCiy5iZMRRo+bcyWEYkiQxbW1t/O2//geRV+bRXYPUbIARAcIKV/WVxvUFhMETko72DiqlMgQhfrmMEoJGo0mKpVSpEJQqlCpVLIKRehOUwgsC6o046xe4+2aysceXev38un9JExNK8JUgSQ2pNpSq7dz/0CMMNQxLT1tCuVwiJURrV6suS+kmU6NhIr9KVGrngPH40//73/zXvSsI26ZhgUApXr2k88bTTzzpZz+X8wX48ndu+5shW3bSKUJRKpUo2SYP3n0HG1evoT3wmFjxaJ8wISNbFvjlCrGGjVt28o1rf8i/fe1b7O0botwxgSgVpFZkLEApSrgGmrUWewRKvXF7cUyITGfPapROaDaGmVAJWPXYCo5btLCo6eV12DAMqdVqPPbYY789YdKkePn9y18nMDgOBcFI6tMXCQZEm0Mc1IcdAXk8QChSNq55gtlz5xcDGzk+0tUMUx68554fHjx48Lg9+3YT6ZRmHDCYSvoyYU8pNMI06WkMIm2TwHdRydMbt3D3ffdz2tJTCopO9/lcqeEbX/4Cvuexa88eRlLBPlMhSjyQrulXivsp2SZl0cySdsvQ4AA9kybR3tb+1xMmTLiwFVngZM5jvvS1/8RYwWOb99DUAi1DUqtA+nR3dxPFkeuoC0vJdyrbAwMDDA67Gnh7VjMeHBrKroOrww4NDTkOlHJ5dHoqs19XHPmvokkpipKUEILQ90gaI1RCj8d/9hBrHnuCmVOnMmfGFColHz905PPKV/jlMrVGzKNPbObP//pz3P/wY6j2TpQMUMojiWJeffKk2w7nfI9YdghM2qiYWjk2Bi08TGSIhI83+VhufbrGLX9/I1OnTuakk05iarvrAvfXmuzce4CnN29lcHCEStsM/IpPLR7BJ6IcCEhrCGERCFLhNDOEfe4Nr3H75VmY8SePqA6aqoNhCQf2axZ1pETfuZUKdV576cVUq1UGBwfp6+v77TiOSyeffPLyprbVSFqMKnFQTKdflzkoO7GhpV32goG+oIdBNYF+22B/LWEaFQa+/yM8O8xVF19MW1ubK3ns3n31wEDfFIR3xuO7+ogrczkgQmq2SoTEQ6IFJNIntp08Vu6iO1XMVPtpa+4j3rmJadNmcP33r1970okn/a9qtXpDFEVXDA8P91idXLBt0L7vgA3YGy5jxFoibbDKIpXTKNzpT2af7zNV9NNDncl6H0optu/YSZwk7Y8//vhvB0HQaG9vv14IwX3LH2RwJGK3mciTu3tpeF1O39BAZ7VMEJRANwl8S5pElCttdLV3IFLDsNYkwlCLRggyaXgpJSO1kYIe1fcVpVIVAYyMjKCkKFRJhKAY5hn3vc/PlIkJAkVTG6wKGLYSWZ3JiNZ4U+dw27Ya9/7t9cydOY0Tjz+WKZN7MtY2w/79+1nx2Eq2bdvmIJWdUyGjgjVGuIxFtXUc7riHn3A7GCtrrcqlQax0MKM4cWqfYRji+z4DAwP86Ec/QjUdAH8kNlQ6uvErjschh6n4vo+PxFjH+qOUKGBAriYyHvm+lJZHiDaDbRljSHTC7v19RAcaTPJr3HLj92mmlje87rW/d/rpp9+0ePFxQwD3/eSRk+I4JtaWmg1oAFq2jemI5+KMURThiYi9jSbDB2q0e0Os2bDhtt1bt/YtWrTokXPPPXf5ySefuO9/f+JvFsVxTFM2aRqLplTofuU4qTza01pTq9XwiagGhm3bttA9Ut915WuvXPeVr3zljhNOOOGkj3/8jz/7nWu+yd79+9/XKMOwLJPaANSoqKSUrvSltaaZNqmbOhFRMb1mjHnkPe951/cfffSxWV/60pduW7BgweN79u79q617B9kjIhIlsZ7AWqhUqlnttsnIyAgjpEWkXK/XKXuBU2lOmsX5W+u0yvJ6r7WWzo6OjLfXafXl0XxrpHs4trtxe27mZzBF5ZVIrNOXzNEPaZriZb2M9evX89STq1DSoKMY33ezCmGlXCAlBJJE64yciaJhezg7/ISbF3QP+hOCEVxdTliD1sJNFmk3sVKPYrSVVDonkrZ3YoUgtILEGBJtMiWIGGkSPJ1kjPYK6UkiI0kylYJUeITPV4Rp3J6XRdINNfgZXlILj0SV2CvnsF9KNhKzcSBh5p776Jh3ypbFi+cM5a/10xG1Up1JkwRtUye6KBLQCUHsygo1z8dgSHRAv5UMKgP0EDVmUt89/Wxv5Q/iSy+95D9OPvnEfQDrgzknbZD9KNlDHbCZ462kMQGpw6MC5RS0VGzzZ7HVzEWhSElZSnpx58wFu/ft2zf3/PPP+wHAdjV7ztPesSDb0QjXEFQgtUXaepZyGowRHBTtHJTdbPIWZo5wP6+2048DOO20pTt27dq1aO68eZvu0cvoU32EnkabCLQhKAVUOjowqWF4eBApJaXAiZo2mxGDIyPIiqRUqVKuOQiexVKr1YrUN29I5/he3w8LUppWQUt4ySdzXx6mDQpHEORpQRgGxHENtKvZGuN8nl8qkXoeVgpUxcNKhRSCKCMYCzy3UQvpShJpHOEHPkqrw2IPDz9koYhdtOoA0hKLMBaFwxzGxtBeqpLo0cjG8bbmC0KjDPhSII3ER42R7wn9gNALqSeCcrmMp5+v/ui4PR8zeeSXDSJI5eMpn9S4nd3HUgktpVJAGjc6NvdHan53qAGUUnEURfjlkFI2hoo1+J6kJNUYFdyKn2JJySV/0lRhjFGVSmkoihrV/HystSrHTJZkPk4OvrAgJEJlihsSNxTgCbDeKHpB615jjDImVXEcSQD3f0MpCBCZsgXCoKRAFYMlGd9WNmSQZgodFod9z8/P91VstBMD8n0fTwl8KfA8pxxRq9Xoae+kp6eHRqOB196WDZPYovnX3t6uRaDU8PAwJtHFs5EPnQRBUGSZ1rqyRI4xbrVfFaz8r7N5GW2ClhKdQmpHpzwBZJBN42pDuVwmtQZPlYjSUQWcXF8wDEMaaVx873Hke3NY57u4jaF1//1/xOZdB9X8GROe4bW37O7N6L0086ZNeVZE+ZbdAwrAPuNE3EKaP739uaHSx+2Xavn9nDd94pj7sGXPfvfzaZP1ww8/PP+v//qBTe168Onc8QKc+crz1gzfdt5Rn/41+wa6pZQ6iE1zwYyuMXnY1o1PV3/3ozxmzOg0xac/dOVFn/rgFWrBtCmHzdnW7+stAxwzZWIDYNOuvcGCGVOPnN8Bf/6Oi/7P1a865bPGGLVo5qQGQP+2tR1CCLpmHz90tNcCbNi+t9z6f63TZNe3Pyx27NyiEuUm0eZP63lB1/HTG9ZXtbUKwPf9JEkSX2sdhGE4orX2tdbK87wYxo7vWmuVJ2WyaMHCxlHenhtvvOnivXv3zvc8L47juOz7fmyMUUIIrbUO8veO47jseV4spdRxHJeDIGhorZVSSsdxXC6Xy0Naaz9JkkBKqT3PizOoVtnzvNjzvCSKoqqUUhuT5p+nATB58uRtV1111d0v4GV8hm3aM5CRbhikQSNS5k2b/Jzv5eY97jmaP23iz/Xao+J8D+d44ZkP6bPZvOld4871V9iOdD8PtwDjJD3qA3w4WzKlq/9Iv5u78NhnaMDMmzJJA0dcM7nTze3ZHG/xd9MnjPm77jmLn9Xp5rZo9tTDfu5ZM+e9KGv7rz7xv764f//+uQauzMew83HnMAyL/8NYHbVC51DKGy+44IJr3v7Wt33/cO+/Zcs29bnPfe47SZJ0h5kCTW55/T7vDeTHSdO0wCXn0MPWycbWcfJDeWGArJSiC26LrL4+MmHChGWvfOUr171Al/IZtmBa18+1fp7Nfl6nm9tLP9s3br92tmXf0HiH9EW2AwcOzJVSXpmPR+dijvn/86Zm7uSCICicc+YEgylTpmw70vvfdtttH2l1vK1kObljzd8//z6fTsxJsvJGoRCiOL9SqfQMEq68OZVzbuS8HtlGUnsxHe9LaePOd9yes82b0vEbn8mIF7HQeuutt56f16xzp5c7szyKzDk3WrkncratjI3uwEWvuvCIsgoPPfTQ68OMRzhv+uUMao1Gw/VqMl6XKIoKTcQ8am2NjLXWGS+Hpa+vD3DReKPh1Jbzqa/8dfl7aK056aST7ntBL+avkD037rtfQ3viBzdddsc3/vNzsjnYUfaCpvSU1lFcVlpLIQR42tWjTVuiBTrKqJ864rQMECmX/trsUuUcu5GXMR2lIcqiAu1IPmuBaRoJRjiu/e5avcP3/caOc0/70V/9f3//oSOd54/vuXvZpk2bTgFoNpttYRg2pJQ6TdPDkP2OmhBCG2OUtVZdcMEF1yw5fvERU/xfVRNCSCmfpxDXi2hCCG1fRHzXE088caGU8nJwzVGlVKEq0mg0OO+887jgggtYuXIld911VyHQmg+ERFHEtIULNxzp/Tds2FTetm3bklYiJCHc4MHb3/52rrzySiZNmoTv+xw8eJDPfe5zrFixgt/+7d/moosu4l//9V9ZuXIlzWaTN77xjVxyySX88R//MZ2dnXzuc59jxowZaK05ePAgP/rRj7jjjjuK5iKYMSiOZcuW3fbiXNWX3l72ztfectvHTt+77aSyZ6DWJDQZHs9zrGoj1tEgVuxWAGK63Ouk63T2ZKIETU9m0kVO2NLIjHDlEJRckqFKrM2YnjwwStD/yNZzjnae3/v+9/9Ca/3GNE0LbCk8+/SSZFRpo1KpDC05fvE3n+WS/Crarx1iSgjxokX/23ZsX6IzX+95XuF4+/r6WLp0Ke9617sIgoCVK1cyMjJCW1tbgTIBCILg5rPOOuvGI73/3Xff/S6t9ZQ4jimVSgXk7fOf/zwXXHAe9957PzfddBMAs2bNore3l2azyVlnncUpp5zEe97zHlasWIExhhNOOIFjjjmGKIqYP38+F1xwPjfffAubNm3i7LPP5lOf+t8sWbKEz3zmMw4N4MnWqHnozDPPvOGFvp6/Kvayd74bN248bUJW5C/5Pp6WmVJsJoz5AsdbxhhirZk7d+4TR/qbJ9aumai1LiLcHLby89ABtrzmttNOO+3W53m6L4lZa20r2mHcRu3Gm354cZqmQStnsed5xHHMcccdx0c/+lFWrVrFSSedxFNPPUWpVHqGcrXv+/q8c85dc6RjPProo5fljbs4dgMdH/3oR7nggvP453/+F7761a+OaepJKZk6dSqzZs1ix45dLF26lJkzZ7Jjxw6WLVvGmjVrqNfrLF26FCHgy1/+Mhs3buQb3/gGn/rUp3jrW9/Mj370I1atWoUQquAPWbBgwcOLF//8TdBfd3tZO98HvnPT6xf0DU4JgpCRWGN9j41tDjFUChRpc4S5I67W9MCsM0nTlPP3bkEpxRNtHezp6iFdehqlUomeu29i9mCTrsiAMaztmcHW9grVM5aQJAmTfrKB2b0j9CT9CKlRShLFI5QCDy81lH/r/P93pPNcuXLlZXEcX5mr4sZxXPCC5ryxrWoNeaNCKYXNmiDTpk1bf9IJJ/a+kNcza9yMN9uAgYGBKStWrJiltT6yVMHPacYY5XlekqapL6XUSqkkTpOSlFKveeqp87W1V5KVBHJ+jSAI+PCHP8xjjz3G9u3bOf744xkYGCjwwTCaNc2aNeuIjhfg6aefPqNVzWHixIlcffXVPPXU01x77bUFp3Cu4GGMYdq0acycOZPPfe5z/Pmf/zlXXXUV1157LbNmzeK6665DSsnpp5/O3r376e/vp7u7m2azyV133cXrXnclxx57LCtWrCAIvKJ2vXTp0rue77X8dbKXtfN9/PHHLz5fSkZGRgiqTlNLCMHrP/IRmD+HW/74D4pu69lnn82p738/a698NVEUcdlllzHhne8i6eqhVqvR/YaLuee33190j9/1iU/A0pMYTgepVqts++J1bPzuzYBzUs1mg2pbhWbTjYsuvfCKIzYSnnrqqXPK5XJB/J1L0qRpypw5c5g5cyb1ep2VK1cWD1ROz+lnpOfHHXfcQy/09YzjmCAInjPU7OVmxhj19NNPv/MTn/jEO38Zpd+8RtsK6fIC5/CmTp9eAPabzWZBQvTBD36QgwcP8tWvfpUPfvCDDA8P09/fT1tbWyFUkG2Wt5144olHXHs33XTLhWmaBtbaQgVk8uTJTJzYwzXXXENvby+nnHIKn/zkJ/E8j76+Pv70T/+U+fPnA3Dfffdx9dVXc/bZZ/Pggw8ipWDDhg2USiVmz57N8uXLqdfrVCoVpJS0tzs9tOHh4TGfVynV+5rXvObfnvfF/DWyl7XznfjQqtcrDOXAoxHHxEHI1qpg/f69HLPsTPYGE0m6d+B5Hld+9Hd4+qc/4ZGJ7Vx11Tvoefc7+c4XvsCEm2+nLdX4FrqV4rvHTOHvvvlNuOV+7rvoMnqMm8tvGpgchoQiRkeakpA0RiSrp00kWHrqN5ce4RxXr1/Xve/A/jl5hzmH7aRpypVXXsnFF19MR3sHN99yMw8//DDlasXpd+kU5TnVVOC2U0455QWNGowxKoMD/cZHvn/4h3/4O1JKkySJ/3xBD1k0qzMuFYXMODGEUE899dTZ69at+0yapoWD9jyPc889l9NOO43e3l4+9alPMXPmTKSUvPnNb+b66693o+LZ5hwEQfy6K157xLVxxx13/G6SJBPziLlerzNt2jQAent7C7mku+++m6uvvppqtUp/fz+zZ8+mt7eXAwcOcP311/Pxj3+cU089lWYz4uDBg0ydOpW2tja2bt1alM9qtRpnn302WlvWrl1b8IALIZgzZ86a44477hmY75ezvWyd7+7r77jcGKPyJgLZKGAYhuzfv59jMtFGUzecfPLJUCrx9a9/nWO1puf1r+fbf//3rF+/ngsyohljXQ3t7z7/eejr47+/8hVmKkUap/i+T5CVA3xjMgcq8KWP1rr34osv/tqRznPFihVXKKUuyyOo/CFTSjE0NMStt97K1VdfzZ49e4o6sOd5BTxHWkt3d/e+ExYveUFRDtVqtT8ToCw/+1+/vO3iiy9+5MU4zvbt25fk2nng1l8cx6xevZqvfe1rhGFIEATMmjWLxx9/nMceewytNW1tbTSbTvZr0qRJW492jA0bNixrJSkyxrB1q3vJ6aefznXXXcf27dv593//d6644gp27tyJ1ppTTz2V/fv302g0WL58OX/0R3/EpZdeyu7du9m2bRsXXHABYejz1FNPkSQJ/f39XHXVVVx11Wu5+eZb2bRpE9VqlVwB/Iwzzrj5BbuQv6L2snW+u266/g9nNnZNSauWEVPH8wWerrFg1zATpu0Hr4u9whJPX8wb//j/wNf/mQsObKH69//C0IQpnHrHDRxXr6P8AN9rY5/sYHu1nTN65vCfn/scC/p2UBYenh8SJwkmVKAkNakROkFYiTIKXZrXO/mSy5cf6TzXrVt3dl7Li+OYwPOL0saPf/xjzjnnHHzPp6+vj3K5XIDfc8alcliiVqt1/+3fffpvjTGqrVLti6KoLePciFsbeb+IeZ4Xp2ka7Nu3b47neSilfinTQOP27Pb000+fkWdBNiuZlSpl9h3YT29vL/V6nQULFvDWt7yVn/70p6xbt4729vZi4swYw+LFi4+49n7wgx9cVqvVunPGNc/z6OjoYOfOnfzP/9zN6153JfV6nbvvvpuJEyeyYMEC7rnnHiZMmMBJJ53EjTfeiO/7bN++nTvvvJOrrnot9957P1EUFRHu4sWLmT9/PosXL+a1r72cRx5Zwf/9v/+30DtLkgghRP+ZZ55504t5bX8V7GXrfHfu3HlcV9aM0jpFZfSBUkqefvppjsdNAU2eORM6O7n1u99FCMGxxx7Lhg0bUEniQOVSucXc3slpp50GQvDkk0+yOAzxrSRpRG4RZc0xP1AoqbAaJJJFixYdEdi+Zdc2tX///rm5pHnr9FCOuTzxxBMZGh5iy5YtTrInDIoHJet+3yiE0Fu2bFlqjJE6SZXv+4kQQqdp+rzT4nyqKQzD5owZM26sVCq/Md3ol9IeXfX4rP7+/il5FpQ73yiK3NRYklIqlWhra+Oee+9h06ZNBQqiRdDy5qM1se677753WGu7W9dcrgD96U9/mv7+fl796lfzxje+kSiKWL16Nffeey89PT3s2rWLhx56qJhO++EPf8jxxx/P448/TrPZpF6vs27dOq6++mrSNOXAgQN87nP/wA033EAcxxnLWxMpYerUqVvPPvvsI+KQX672snS+/7P8J8sW9O2e5eTgJT4+qXKOZEoM3bX9MKNCfNoS3vO7H2btDbczpd7AWks1Sjlm4hTuaJ/OpKahmmpUSVCSKW313SQVRf/kTirrHXNRFJYxQiCMxTceJe1Yq7SEyEvjvUtP/J8jnedTK9ZeKIS4vJUZrtloZkxWLhru7u5m+/btJNlmoLP6We4Uy+Xy4Bf+6fPvebGu7bi9OLZq1aoLPc+7zGARSqIzhEvO61AKHA3o+vXrWbVqFR0dHY7GNRuuiKKIqVOn7jh+0TFH3Cw3bty4NJ8wy3kYpJS0tbVRq9X41Kc+xRe/+EUmTpxIHMfs3r0734h561vfWnwvhGD16tW8853vRAjBjBkz+Od//uciU8vROUmSUCqVKJfLxSaSJBGvfOUrD8s38XK3X5upoudiDz300BvzSDKvoeZDCzlN39CBA3z4wx8GKfne975XoAgeeeQR2idN4Jhjjik6sRlNIatXr0YKydVXXz1GXjtfXK3EInn08fb3vv2IQw+PPPLIla0EKHl9Oqeya29vZ+bMmRw8eJBms1mMYuZDGNZa5s2b9+QLdyXH7aWyFStWXJ5vyHEcF822/N98jNj3/QJBkJeicsTM0VAODzzwwJKML6KAeuVDGWnq+hj5wMXWrVvZt28fYRgWXA05uc7hpN9zJwvu+Whrc5Sa+QaRO94oipBS9p955pk3/rKv36+DvSwj37m33/B+GUo0msRrR0tJ0ATPeiAs2lj2H9jBwsWL2fXZf+f8vQcQ1unK2c/+KRzbxclf/lfuuu8+Ng8NMHPmTKa85y+ZOKDZ9K+f5fIPvZt137uDxx9/nPldAXvvupM5d/4UQ41maBkJJYmpMhB2HjHq2LLvgNrbGJ6ew23yUoIVIJSk3mxwwgkn0N7ewaYtm0EKtDUFzjdbvHecefoZvzETQb9JJrTBxMnNSgithHo92pIPAkrA83zXRCbD81rAWnwhbxZCaJuk6qTFS45Izbh69erzlVKxtboKICUYk/HXZt87v2oIwxzKbLJgBqzVCOH+BVqkjHJZI4u1oJQgjptj3t/zJGkao5Sgs7Oz97zzzjsqDvnlai8/5/vTnyw6VFrFyZu7SZrYFfi59dZbmbZyJbUf/YgFLd1eIRRf/tjH6Hn7h1hw0kl0TOzhiSeeYGKW5t92223cO7iX+We8jYULF6IPbGP9+vXMwdWQ67pGxinPxRdf/I0jnebKlSsvHR4efqMvRsnGrbUFQYobvfTYtmMbGzduLFii8ppeJqw4ctZZZ21+Qa/nuL0k9qUvfektAJs2bTpqwzTD8+okSQKl3Gz7ggULnrUp+uEPf/jf4jguNxqjJPYvhZ1++um/MVwOh9rLzvn+7Ppb/mx+zUwspc7pmowAJ9QWYSNGgjqe53H6NTdTKpUwth9pLOVUIUSIjCWnNwXqH/8NpRR10+SMcpnhkpNLX9brkVz/Y6Z+5wGMFtQUXKgUZdEPCZS0oRpUWD2xvLX8qmVHLDk8vfKRc9s8S6IFwkKapCilCDynHtJoNNi0YSOf+fTfobWmUnL1s7CcDWAkKTPnzvuNoN77Tbafx5Fm9pyHX/7gD/7gH5/ra8btl2cvu5rvqlWrLsxrpq38onnBP69rqWwyLK/ZAkX63yo5ns+7SymL6DOPVI0xhbZW/vpc5LDRaLQF5x15nn7Xrl2L8lpxfqy8Rp3XjPM6NZDJlCcOUeEaK3ecdNJJLyrj/7iN27j98uxlF/naM0+466dr1pzTVRtZopQC4zhIE881q6TvGmgVVc1A5Z1ubj32SeJMoylN0WVLM6pRjl2DKyKbRrIOg/tIELnOcNN1ibXvF9pfgtKG6rt+6++Pdp6L585ec7B3oLcZ+LFSShtjlJRSJ0kSZPCdhpTSRFFUzSVWMjxmWQihOzo6eq+6/Ipx5ztu4/Zrai875/uBv/3ch9iwtoN6oxMpNZRj0jQglDWEAF13P9e+S+eEBWMUtgJWQZoGCAGioSmpBka4n2XaWXgqRmtFOQ3w/Qa17OdB4l6npSYSsPSU3Uc7z4/+2V998gW+FOM2buP2K2wvO+cLwKLFQ8CRkAbjQwLjNm7j9pLby67mO27jNm7j9utg48533MZt3MbtJbBx5ztu4zZu4/YS2LjzHbdxG7dxewls3PmO27iN27i9BDbufMdt3MZt3F4CG3e+4zZu4zZuL4GNO99xG7dxG7eXwMad77iN27iN20tgL88JtxfJNoPa1OQ0KR39qQdJxTAoBGbEp1trlAUpBKaaMCglus9jupToakI/QKwoCwFaozxL7FliY1BeQKw1gZBogEHNlDBkRGq01Gjpo22C8qGRJJQndLLDg/g4+I1SgP1Nt+ZGAhNRLfs0AWKLTFOCoMSITbTvW6WshVShhcAkGl9KdKhRxqASIAhoWo1vDMpfQn/fel3u0crHgrEoK9HqeIaGt8QqGA66lULbgKYxyMACKYEQwBJeUBHXl5uNO9/nYV//+gOfXzPQ+Ji1lnLoQRpRSp3vq3ltTmNNO423SuxIp4dKjmmtHDUB0IFjTQvDEKktyjiuXmSdIAhoNDOFgpJTLPaxkGg0MaHyEamX6dQlzJ0791/+7s2n/P7Rzvlr//6f79+/f/9cJY0WQujYpIHv+7HWWnmeF9fr9c5KpTJorVVpmgYAUkqtlIqNMQpjqVarQx/72Me+8EJe21+WCSH0i3m879/8w8vvvffedwpP6TiOy75UsZRSm1QrKaVGCoQQWmsdSCl1IMJmo9GoijK5CoryhWzMmT1vzR997Pf/4WjH+ue//Pcv7dq2d0lJ+efrjAfaelXH5KdGENog06pTWgncZfACz0lS6Q73d4Fj9jOpAHioXmrWpJS6WgsuA4VQPrFOH6mX9td834/b44mXpWlK0zpiKZkoSp4PNn1oxowp69/3+Xe954W/yi8PG3e+v6D9aB9nLx+Wb4zaZ5EKS2oNqUopt00CIDXDThDTVJzsSkfshAOFh1SSiMDJwega1QlVGs06KSmyrQ2jBUIoRGqotg0hpaQu20hFSkUZCCFNPDzPo+GlCBlTjht0JEw/2jnfcvMNlz386H1vTKy5TAYV4jimMyhTq9UIggCtNeVyuaDabJWIyWk2M9HO25YvX37HOeec8yvPJ2xzQqQXyVasWHFFvV5/W65AnWRSVBKRXzuEECQ6pVwuMxLVi9+naUpgfBJg287NR+SCBlh/766Thp5qnD2tOW+pUoohv0aapnTZbsfWJxtu3agAH6jEEluPUMKR9qcicpSrDY9GI6YcdiOEOLt7eAjP14zYOkopxEgnHZ53hq5PcZu/ilAGMFU8z6PmN4jFCLFunN0oxY+9KBf5ZWLjNd9f0HbsGDiuVCpNz0UHlVIEgSM6z8UtW7mEAarVahalOvWKnP+3Xq8Xr8+15FSmvJFz+uavcTSYo++fpilJkiClZMmSJUeUCQfYvHnzKcBlSqmCF7her1OtVnNFBJIkGfP+uW5cfk7GGNrb2/t+HRwvvLiR71NPr+vYvXv3fCii2OJaJklCrVaj2WxijCEIRlWoc9XhVgWWZ9Pmu/322z8SBMHSXP0EwPf9gmM6X2c5/3StVsPzvOIe5mtJa01HR0dx73PxTc/zirWYr4l8TeY/d8ovjoM6DMPlr3nNa/7thbu6Lz8bj3x/Qfve9ugv99sKSlhIFNL6KAtLuhtcfd5xzFYRURTlC5NaBFv21fnc4ykGQ1COiZIhJjWbvP2c03nVSXDddQ9z53APgecR1/udCGdHlYYxVGILOqWJBCVBpaRYlFdG64AJ0U4WT1ZHdb5r1m04E6tQRkAa4nkl8IZoNBo0Wh7gcrlckLoLIfDD0BG5a40SgkmTJm17US7yL8FezMj3iSeeuND3/cty55amKZ5UlMtlps+byvz582k2m6xcuZK+gQGCIKCZNJ0YpbRYLMJK0iS949TTT7vjaMcaeSo624srSE8hPYVOJdPnz2GobS3GGLoI8eKAAxurJPWEcjWgFjeQcUgYVohURM/CCVz1gTO47rrrYMU0fGlJVBO/VCYZEgSiisA52zQEY2OIFEIp4jKkqcWLfSq2h/3qabXgvBm/kVpsv6iNO99fwLZsOaD27ds3PwyqmDRGILCWPCqkvR3qvXUWze9GANt3N+joKKN6I8DJBdXrdcKyl0l9w969sHv3bmjvKaJQpRRR2nQ1Ohm6hznwMJJClVlnkVV3d/cds6dzxMV/9733LG2NxnIF3LInWLhwIcccdxy+77NhwwbWrVtXlB3yqDd3xEKIG0877eiO4TfVVq1adWGSJEUJR0rJ8PAwF1xwAe9469uI4ogwCLniiiv4x89/nt27d+P7juw/j36llHR1de0797RzjngvH3969RTP82LPeCRxUkS87/rI+TD9fFBADBi49n89xJYtWwCXuZRa5NzPOOMMpi2Yzsknn8zqxw4Wii7NZpPQaydQAXGUZAreFoRBkclzGYG1bt0HQcAxxxyz4oW+vi83G3e+v4Ddd6D8Nut1q6aBEhowpFaipeCePYZ7v7uTVxx4lI9//HWs7od//s4KmkEXAKd0Voj372F6ZxmJ5Ml0kOXrNvD9oWGS6izalUtLX1FqUi6XqUdNRCB4cEgivBArmqRRjJRQsgplDMFIwpK23uWLjqLj9djqlZcapV9vtHMOUtYZiZosPO5EPvaxjzFUq9He3s6Vr72SW2+7le9e/z1830f5zimUgtClxcao11x62VEj7N9U29/bOzcvFeVSUG1tbTz2sxWsfnwVBw4c4JzzzuU9734P5597Lt/4xjco9VRoNpsgs2g5Tpgzb/ZRSw59TwyfoQbLy6SSiFAwrPopnxzAPNj1kyEeuPF+ypFP1IQd+/dQqoY0k0HwUwbVQWIbIb2ISbMFxLB25WZ2VXdToRMaJSqqGyM8+qMaw5N3Ogmtuk85DhHlNmySouIm5SAgTQPSZmPDsectvO7Fus4vFxt3vr+ArVu37uwk6cHzvCICtdYShAGN1KXvkydPJvRh506dRbeSqVOn8t43TGDtzxZw6elw30+brF3xMB98yyLuexruvecx0jTlHe9YymWdkOKK8r1D8OA3t4+JWj1PoqMYYRVBEGw+55xzvnu0c962bduS/PtcBTkIAnbv3s0XvvAF1q5bx8SJE/nEJz7BWWedxfdv+MFo6uy5DrlSigXz5/9aNVWiKCq/GMe5/sYbLhdCYM2o/l6eLRw8eJAocuiACRMmYLGsXbu2aG56nkdKnNdSbz7rrLNuONqxnnzyyfN9vx0hBJGOsNIW8vG33HILBzf30paWkKLsmrKNBvMWzuXVr7mAKbM72dc3yFe++nlKpRIOoAZ/+Zd/SbNPc8cN97J/a7/LtsKQq97xDubNm83gtmEevO0Btm3cjbKj9f+8/nv+pa946AW+xC87G3e+z9FuP8g5jwx5V1ZMiggUsQJjUjwvBRFhRRvWWtrKfYTAT3caGnYiYZJSGu7lAj2Bc06Ev14HDzz5GG9sDzgN+N7ahNJIhf/3nmPpqMD7bxlg3759XPvGKUyylmbJkCQJVeNKmFGqwQNJRNOMVF8xc/6GI53zww8uP65eH+kxxkDQRjNNUSVBbDSMjLBmzRr8MGRwcJBEp0XTECicvZASz/N48sknz3/3e99zu7VWSSl13iD6RS1uRmUhBFJK87ze6DBmrVV33nnn+++66673KqX04ZpvufM4yns84z1bXquR7vU9Eyfut9ZeniMalHLafhhLpVLh3e9+N8cccwwdXZ1861vfYtWqVYRhiLZZY9a9OWFX0DjzjGWbj3Q+vY83p9SeMBeWJPjaEFgo23ZefcXxxKWIOW+bTkd/mQX983n8kdXs3bqD+cfN553/3+uwBoY3QzO1RGnIxJ5uaIN3vu8dGNXHtMXTeJVYxle+8hUmnFrlwx/5CFVVZv3qgyw8bQJvPvNyvvCpGxne1k91RGAB7dWZsnDCw8/lvoybs3Hn+xxt27baEmBWEATUkwTr57VQ56i01rS3tzNv3jwARkZG8H0fT8DSpceChZ/8ZAX3rm9irWXRkuMxFmq1GgsWLGDCBPjOd/6Hnf1TAejs7GTXrl1ApsastVNi1glBKLHGMGvWrKM2OlatWnVxkiSXe56HblFmzqP2SqVC/+AgV1xxBRN7JnLtdddSKpWIoqhAcHhSobW+ec6cOTs8z4sB0jQNpJTPC01gtWHBggWPTZkyZdPzeZ/D2Qc+8IE/HBoampjjZw+3URhjjtqQO5pzFkJobU1Qr9c71q5b9xkhnEPKEQGe5yEsRFHE0NAQYRgWatd5XRjpOdRJ2kQIwfTp04+4iQJs2LDhDGvtUof5dhlVHDfp6OhAInnlsldisXT0B6xeuQ7P8/idP3wzgwNNPvnJT6L62qhUKsyaNQu6od4Ln/70p4ltH1/8ylfo7OxESsnb3/52qt1l/umvvsm+ffuYNrebP/yrD3DRRRdx/Vf/GyldrdoI8cSzZV3jdngbd77P0e7YlvxuwyuhVILXbKJSReCX6VcOOlaSBjV4kGMnT8bWYFN/H0IKJtr1zJl8LE958NVVfdTkfKrVKlMnWwIB6YEHee1lr6UXeLpWZlbcpLu7GykE6zdENFPX2KhrjR8EYMskCPz6bl41v+Oao53zug1PnV0NykQajG1DKkmaNJAyxKQJg4ODnHTyybzzne9k1ZOreOCBB0bT4TR1DjhO6O7u7v3Mp//uoy/SpX7e9qY3venmF+M4/3PvPcvWb970mTh2zVchHGZXa02oPLzA57vXf4/bf3QHf/M3f8Mb3vAG7l++PIN3pa6mKksAt51w0gn3He1YW+/a8TulpAqeoGk01pPEYZmeGfPZu2U/3/7QA8ybNQdkRO/Ofi76k9NhKnz/L69n2v7ZtKVTMXVD7Zh9UIXHb9mKV5vK7PkLoAG1vYZS2sPUuWV27FqLXq+ZJCZR97divSYdnkdJCxLrNvHBcH9z/psnvyjX+eVm4873OdrevXsX5Kml7/ugKWqxUko8T2GThLlzJ7J9e1+BWhCJoKsLDtQp8L2NRoNJk+azrzd5RnprjOGSSxYADgUh5cxn/I3Wmmq1unXJkrYjNsA2bXyqY3h4uDu1FuGXCmywVO71tVqNV7/61bz3fe9j9erVfOlLXyqaRfmQRRzHSATLli279Zd8OV8WtnLlyktzrC2466qUcrXyRpMoigqsbLnsStBBEBRYaxcBW8IwbLzuoivvOtqxdu3atcjaAKVkhjowzJozm7AUsH//foQQ7Nu3D5P1Xru7uwF3D3P4oLWWs88+G4DHHntsFNPrwe233+7QNoF7vxy1cdFFFyE8j9tu+6GL3rVbI/PmzXviBbmovwE27nyfg31rRe1tDetVfelj0jpl30dIQ5I0qGIxQmBMJz3TZ3JQwaP7JVUGSaOU7uEOpofw2H7YwXRCUWfmjEmYTti9x7Kl7ZV8/RH4+hXwJ7/9SvprEHZBH7DGeLTZBkkiwfcxJkGZBqHn8Yoy3z9bccRU9Y4H7n23bK9cJhtNhEixDBOEAZ6OiOsNXnP5FbzpTW/iwQce4Bvf+AaJ1pRKpaKEUgyOpPqO00477bYX72r/+tjmzZuXBkHgrhmjgxLWWj70kY+QJAm7duzgzDPPpNLWxvXXX08zdg04g3bwwcgyZ/rcozqyx25++kKPMolOSEWMUYKkMsj8844n9RKask5y1l5EUqWnOYkdOw4S7+uGCE5/3Tl885vfpH3SNPbs2sPrjjmHxEJtzUEmBG2ccME8KEG3ncJAow7NCovmLOXaCfcxe/oMzjz1PIY2DDC0uYm1Ci1TYp2w+MK5R53EG7cj27jzfQ62du3ac3x/ssoxsMYYsC7KQRi0NUWj6p6fHGTjxo2kqYsgp02bxr0/hbX7XDrfzLrhj67ayWOPPUaansnmzXv59rVbmTVrFhu3beIVF51H52QYHBwkpYr0S6RZ9JKVBOLjjjvuqF3mnTt3HhdFESLrTCtPEUURWke89z3v4YLzX421lp6eHv7iL/6CZhzz7W9/m/29B8ZM7PX09Ow5Zv6CI0LZflPtoZ89sihJknJqXC0e5RqTVrvNq9lscuqpp3LOK17Bxo0b+eY3v8ndd99NW0c7SZIUUbLW+o6lS5ceNer9yU9+8kZrvSVKKXRWim42m3R2dmKxnHn6mbzi1Fc6jO9O+MRffpFrr72WmfP/hNPOPobTzvo0HIQvfv67dHZ2snfv3mLkec6cOSBgw4YNCCG45+67edWrL+Sf/vWTYKBvZz/XffsajOkCyGvWTyxcuPDRF/gSv2xt3Pn+nLYyZfq6/vBsyinCKgQBiVEYLVzDxB/EGOhIU+oH9vFveyKsN4HEM1hPcmfT564ntlNqjBCErsez72Avf33AQ8oTmKy3Mtk2WL67TueBfuZ0lZk/Hb68ETap2WjhoaQizYD4XurTGXu7375Mff9I57xm7brunXsHFzUjSXdYduUGCaVSgFcXdFS7Wb9+PQAdHR0ADNVq1Gq1ouyQox0WLFr4awUxe7Fs+fLlb5ZSXq5ExnuRbcASNzjxzW9+k+985zuEGZqkEbnmWJQmSCVRnqARN+gIO0cuveTCI26kjY062Ld+/7KS7SLwK0ghsClMkXNY/b0dPP3DXaS6SagkoIlMTFfs0xZN4d//6JvMmzvVlRZ0G80dMT/6xD0AiNAnjmMe/edVrLCPU/IqANz7tY1svjNGRoqqKLFz6zaM6STxXA/ApIPMmlNZM3/RzPEN+Re0cef7c1pvLzONMUvjOKYUVrHGzbX7vmMhy1EPOReCUooUm5HnJChVAqBUKhEnDaTvpsf8oFzM47/tjWcwYzJEA7CgC7bsgDvvXImQZfd+WZ1ZCIGJDTNnzj4qv8KqVasutNZeXKlUSCNHpDISNd2Mv7V86UtfwuDO25DVkzOeijwict30+K6TTz75qFHZb6rt3LnzOGMMJmtAcQg4wvM8oiii2XRjxNWqYxnL/y7vFcyde/SSw7Zt207yff+MHFsOYK0b6Ni1axcIjedD2mzgeQLrjfJL+L7Ptm3b3CRcUkEpxdatW1FKEesApRQ7duxwE5VRxQ3XKMW2bduoyjZMLXGNQ89DKdw6BE455ZTxNfE8bNz5/px21/InPjCgLDLoILZglUaaBI8Y6UE58QHQngVGG2MiMZRRYByaPQbwAowFBEhjERYGdYnv3NvLyYsmIiV8/Z5+tuzeQ6o60ChSY/HDCrJRo0qKsinL5vpHrcGuWfvk+WWdgE4wwuGRy8IDDVoJUF7BrHQo3koaixQSow0dlWrvOWec9WtBpPNi2qpVq6Y0RkbalBBIJFh33SCDqGW1X6+FHc4tDTcQgbZE1kNKecfU+dOOCjFbfsfy3zUNA8rixx4yDhFCEPu1DGosMAlIVXFrK3H+3QcwIGmDGCQam2oU7ZBCIAxoi6GMSRShL4CUtpEQCBGeRHseiU0QaBTGla4Sw4yZJ4+viedh487357R58+Y9tvLA1q1a67me58VSKqxJEUIkz+d9tdZV3/djKeXInj17GsP79vRba2kY0yHcSO8UP/ATMKU4jlXZ8/rTZjOW0jaOP56j1nuPPfbYh/LBAvNM/3pUkzgSdyEEp5566o9+8U/48rWTTz55X4YAufUXJfBJhBcYY9S73vTWo47nnn/++dd8Z9MPTsGgjDFtvlL5wEf8ixy3xVpx2s/4DDrDlXueF0sldT2pB8Y4bHbXfB5/nsf+jTbxfCeUxm3cxm3cxu252zif77iN27iN20tg48533MZt3MbtJbBx5ztu4zZu4/YS2P8PtboyJ1n8i6AAAAAASUVORK5CYII=;" vertex="1" parent="1">
          <mxGeometry x="460" y="100" width="316.76" height="185" as="geometry" />
        </mxCell>
      </root>
    </mxGraphModel>
  </diagram>
</mxfile>
